<ttFont>
    <TTGlyph name=".notdef" xMin="177" yMin="0" xMax="1593" yMax="1416">
      <contour>
        <pt x="177" y="1416" on="1"/>
        <pt x="1593" y="1416" on="1"/>
        <pt x="1593" y="0" on="1"/>
        <pt x="177" y="0" on="1"/>
      </contour>
      <contour>
        <pt x="543" y="267" on="1"/>
        <pt x="884" y="630" on="1"/>
        <pt x="1232" y="263" on="1"/>
        <pt x="1320" y="351" on="1"/>
        <pt x="961" y="709" on="1"/>
        <pt x="1319" y="1053" on="1"/>
        <pt x="1226" y="1143" on="1"/>
        <pt x="886" y="783" on="1"/>
        <pt x="542" y="1147" on="1"/>
        <pt x="454" y="1057" on="1"/>
        <pt x="808" y="707" on="1"/>
        <pt x="451" y="371" on="1"/>
      </contour>
    </TTGlyph>
    <TTGlyph name="A" xMin="2" yMin="0" xMax="1495" yMax="1561">
      <contour>
        <pt x="2" y="67" on="1"/>
        <pt x="148" y="91" on="1"/>
        <pt x="686" y="1561" on="1"/>
        <pt x="807" y="1561" on="1"/>
        <pt x="1330" y="91" on="1"/>
        <pt x="1495" y="67" on="1"/>
        <pt x="1495" y="0" on="1"/>
        <pt x="1007" y="0" on="1"/>
        <pt x="1007" y="67" on="1"/>
        <pt x="1175" y="91" on="1"/>
        <pt x="1048" y="455" on="1"/>
        <pt x="404" y="455" on="1"/>
        <pt x="278" y="91" on="1"/>
        <pt x="452" y="67" on="1"/>
        <pt x="452" y="0" on="1"/>
        <pt x="2" y="0" on="1"/>
      </contour>
      <contour>
        <pt x="1017" y="546" on="1"/>
        <pt x="803" y="1159" on="1"/>
        <pt x="729" y="1392" on="1"/>
        <pt x="435" y="546" on="1"/>
      </contour>
    </TTGlyph>
    <TTGlyph name="AE" xMin="2" yMin="0" xMax="1852" yMax="1553">
      <contour>
        <pt x="2" y="67" on="1"/>
        <pt x="140" y="91" on="1"/>
        <pt x="729" y="1553" on="1"/>
        <pt x="1674" y="1553" on="1"/>
        <pt x="1703" y="1268" on="1"/>
        <pt x="1624" y="1266" on="1"/>
        <pt x="1578" y="1460" on="1"/>
        <pt x="905" y="1471" on="1"/>
        <pt x="1090" y="860" on="1"/>
        <pt x="1527" y="867" on="1"/>
        <pt x="1553" y="1031" on="1"/>
        <pt x="1626" y="1031" on="1"/>
        <pt x="1626" y="611" on="1"/>
        <pt x="1553" y="611" on="1"/>
        <pt x="1527" y="772" on="1"/>
        <pt x="1115" y="777" on="1"/>
        <pt x="1325" y="85" on="1"/>
        <pt x="1694" y="98" on="1"/>
        <pt x="1784" y="324" on="1"/>
        <pt x="1852" y="291" on="1"/>
        <pt x="1807" y="0" on="1"/>
        <pt x="983" y="0" on="1"/>
        <pt x="983" y="67" on="1"/>
        <pt x="1162" y="91" on="1"/>
        <pt x="1042" y="479" on="1"/>
        <pt x="417" y="479" on="1"/>
        <pt x="269" y="91" on="1"/>
        <pt x="452" y="67" on="1"/>
        <pt x="452" y="0" on="1"/>
        <pt x="2" y="0" on="1"/>
      </contour>
      <contour>
        <pt x="1013" y="570" on="1"/>
        <pt x="809" y="1229" on="1"/>
        <pt x="770" y="1405" on="1"/>
        <pt x="451" y="570" on="1"/>
      </contour>
    </TTGlyph>
    <TTGlyph name="Aacute" xMin="2" yMin="0" xMax="1495" yMax="1920">
      <contour>
        <pt x="698" y="1651" on="1"/>
        <pt x="994" y="1920" on="1"/>
        <pt x="1101" y="1811" on="1"/>
        <pt x="1065" y="1783" on="0"/>
        <pt x="978" y="1726" on="0"/>
        <pt x="883" y="1673" on="0"/>
        <pt x="785" y="1626" on="0"/>
        <pt x="740" y="1608" on="1"/>
      </contour>
      <contour>
        <pt x="2" y="67" on="1"/>
        <pt x="148" y="91" on="1"/>
        <pt x="686" y="1561" on="1"/>
        <pt x="807" y="1561" on="1"/>
        <pt x="1330" y="91" on="1"/>
        <pt x="1495" y="67" on="1"/>
        <pt x="1495" y="0" on="1"/>
        <pt x="1007" y="0" on="1"/>
        <pt x="1007" y="67" on="1"/>
        <pt x="1175" y="91" on="1"/>
        <pt x="1048" y="455" on="1"/>
        <pt x="404" y="455" on="1"/>
        <pt x="278" y="91" on="1"/>
        <pt x="452" y="67" on="1"/>
        <pt x="452" y="0" on="1"/>
        <pt x="2" y="0" on="1"/>
      </contour>
      <contour>
        <pt x="1017" y="546" on="1"/>
        <pt x="803" y="1159" on="1"/>
        <pt x="729" y="1392" on="1"/>
        <pt x="435" y="546" on="1"/>
      </contour>
    </TTGlyph>
    <TTGlyph name="Acircumflex" xMin="2" yMin="0" xMax="1495" yMax="1920">
      <contour>
        <pt x="404" y="1654" on="1"/>
        <pt x="673" y="1920" on="1"/>
        <pt x="819" y="1920" on="1"/>
        <pt x="1088" y="1656" on="1"/>
        <pt x="1018" y="1617" on="1"/>
        <pt x="745" y="1817" on="1"/>
        <pt x="466" y="1617" on="1"/>
      </contour>
      <contour>
        <pt x="2" y="67" on="1"/>
        <pt x="148" y="91" on="1"/>
        <pt x="686" y="1561" on="1"/>
        <pt x="807" y="1561" on="1"/>
        <pt x="1330" y="91" on="1"/>
        <pt x="1495" y="67" on="1"/>
        <pt x="1495" y="0" on="1"/>
        <pt x="1007" y="0" on="1"/>
        <pt x="1007" y="67" on="1"/>
        <pt x="1175" y="91" on="1"/>
        <pt x="1048" y="455" on="1"/>
        <pt x="404" y="455" on="1"/>
        <pt x="278" y="91" on="1"/>
        <pt x="452" y="67" on="1"/>
        <pt x="452" y="0" on="1"/>
        <pt x="2" y="0" on="1"/>
      </contour>
      <contour>
        <pt x="1017" y="546" on="1"/>
        <pt x="803" y="1159" on="1"/>
        <pt x="729" y="1392" on="1"/>
        <pt x="435" y="546" on="1"/>
      </contour>
    </TTGlyph>
    <TTGlyph name="Adieresis" xMin="2" yMin="0" xMax="1495" yMax="1897">
      <contour>
        <pt x="963" y="1689" on="1"/>
        <pt x="944" y="1689" on="0"/>
        <pt x="908" y="1702" on="0"/>
        <pt x="881" y="1727" on="0"/>
        <pt x="864" y="1762" on="0"/>
        <pt x="864" y="1784" on="1"/>
        <pt x="864" y="1808" on="0"/>
        <pt x="885" y="1849" on="0"/>
        <pt x="918" y="1879" on="0"/>
        <pt x="960" y="1897" on="0"/>
        <pt x="981" y="1897" on="1"/>
        <pt x="1033" y="1897" on="0"/>
        <pt x="1080" y="1840" on="0"/>
        <pt x="1080" y="1801" on="1"/>
        <pt x="1080" y="1776" on="0"/>
        <pt x="1060" y="1735" on="0"/>
        <pt x="1027" y="1705" on="0"/>
        <pt x="985" y="1689" on="0"/>
      </contour>
      <contour>
        <pt x="506" y="1690" on="1"/>
        <pt x="487" y="1690" on="0"/>
        <pt x="451" y="1703" on="0"/>
        <pt x="424" y="1728" on="0"/>
        <pt x="407" y="1763" on="0"/>
        <pt x="407" y="1785" on="1"/>
        <pt x="407" y="1809" on="0"/>
        <pt x="428" y="1850" on="0"/>
        <pt x="461" y="1880" on="0"/>
        <pt x="503" y="1897" on="0"/>
        <pt x="524" y="1897" on="1"/>
        <pt x="575" y="1897" on="0"/>
        <pt x="623" y="1840" on="0"/>
        <pt x="623" y="1802" on="1"/>
        <pt x="623" y="1777" on="0"/>
        <pt x="603" y="1736" on="0"/>
        <pt x="570" y="1706" on="0"/>
        <pt x="528" y="1690" on="0"/>
      </contour>
      <contour>
        <pt x="2" y="67" on="1"/>
        <pt x="148" y="91" on="1"/>
        <pt x="686" y="1561" on="1"/>
        <pt x="807" y="1561" on="1"/>
        <pt x="1330" y="91" on="1"/>
        <pt x="1495" y="67" on="1"/>
        <pt x="1495" y="0" on="1"/>
        <pt x="1007" y="0" on="1"/>
        <pt x="1007" y="67" on="1"/>
        <pt x="1175" y="91" on="1"/>
        <pt x="1048" y="455" on="1"/>
        <pt x="404" y="455" on="1"/>
        <pt x="278" y="91" on="1"/>
        <pt x="452" y="67" on="1"/>
        <pt x="452" y="0" on="1"/>
        <pt x="2" y="0" on="1"/>
      </contour>
      <contour>
        <pt x="1017" y="546" on="1"/>
        <pt x="803" y="1159" on="1"/>
        <pt x="729" y="1392" on="1"/>
        <pt x="435" y="546" on="1"/>
      </contour>
    </TTGlyph>
    <TTGlyph name="Agrave" xMin="2" yMin="0" xMax="1495" yMax="1920">
      <contour>
        <pt x="749" y="1608" on="1"/>
        <pt x="704" y="1626" on="0"/>
        <pt x="606" y="1673" on="0"/>
        <pt x="511" y="1726" on="0"/>
        <pt x="424" y="1783" on="0"/>
        <pt x="388" y="1811" on="1"/>
        <pt x="495" y="1920" on="1"/>
        <pt x="791" y="1651" on="1"/>
      </contour>
      <contour>
        <pt x="2" y="67" on="1"/>
        <pt x="148" y="91" on="1"/>
        <pt x="686" y="1561" on="1"/>
        <pt x="807" y="1561" on="1"/>
        <pt x="1330" y="91" on="1"/>
        <pt x="1495" y="67" on="1"/>
        <pt x="1495" y="0" on="1"/>
        <pt x="1007" y="0" on="1"/>
        <pt x="1007" y="67" on="1"/>
        <pt x="1175" y="91" on="1"/>
        <pt x="1048" y="455" on="1"/>
        <pt x="404" y="455" on="1"/>
        <pt x="278" y="91" on="1"/>
        <pt x="452" y="67" on="1"/>
        <pt x="452" y="0" on="1"/>
        <pt x="2" y="0" on="1"/>
      </contour>
      <contour>
        <pt x="1017" y="546" on="1"/>
        <pt x="803" y="1159" on="1"/>
        <pt x="729" y="1392" on="1"/>
        <pt x="435" y="546" on="1"/>
      </contour>
    </TTGlyph>
    <TTGlyph name="Aogonek" xMin="2" yMin="-529" xMax="1495" yMax="1561">
      <contour>
        <pt x="2" y="67" on="1"/>
        <pt x="148" y="91" on="1"/>
        <pt x="686" y="1561" on="1"/>
        <pt x="807" y="1561" on="1"/>
        <pt x="1330" y="91" on="1"/>
        <pt x="1495" y="67" on="1"/>
        <pt x="1495" y="0" on="1"/>
        <pt x="1323" y="0" on="1"/>
        <pt x="1294" y="-8" on="0"/>
        <pt x="1223" y="-41" on="0"/>
        <pt x="1150" y="-87" on="0"/>
        <pt x="1082" y="-143" on="0"/>
        <pt x="1028" y="-203" on="0"/>
        <pt x="996" y="-267" on="0"/>
        <pt x="996" y="-297" on="1"/>
        <pt x="996" y="-367" on="0"/>
        <pt x="1067" y="-425" on="0"/>
        <pt x="1139" y="-428" on="1"/>
        <pt x="1172" y="-430" on="0"/>
        <pt x="1237" y="-414" on="0"/>
        <pt x="1296" y="-390" on="0"/>
        <pt x="1343" y="-363" on="0"/>
        <pt x="1358" y="-354" on="1"/>
        <pt x="1376" y="-426" on="1"/>
        <pt x="1356" y="-441" on="0"/>
        <pt x="1299" y="-478" on="0"/>
        <pt x="1221" y="-510" on="0"/>
        <pt x="1122" y="-529" on="0"/>
        <pt x="1061" y="-527" on="1"/>
        <pt x="1010" y="-525" on="0"/>
        <pt x="935" y="-492" on="0"/>
        <pt x="885" y="-441" on="0"/>
        <pt x="860" y="-374" on="0"/>
        <pt x="860" y="-338" on="1"/>
        <pt x="860" y="-289" on="0"/>
        <pt x="914" y="-188" on="0"/>
        <pt x="1003" y="-98" on="0"/>
        <pt x="1115" y="-23" on="0"/>
        <pt x="1174" y="0" on="1"/>
        <pt x="1007" y="0" on="1"/>
        <pt x="1007" y="67" on="1"/>
        <pt x="1175" y="91" on="1"/>
        <pt x="1048" y="455" on="1"/>
        <pt x="404" y="455" on="1"/>
        <pt x="278" y="91" on="1"/>
        <pt x="452" y="67" on="1"/>
        <pt x="452" y="0" on="1"/>
        <pt x="2" y="0" on="1"/>
      </contour>
      <contour>
        <pt x="1017" y="546" on="1"/>
        <pt x="803" y="1159" on="1"/>
        <pt x="729" y="1392" on="1"/>
        <pt x="435" y="546" on="1"/>
      </contour>
    </TTGlyph>
    <TTGlyph name="Aring" xMin="2" yMin="0" xMax="1495" yMax="1920">
      <contour>
        <pt x="2" y="67" on="1"/>
        <pt x="148" y="91" on="1"/>
        <pt x="660" y="1491" on="1"/>
        <pt x="624" y="1502" on="0"/>
        <pt x="562" y="1541" on="0"/>
        <pt x="517" y="1595" on="0"/>
        <pt x="492" y="1662" on="0"/>
        <pt x="492" y="1700" on="1"/>
        <pt x="492" y="1748" on="0"/>
        <pt x="532" y="1828" on="0"/>
        <pt x="601" y="1887" on="0"/>
        <pt x="692" y="1920" on="0"/>
        <pt x="744" y="1920" on="1"/>
        <pt x="796" y="1920" on="0"/>
        <pt x="887" y="1887" on="0"/>
        <pt x="956" y="1829" on="0"/>
        <pt x="996" y="1748" on="0"/>
        <pt x="996" y="1700" on="1"/>
        <pt x="996" y="1663" on="0"/>
        <pt x="971" y="1597" on="0"/>
        <pt x="928" y="1543" on="0"/>
        <pt x="867" y="1503" on="0"/>
        <pt x="831" y="1492" on="1"/>
        <pt x="1330" y="91" on="1"/>
        <pt x="1495" y="67" on="1"/>
        <pt x="1495" y="0" on="1"/>
        <pt x="1007" y="0" on="1"/>
        <pt x="1007" y="67" on="1"/>
        <pt x="1175" y="91" on="1"/>
        <pt x="1048" y="455" on="1"/>
        <pt x="404" y="455" on="1"/>
        <pt x="278" y="91" on="1"/>
        <pt x="452" y="67" on="1"/>
        <pt x="452" y="0" on="1"/>
        <pt x="2" y="0" on="1"/>
      </contour>
      <contour>
        <pt x="744" y="1562" on="1"/>
        <pt x="776" y="1562" on="0"/>
        <pt x="834" y="1582" on="0"/>
        <pt x="877" y="1618" on="0"/>
        <pt x="902" y="1668" on="0"/>
        <pt x="902" y="1698" on="1"/>
        <pt x="902" y="1728" on="0"/>
        <pt x="877" y="1778" on="0"/>
        <pt x="834" y="1814" on="0"/>
        <pt x="776" y="1834" on="0"/>
        <pt x="744" y="1834" on="1"/>
        <pt x="711" y="1834" on="0"/>
        <pt x="654" y="1814" on="0"/>
        <pt x="611" y="1778" on="0"/>
        <pt x="586" y="1729" on="0"/>
        <pt x="586" y="1699" on="1"/>
        <pt x="586" y="1668" on="0"/>
        <pt x="611" y="1618" on="0"/>
        <pt x="654" y="1582" on="0"/>
        <pt x="711" y="1562" on="0"/>
      </contour>
      <contour>
        <pt x="1017" y="546" on="1"/>
        <pt x="803" y="1159" on="1"/>
        <pt x="729" y="1392" on="1"/>
        <pt x="435" y="546" on="1"/>
      </contour>
    </TTGlyph>
    <TTGlyph name="Atilde" xMin="2" yMin="0" xMax="1495" yMax="1920">
      <contour>
        <pt x="350" y="1760" on="1"/>
        <pt x="369" y="1793" on="0"/>
        <pt x="427" y="1851" on="0"/>
        <pt x="496" y="1895" on="0"/>
        <pt x="574" y="1920" on="0"/>
        <pt x="615" y="1920" on="1"/>
        <pt x="663" y="1920" on="0"/>
        <pt x="734" y="1875" on="0"/>
        <pt x="795" y="1820" on="0"/>
        <pt x="855" y="1775" on="0"/>
        <pt x="893" y="1775" on="1"/>
        <pt x="924" y="1775" on="0"/>
        <pt x="979" y="1791" on="0"/>
        <pt x="1027" y="1818" on="0"/>
        <pt x="1067" y="1854" on="0"/>
        <pt x="1084" y="1873" on="1"/>
        <pt x="1126" y="1813" on="1"/>
        <pt x="1107" y="1781" on="0"/>
        <pt x="1050" y="1723" on="0"/>
        <pt x="981" y="1679" on="0"/>
        <pt x="903" y="1653" on="0"/>
        <pt x="863" y="1653" on="1"/>
        <pt x="815" y="1653" on="0"/>
        <pt x="744" y="1699" on="0"/>
        <pt x="683" y="1754" on="0"/>
        <pt x="623" y="1800" on="0"/>
        <pt x="584" y="1800" on="1"/>
        <pt x="554" y="1800" on="0"/>
        <pt x="499" y="1783" on="0"/>
        <pt x="451" y="1756" on="0"/>
        <pt x="409" y="1720" on="0"/>
        <pt x="392" y="1701" on="1"/>
      </contour>
      <contour>
        <pt x="2" y="67" on="1"/>
        <pt x="148" y="91" on="1"/>
        <pt x="686" y="1561" on="1"/>
        <pt x="807" y="1561" on="1"/>
        <pt x="1330" y="91" on="1"/>
        <pt x="1495" y="67" on="1"/>
        <pt x="1495" y="0" on="1"/>
        <pt x="1007" y="0" on="1"/>
        <pt x="1007" y="67" on="1"/>
        <pt x="1175" y="91" on="1"/>
        <pt x="1048" y="455" on="1"/>
        <pt x="404" y="455" on="1"/>
        <pt x="278" y="91" on="1"/>
        <pt x="452" y="67" on="1"/>
        <pt x="452" y="0" on="1"/>
        <pt x="2" y="0" on="1"/>
      </contour>
      <contour>
        <pt x="1017" y="546" on="1"/>
        <pt x="803" y="1159" on="1"/>
        <pt x="729" y="1392" on="1"/>
        <pt x="435" y="546" on="1"/>
      </contour>
    </TTGlyph>
    <TTGlyph name="B" xMin="106" yMin="-14" xMax="1326" yMax="1566">
      <contour>
        <pt x="106" y="67" on="1"/>
        <pt x="284" y="92" on="1"/>
        <pt x="284" y="1462" on="1"/>
        <pt x="110" y="1477" on="1"/>
        <pt x="110" y="1553" on="1"/>
        <pt x="351" y="1553" on="1"/>
        <pt x="396" y="1554" on="0"/>
        <pt x="483" y="1558" on="0"/>
        <pt x="575" y="1563" on="0"/>
        <pt x="678" y="1566" on="0"/>
        <pt x="738" y="1566" on="1"/>
        <pt x="856" y="1566" on="0"/>
        <pt x="1038" y="1517" on="0"/>
        <pt x="1161" y="1427" on="0"/>
        <pt x="1224" y="1298" on="0"/>
        <pt x="1224" y="1217" on="1"/>
        <pt x="1224" y="1148" on="0"/>
        <pt x="1188" y="1022" on="0"/>
        <pt x="1114" y="919" on="0"/>
        <pt x="998" y="844" on="0"/>
        <pt x="919" y="828" on="1"/>
        <pt x="1001" y="828" on="0"/>
        <pt x="1149" y="778" on="0"/>
        <pt x="1261" y="683" on="0"/>
        <pt x="1326" y="545" on="0"/>
        <pt x="1326" y="458" on="1"/>
        <pt x="1326" y="355" on="0"/>
        <pt x="1248" y="182" on="0"/>
        <pt x="1087" y="56" on="0"/>
        <pt x="844" y="-14" on="0"/>
        <pt x="679" y="-14" on="1"/>
        <pt x="636" y="-14" on="0"/>
        <pt x="546" y="-10" on="0"/>
        <pt x="459" y="-6" on="0"/>
        <pt x="382" y="-1" on="0"/>
        <pt x="352" y="0" on="1"/>
        <pt x="106" y="0" on="1"/>
      </contour>
      <contour>
        <pt x="431" y="863" on="1"/>
        <pt x="458" y="859" on="0"/>
        <pt x="539" y="856" on="0"/>
        <pt x="625" y="856" on="0"/>
        <pt x="704" y="857" on="0"/>
        <pt x="729" y="857" on="1"/>
        <pt x="802" y="857" on="0"/>
        <pt x="932" y="895" on="0"/>
        <pt x="1028" y="976" on="0"/>
        <pt x="1084" y="1102" on="0"/>
        <pt x="1084" y="1189" on="1"/>
        <pt x="1084" y="1268" on="0"/>
        <pt x="1023" y="1380" on="0"/>
        <pt x="919" y="1451" on="0"/>
        <pt x="782" y="1483" on="0"/>
        <pt x="706" y="1483" on="1"/>
        <pt x="676" y="1483" on="0"/>
        <pt x="599" y="1482" on="0"/>
        <pt x="522" y="1479" on="0"/>
        <pt x="454" y="1473" on="0"/>
        <pt x="433" y="1468" on="1"/>
      </contour>
      <contour>
        <pt x="432" y="103" on="1"/>
        <pt x="450" y="96" on="0"/>
        <pt x="519" y="85" on="0"/>
        <pt x="600" y="77" on="0"/>
        <pt x="683" y="72" on="0"/>
        <pt x="715" y="72" on="1"/>
        <pt x="799" y="72" on="0"/>
        <pt x="963" y="105" on="0"/>
        <pt x="1092" y="187" on="0"/>
        <pt x="1171" y="324" on="0"/>
        <pt x="1171" y="429" on="1"/>
        <pt x="1171" y="522" on="0"/>
        <pt x="1110" y="650" on="0"/>
        <pt x="1001" y="729" on="0"/>
        <pt x="851" y="764" on="0"/>
        <pt x="762" y="764" on="1"/>
        <pt x="727" y="764" on="0"/>
        <pt x="636" y="764" on="0"/>
        <pt x="544" y="764" on="0"/>
        <pt x="460" y="762" on="0"/>
        <pt x="432" y="760" on="1"/>
      </contour>
    </TTGlyph>
    <TTGlyph name="C" xMin="87" yMin="-28" xMax="1310" yMax="1567">
      <contour>
        <pt x="87" y="731" on="1"/>
        <pt x="87" y="858" on="0"/>
        <pt x="147" y="1081" on="0"/>
        <pt x="255" y="1267" on="0"/>
        <pt x="404" y="1413" on="0"/>
        <pt x="584" y="1514" on="0"/>
        <pt x="786" y="1567" on="0"/>
        <pt x="893" y="1567" on="1"/>
        <pt x="965" y="1567" on="0"/>
        <pt x="1089" y="1550" on="0"/>
        <pt x="1192" y="1527" on="0"/>
        <pt x="1276" y="1503" on="0"/>
        <pt x="1309" y="1496" on="1"/>
        <pt x="1294" y="1220" on="1"/>
        <pt x="1213" y="1220" on="1"/>
        <pt x="1175" y="1400" on="1"/>
        <pt x="1113" y="1439" on="0"/>
        <pt x="954" y="1478" on="0"/>
        <pt x="849" y="1478" on="1"/>
        <pt x="771" y="1478" on="0"/>
        <pt x="620" y="1437" on="0"/>
        <pt x="484" y="1356" on="0"/>
        <pt x="370" y="1237" on="0"/>
        <pt x="287" y="1081" on="0"/>
        <pt x="240" y="890" on="0"/>
        <pt x="240" y="778" on="1"/>
        <pt x="240" y="681" on="0"/>
        <pt x="275" y="497" on="0"/>
        <pt x="344" y="336" on="0"/>
        <pt x="447" y="202" on="0"/>
        <pt x="582" y="106" on="0"/>
        <pt x="749" y="54" on="0"/>
        <pt x="848" y="55" on="1"/>
        <pt x="970" y="56" on="0"/>
        <pt x="1153" y="119" on="0"/>
        <pt x="1198" y="166" on="1"/>
        <pt x="1242" y="335" on="1"/>
        <pt x="1257" y="335" on="0"/>
        <pt x="1295" y="334" on="0"/>
        <pt x="1310" y="334" on="1"/>
        <pt x="1310" y="63" on="1"/>
        <pt x="1274" y="61" on="0"/>
        <pt x="1187" y="33" on="0"/>
        <pt x="1068" y="-1" on="0"/>
        <pt x="909" y="-28" on="0"/>
        <pt x="802" y="-28" on="1"/>
        <pt x="647" y="-28" on="0"/>
        <pt x="385" y="84" on="0"/>
        <pt x="194" y="286" on="0"/>
        <pt x="87" y="564" on="0"/>
      </contour>
    </TTGlyph>
    <TTGlyph name="Ccedilla" xMin="87" yMin="-529" xMax="1310" yMax="1567">
      <contour>
        <pt x="87" y="731" on="1"/>
        <pt x="87" y="858" on="0"/>
        <pt x="147" y="1081" on="0"/>
        <pt x="255" y="1267" on="0"/>
        <pt x="404" y="1413" on="0"/>
        <pt x="584" y="1514" on="0"/>
        <pt x="786" y="1567" on="0"/>
        <pt x="893" y="1567" on="1"/>
        <pt x="965" y="1567" on="0"/>
        <pt x="1089" y="1550" on="0"/>
        <pt x="1192" y="1527" on="0"/>
        <pt x="1276" y="1503" on="0"/>
        <pt x="1309" y="1496" on="1"/>
        <pt x="1294" y="1220" on="1"/>
        <pt x="1213" y="1220" on="1"/>
        <pt x="1175" y="1400" on="1"/>
        <pt x="1113" y="1439" on="0"/>
        <pt x="954" y="1478" on="0"/>
        <pt x="849" y="1478" on="1"/>
        <pt x="771" y="1478" on="0"/>
        <pt x="620" y="1437" on="0"/>
        <pt x="484" y="1356" on="0"/>
        <pt x="370" y="1237" on="0"/>
        <pt x="287" y="1081" on="0"/>
        <pt x="240" y="890" on="0"/>
        <pt x="240" y="778" on="1"/>
        <pt x="240" y="681" on="0"/>
        <pt x="275" y="497" on="0"/>
        <pt x="344" y="336" on="0"/>
        <pt x="447" y="202" on="0"/>
        <pt x="582" y="106" on="0"/>
        <pt x="749" y="54" on="0"/>
        <pt x="848" y="55" on="1"/>
        <pt x="970" y="56" on="0"/>
        <pt x="1153" y="119" on="0"/>
        <pt x="1198" y="166" on="1"/>
        <pt x="1242" y="335" on="1"/>
        <pt x="1257" y="335" on="0"/>
        <pt x="1295" y="334" on="0"/>
        <pt x="1310" y="334" on="1"/>
        <pt x="1310" y="63" on="1"/>
        <pt x="1276" y="61" on="0"/>
        <pt x="1194" y="35" on="0"/>
        <pt x="1084" y="3" on="0"/>
        <pt x="939" y="-24" on="0"/>
        <pt x="842" y="-27" on="1"/>
        <pt x="839" y="-50" on="0"/>
        <pt x="838" y="-104" on="0"/>
        <pt x="840" y="-127" on="1"/>
        <pt x="910" y="-124" on="0"/>
        <pt x="1013" y="-153" on="0"/>
        <pt x="1081" y="-206" on="0"/>
        <pt x="1114" y="-277" on="0"/>
        <pt x="1114" y="-316" on="1"/>
        <pt x="1114" y="-366" on="0"/>
        <pt x="1073" y="-443" on="0"/>
        <pt x="1004" y="-496" on="0"/>
        <pt x="912" y="-525" on="0"/>
        <pt x="861" y="-527" on="1"/>
        <pt x="822" y="-529" on="0"/>
        <pt x="765" y="-526" on="0"/>
        <pt x="720" y="-520" on="0"/>
        <pt x="683" y="-511" on="0"/>
        <pt x="664" y="-506" on="1"/>
        <pt x="664" y="-489" on="0"/>
        <pt x="665" y="-442" on="0"/>
        <pt x="665" y="-425" on="1"/>
        <pt x="679" y="-429" on="0"/>
        <pt x="715" y="-436" on="0"/>
        <pt x="752" y="-442" on="0"/>
        <pt x="786" y="-445" on="0"/>
        <pt x="797" y="-445" on="1"/>
        <pt x="825" y="-445" on="0"/>
        <pt x="885" y="-437" on="0"/>
        <pt x="935" y="-410" on="0"/>
        <pt x="968" y="-359" on="0"/>
        <pt x="968" y="-315" on="1"/>
        <pt x="968" y="-282" on="0"/>
        <pt x="942" y="-236" on="0"/>
        <pt x="894" y="-207" on="0"/>
        <pt x="828" y="-193" on="0"/>
        <pt x="789" y="-193" on="1"/>
        <pt x="782" y="-193" on="0"/>
        <pt x="764" y="-194" on="0"/>
        <pt x="746" y="-196" on="0"/>
        <pt x="731" y="-197" on="0"/>
        <pt x="727" y="-198" on="1"/>
        <pt x="727" y="-155" on="0"/>
        <pt x="738" y="-71" on="0"/>
        <pt x="750" y="-26" on="1"/>
        <pt x="605" y="-16" on="0"/>
        <pt x="362" y="103" on="0"/>
        <pt x="186" y="303" on="0"/>
        <pt x="87" y="572" on="0"/>
      </contour>
    </TTGlyph>
    <TTGlyph name="D" xMin="106" yMin="-13" xMax="1500" yMax="1567">
      <contour>
        <pt x="106" y="67" on="1"/>
        <pt x="286" y="92" on="1"/>
        <pt x="286" y="1461" on="1"/>
        <pt x="110" y="1477" on="1"/>
        <pt x="110" y="1553" on="1"/>
        <pt x="359" y="1553" on="1"/>
        <pt x="417" y="1553" on="0"/>
        <pt x="517" y="1557" on="0"/>
        <pt x="608" y="1562" on="0"/>
        <pt x="696" y="1566" on="0"/>
        <pt x="743" y="1566" on="1"/>
        <pt x="933" y="1567" on="0"/>
        <pt x="1217" y="1466" on="0"/>
        <pt x="1406" y="1273" on="0"/>
        <pt x="1500" y="994" on="0"/>
        <pt x="1500" y="817" on="1"/>
        <pt x="1500" y="620" on="0"/>
        <pt x="1381" y="311" on="0"/>
        <pt x="1166" y="98" on="0"/>
        <pt x="869" y="-13" on="0"/>
        <pt x="692" y="-10" on="1"/>
        <pt x="656" y="-10" on="0"/>
        <pt x="573" y="-6" on="0"/>
        <pt x="488" y="-2" on="0"/>
        <pt x="401" y="1" on="0"/>
        <pt x="361" y="1" on="1"/>
        <pt x="338" y="1" on="0"/>
        <pt x="270" y="1" on="0"/>
        <pt x="197" y="0" on="0"/>
        <pt x="129" y="0" on="0"/>
        <pt x="106" y="0" on="1"/>
      </contour>
      <contour>
        <pt x="434" y="100" on="1"/>
        <pt x="503" y="88" on="0"/>
        <pt x="636" y="74" on="0"/>
        <pt x="713" y="76" on="1"/>
        <pt x="841" y="78" on="0"/>
        <pt x="1070" y="162" on="0"/>
        <pt x="1243" y="333" on="0"/>
        <pt x="1345" y="595" on="0"/>
        <pt x="1345" y="776" on="1"/>
        <pt x="1345" y="954" on="0"/>
        <pt x="1258" y="1221" on="0"/>
        <pt x="1092" y="1398" on="0"/>
        <pt x="852" y="1483" on="0"/>
        <pt x="698" y="1479" on="1"/>
        <pt x="617" y="1477" on="0"/>
        <pt x="483" y="1468" on="0"/>
        <pt x="434" y="1461" on="1"/>
      </contour>
    </TTGlyph>
    <TTGlyph name="Delta" xMin="148" yMin="1" xMax="1608" yMax="1483">
      <contour>
        <pt x="835" y="1483" on="1"/>
        <pt x="867" y="1483" on="1"/>
        <pt x="1608" y="27" on="1"/>
        <pt x="1592" y="1" on="1"/>
        <pt x="162" y="1" on="1"/>
        <pt x="148" y="22" on="1"/>
      </contour>
      <contour>
        <pt x="1410" y="94" on="1"/>
        <pt x="825" y="1261" on="1"/>
        <pt x="280" y="94" on="1"/>
      </contour>
    </TTGlyph>
    <TTGlyph name="E" xMin="102" yMin="0" xMax="1252" yMax="1553">
      <contour>
        <pt x="102" y="67" on="1"/>
        <pt x="282" y="91" on="1"/>
        <pt x="282" y="1461" on="1"/>
        <pt x="106" y="1477" on="1"/>
        <pt x="106" y="1553" on="1"/>
        <pt x="1143" y="1553" on="1"/>
        <pt x="1172" y="1267" on="1"/>
        <pt x="1087" y="1267" on="1"/>
        <pt x="1041" y="1461" on="1"/>
        <pt x="429" y="1472" on="1"/>
        <pt x="429" y="865" on="1"/>
        <pt x="837" y="872" on="1"/>
        <pt x="863" y="1033" on="1"/>
        <pt x="942" y="1033" on="1"/>
        <pt x="942" y="609" on="1"/>
        <pt x="863" y="609" on="1"/>
        <pt x="837" y="776" on="1"/>
        <pt x="429" y="782" on="1"/>
        <pt x="429" y="84" on="1"/>
        <pt x="1087" y="100" on="1"/>
        <pt x="1178" y="333" on="1"/>
        <pt x="1252" y="315" on="1"/>
        <pt x="1207" y="0" on="1"/>
        <pt x="102" y="0" on="1"/>
      </contour>
    </TTGlyph>
    <TTGlyph name="Eacute" xMin="102" yMin="0" xMax="1252" yMax="1920">
      <contour>
        <pt x="673" y="1651" on="1"/>
        <pt x="969" y="1920" on="1"/>
        <pt x="1076" y="1811" on="1"/>
        <pt x="1041" y="1783" on="0"/>
        <pt x="953" y="1726" on="0"/>
        <pt x="859" y="1673" on="0"/>
        <pt x="761" y="1626" on="0"/>
        <pt x="716" y="1608" on="1"/>
      </contour>
      <contour>
        <pt x="102" y="67" on="1"/>
        <pt x="282" y="91" on="1"/>
        <pt x="282" y="1461" on="1"/>
        <pt x="106" y="1477" on="1"/>
        <pt x="106" y="1553" on="1"/>
        <pt x="1143" y="1553" on="1"/>
        <pt x="1172" y="1267" on="1"/>
        <pt x="1087" y="1267" on="1"/>
        <pt x="1041" y="1461" on="1"/>
        <pt x="429" y="1472" on="1"/>
        <pt x="429" y="865" on="1"/>
        <pt x="837" y="872" on="1"/>
        <pt x="863" y="1033" on="1"/>
        <pt x="942" y="1033" on="1"/>
        <pt x="942" y="609" on="1"/>
        <pt x="863" y="609" on="1"/>
        <pt x="837" y="776" on="1"/>
        <pt x="429" y="782" on="1"/>
        <pt x="429" y="84" on="1"/>
        <pt x="1087" y="100" on="1"/>
        <pt x="1178" y="333" on="1"/>
        <pt x="1252" y="315" on="1"/>
        <pt x="1207" y="0" on="1"/>
        <pt x="102" y="0" on="1"/>
      </contour>
    </TTGlyph>
    <TTGlyph name="Ecircumflex" xMin="102" yMin="0" xMax="1252" yMax="1920">
      <contour>
        <pt x="379" y="1654" on="1"/>
        <pt x="648" y="1920" on="1"/>
        <pt x="794" y="1920" on="1"/>
        <pt x="1064" y="1656" on="1"/>
        <pt x="994" y="1617" on="1"/>
        <pt x="721" y="1817" on="1"/>
        <pt x="442" y="1617" on="1"/>
      </contour>
      <contour>
        <pt x="102" y="67" on="1"/>
        <pt x="282" y="91" on="1"/>
        <pt x="282" y="1461" on="1"/>
        <pt x="106" y="1477" on="1"/>
        <pt x="106" y="1553" on="1"/>
        <pt x="1143" y="1553" on="1"/>
        <pt x="1172" y="1267" on="1"/>
        <pt x="1087" y="1267" on="1"/>
        <pt x="1041" y="1461" on="1"/>
        <pt x="429" y="1472" on="1"/>
        <pt x="429" y="865" on="1"/>
        <pt x="837" y="872" on="1"/>
        <pt x="863" y="1033" on="1"/>
        <pt x="942" y="1033" on="1"/>
        <pt x="942" y="609" on="1"/>
        <pt x="863" y="609" on="1"/>
        <pt x="837" y="776" on="1"/>
        <pt x="429" y="782" on="1"/>
        <pt x="429" y="84" on="1"/>
        <pt x="1087" y="100" on="1"/>
        <pt x="1178" y="333" on="1"/>
        <pt x="1252" y="315" on="1"/>
        <pt x="1207" y="0" on="1"/>
        <pt x="102" y="0" on="1"/>
      </contour>
    </TTGlyph>
    <TTGlyph name="Edieresis" xMin="102" yMin="0" xMax="1252" yMax="1897">
      <contour>
        <pt x="938" y="1689" on="1"/>
        <pt x="919" y="1689" on="0"/>
        <pt x="883" y="1702" on="0"/>
        <pt x="856" y="1727" on="0"/>
        <pt x="839" y="1762" on="0"/>
        <pt x="839" y="1784" on="1"/>
        <pt x="839" y="1808" on="0"/>
        <pt x="860" y="1849" on="0"/>
        <pt x="893" y="1879" on="0"/>
        <pt x="936" y="1897" on="0"/>
        <pt x="957" y="1897" on="1"/>
        <pt x="1008" y="1897" on="0"/>
        <pt x="1056" y="1840" on="0"/>
        <pt x="1056" y="1801" on="1"/>
        <pt x="1056" y="1776" on="0"/>
        <pt x="1036" y="1735" on="0"/>
        <pt x="1003" y="1705" on="0"/>
        <pt x="960" y="1689" on="0"/>
      </contour>
      <contour>
        <pt x="481" y="1690" on="1"/>
        <pt x="462" y="1690" on="0"/>
        <pt x="426" y="1703" on="0"/>
        <pt x="399" y="1728" on="0"/>
        <pt x="382" y="1763" on="0"/>
        <pt x="382" y="1785" on="1"/>
        <pt x="382" y="1809" on="0"/>
        <pt x="403" y="1850" on="0"/>
        <pt x="436" y="1880" on="0"/>
        <pt x="478" y="1897" on="0"/>
        <pt x="499" y="1897" on="1"/>
        <pt x="551" y="1897" on="0"/>
        <pt x="599" y="1840" on="0"/>
        <pt x="599" y="1802" on="1"/>
        <pt x="599" y="1777" on="0"/>
        <pt x="579" y="1736" on="0"/>
        <pt x="546" y="1706" on="0"/>
        <pt x="503" y="1690" on="0"/>
      </contour>
      <contour>
        <pt x="102" y="67" on="1"/>
        <pt x="282" y="91" on="1"/>
        <pt x="282" y="1461" on="1"/>
        <pt x="106" y="1477" on="1"/>
        <pt x="106" y="1553" on="1"/>
        <pt x="1143" y="1553" on="1"/>
        <pt x="1172" y="1267" on="1"/>
        <pt x="1087" y="1267" on="1"/>
        <pt x="1041" y="1461" on="1"/>
        <pt x="429" y="1472" on="1"/>
        <pt x="429" y="865" on="1"/>
        <pt x="837" y="872" on="1"/>
        <pt x="863" y="1033" on="1"/>
        <pt x="942" y="1033" on="1"/>
        <pt x="942" y="609" on="1"/>
        <pt x="863" y="609" on="1"/>
        <pt x="837" y="776" on="1"/>
        <pt x="429" y="782" on="1"/>
        <pt x="429" y="84" on="1"/>
        <pt x="1087" y="100" on="1"/>
        <pt x="1178" y="333" on="1"/>
        <pt x="1252" y="315" on="1"/>
        <pt x="1207" y="0" on="1"/>
        <pt x="102" y="0" on="1"/>
      </contour>
    </TTGlyph>
    <TTGlyph name="Egrave" xMin="102" yMin="0" xMax="1252" yMax="1920">
      <contour>
        <pt x="724" y="1608" on="1"/>
        <pt x="679" y="1626" on="0"/>
        <pt x="581" y="1673" on="0"/>
        <pt x="487" y="1726" on="0"/>
        <pt x="399" y="1783" on="0"/>
        <pt x="364" y="1811" on="1"/>
        <pt x="470" y="1920" on="1"/>
        <pt x="766" y="1651" on="1"/>
      </contour>
      <contour>
        <pt x="102" y="67" on="1"/>
        <pt x="282" y="91" on="1"/>
        <pt x="282" y="1461" on="1"/>
        <pt x="106" y="1477" on="1"/>
        <pt x="106" y="1553" on="1"/>
        <pt x="1143" y="1553" on="1"/>
        <pt x="1172" y="1267" on="1"/>
        <pt x="1087" y="1267" on="1"/>
        <pt x="1041" y="1461" on="1"/>
        <pt x="429" y="1472" on="1"/>
        <pt x="429" y="865" on="1"/>
        <pt x="837" y="872" on="1"/>
        <pt x="863" y="1033" on="1"/>
        <pt x="942" y="1033" on="1"/>
        <pt x="942" y="609" on="1"/>
        <pt x="863" y="609" on="1"/>
        <pt x="837" y="776" on="1"/>
        <pt x="429" y="782" on="1"/>
        <pt x="429" y="84" on="1"/>
        <pt x="1087" y="100" on="1"/>
        <pt x="1178" y="333" on="1"/>
        <pt x="1252" y="315" on="1"/>
        <pt x="1207" y="0" on="1"/>
        <pt x="102" y="0" on="1"/>
      </contour>
    </TTGlyph>
    <TTGlyph name="Eogonek" xMin="102" yMin="-529" xMax="1260" yMax="1553">
      <contour>
        <pt x="102" y="67" on="1"/>
        <pt x="282" y="91" on="1"/>
        <pt x="282" y="1461" on="1"/>
        <pt x="106" y="1477" on="1"/>
        <pt x="106" y="1553" on="1"/>
        <pt x="1143" y="1553" on="1"/>
        <pt x="1172" y="1267" on="1"/>
        <pt x="1087" y="1267" on="1"/>
        <pt x="1041" y="1461" on="1"/>
        <pt x="429" y="1472" on="1"/>
        <pt x="429" y="865" on="1"/>
        <pt x="837" y="872" on="1"/>
        <pt x="863" y="1033" on="1"/>
        <pt x="942" y="1033" on="1"/>
        <pt x="942" y="609" on="1"/>
        <pt x="863" y="609" on="1"/>
        <pt x="837" y="776" on="1"/>
        <pt x="429" y="782" on="1"/>
        <pt x="429" y="84" on="1"/>
        <pt x="1087" y="100" on="1"/>
        <pt x="1178" y="333" on="1"/>
        <pt x="1252" y="315" on="1"/>
        <pt x="1207" y="0" on="1"/>
        <pt x="1178" y="-8" on="0"/>
        <pt x="1107" y="-41" on="0"/>
        <pt x="1034" y="-87" on="0"/>
        <pt x="965" y="-143" on="0"/>
        <pt x="911" y="-203" on="0"/>
        <pt x="879" y="-267" on="0"/>
        <pt x="879" y="-297" on="1"/>
        <pt x="879" y="-367" on="0"/>
        <pt x="951" y="-425" on="0"/>
        <pt x="1023" y="-428" on="1"/>
        <pt x="1056" y="-430" on="0"/>
        <pt x="1121" y="-414" on="0"/>
        <pt x="1179" y="-390" on="0"/>
        <pt x="1226" y="-363" on="0"/>
        <pt x="1241" y="-354" on="1"/>
        <pt x="1260" y="-426" on="1"/>
        <pt x="1240" y="-441" on="0"/>
        <pt x="1183" y="-478" on="0"/>
        <pt x="1105" y="-510" on="0"/>
        <pt x="1005" y="-529" on="0"/>
        <pt x="944" y="-527" on="1"/>
        <pt x="893" y="-525" on="0"/>
        <pt x="818" y="-492" on="0"/>
        <pt x="769" y="-441" on="0"/>
        <pt x="744" y="-374" on="0"/>
        <pt x="744" y="-338" on="1"/>
        <pt x="744" y="-289" on="0"/>
        <pt x="798" y="-188" on="0"/>
        <pt x="887" y="-98" on="0"/>
        <pt x="999" y="-23" on="0"/>
        <pt x="1057" y="0" on="1"/>
        <pt x="102" y="0" on="1"/>
      </contour>
    </TTGlyph>
    <TTGlyph name="Eth" xMin="97" yMin="-13" xMax="1500" yMax="1567">
      <contour>
        <pt x="106" y="67" on="1"/>
        <pt x="286" y="92" on="1"/>
        <pt x="286" y="759" on="1"/>
        <pt x="97" y="759" on="1"/>
        <pt x="97" y="870" on="1"/>
        <pt x="286" y="870" on="1"/>
        <pt x="286" y="1461" on="1"/>
        <pt x="110" y="1477" on="1"/>
        <pt x="110" y="1553" on="1"/>
        <pt x="359" y="1553" on="1"/>
        <pt x="417" y="1553" on="0"/>
        <pt x="517" y="1557" on="0"/>
        <pt x="608" y="1562" on="0"/>
        <pt x="696" y="1566" on="0"/>
        <pt x="743" y="1566" on="1"/>
        <pt x="933" y="1567" on="0"/>
        <pt x="1217" y="1466" on="0"/>
        <pt x="1406" y="1273" on="0"/>
        <pt x="1500" y="994" on="0"/>
        <pt x="1500" y="817" on="1"/>
        <pt x="1500" y="620" on="0"/>
        <pt x="1381" y="311" on="0"/>
        <pt x="1166" y="98" on="0"/>
        <pt x="869" y="-13" on="0"/>
        <pt x="692" y="-10" on="1"/>
        <pt x="656" y="-10" on="0"/>
        <pt x="573" y="-6" on="0"/>
        <pt x="488" y="-2" on="0"/>
        <pt x="401" y="1" on="0"/>
        <pt x="361" y="1" on="1"/>
        <pt x="338" y="1" on="0"/>
        <pt x="270" y="1" on="0"/>
        <pt x="197" y="0" on="0"/>
        <pt x="129" y="0" on="0"/>
        <pt x="106" y="0" on="1"/>
      </contour>
      <contour>
        <pt x="434" y="100" on="1"/>
        <pt x="503" y="88" on="0"/>
        <pt x="636" y="74" on="0"/>
        <pt x="713" y="76" on="1"/>
        <pt x="841" y="78" on="0"/>
        <pt x="1070" y="162" on="0"/>
        <pt x="1243" y="333" on="0"/>
        <pt x="1345" y="595" on="0"/>
        <pt x="1345" y="776" on="1"/>
        <pt x="1345" y="954" on="0"/>
        <pt x="1258" y="1221" on="0"/>
        <pt x="1092" y="1398" on="0"/>
        <pt x="852" y="1483" on="0"/>
        <pt x="698" y="1479" on="1"/>
        <pt x="617" y="1477" on="0"/>
        <pt x="483" y="1468" on="0"/>
        <pt x="434" y="1461" on="1"/>
        <pt x="434" y="870" on="1"/>
        <pt x="707" y="870" on="1"/>
        <pt x="707" y="759" on="1"/>
        <pt x="434" y="759" on="1"/>
      </contour>
    </TTGlyph>
    <TTGlyph name="Euro" xMin="-39" yMin="-28" xMax="1270" yMax="1563">
      <contour>
        <pt x="-39" y="665" on="1"/>
        <pt x="157" y="665" on="1"/>
        <pt x="156" y="679" on="0"/>
        <pt x="156" y="709" on="0"/>
        <pt x="156" y="724" on="1"/>
        <pt x="156" y="829" on="0"/>
        <pt x="171" y="924" on="1"/>
        <pt x="-9" y="924" on="1"/>
        <pt x="-9" y="1021" on="1"/>
        <pt x="191" y="1021" on="1"/>
        <pt x="225" y="1151" on="0"/>
        <pt x="350" y="1353" on="0"/>
        <pt x="522" y="1491" on="0"/>
        <pt x="736" y="1563" on="0"/>
        <pt x="859" y="1563" on="1"/>
        <pt x="929" y="1563" on="0"/>
        <pt x="1051" y="1547" on="0"/>
        <pt x="1153" y="1525" on="0"/>
        <pt x="1236" y="1499" on="0"/>
        <pt x="1268" y="1490" on="1"/>
        <pt x="1254" y="1229" on="1"/>
        <pt x="1187" y="1229" on="1"/>
        <pt x="1149" y="1396" on="1"/>
        <pt x="1123" y="1415" on="0"/>
        <pt x="1050" y="1445" on="0"/>
        <pt x="963" y="1464" on="0"/>
        <pt x="865" y="1474" on="0"/>
        <pt x="814" y="1474" on="1"/>
        <pt x="725" y="1474" on="0"/>
        <pt x="569" y="1417" on="0"/>
        <pt x="445" y="1303" on="0"/>
        <pt x="355" y="1133" on="0"/>
        <pt x="331" y="1021" on="1"/>
        <pt x="949" y="1021" on="1"/>
        <pt x="949" y="924" on="1"/>
        <pt x="316" y="924" on="1"/>
        <pt x="312" y="888" on="0"/>
        <pt x="308" y="813" on="0"/>
        <pt x="308" y="772" on="1"/>
        <pt x="308" y="717" on="0"/>
        <pt x="311" y="665" on="1"/>
        <pt x="919" y="665" on="1"/>
        <pt x="919" y="569" on="1"/>
        <pt x="321" y="569" on="1"/>
        <pt x="337" y="456" on="0"/>
        <pt x="409" y="266" on="0"/>
        <pt x="529" y="129" on="0"/>
        <pt x="700" y="52" on="0"/>
        <pt x="814" y="54" on="1"/>
        <pt x="933" y="55" on="0"/>
        <pt x="1105" y="101" on="0"/>
        <pt x="1163" y="152" on="1"/>
        <pt x="1167" y="167" on="0"/>
        <pt x="1176" y="212" on="0"/>
        <pt x="1185" y="262" on="0"/>
        <pt x="1195" y="307" on="0"/>
        <pt x="1199" y="322" on="1"/>
        <pt x="1214" y="322" on="0"/>
        <pt x="1255" y="321" on="0"/>
        <pt x="1270" y="321" on="1"/>
        <pt x="1270" y="63" on="1"/>
        <pt x="1235" y="58" on="0"/>
        <pt x="1148" y="28" on="0"/>
        <pt x="1030" y="-4" on="0"/>
        <pt x="873" y="-28" on="0"/>
        <pt x="768" y="-28" on="1"/>
        <pt x="638" y="-28" on="0"/>
        <pt x="430" y="58" on="0"/>
        <pt x="277" y="214" on="0"/>
        <pt x="182" y="434" on="0"/>
        <pt x="165" y="569" on="1"/>
        <pt x="-39" y="569" on="1"/>
      </contour>
    </TTGlyph>
    <TTGlyph name="F" xMin="104" yMin="0" xMax="1200" yMax="1553">
      <contour>
        <pt x="104" y="67" on="1"/>
        <pt x="295" y="92" on="1"/>
        <pt x="295" y="1461" on="1"/>
        <pt x="119" y="1477" on="1"/>
        <pt x="119" y="1553" on="1"/>
        <pt x="1178" y="1553" on="1"/>
        <pt x="1200" y="1268" on="1"/>
        <pt x="1122" y="1266" on="1"/>
        <pt x="1076" y="1456" on="1"/>
        <pt x="443" y="1468" on="1"/>
        <pt x="443" y="834" on="1"/>
        <pt x="906" y="842" on="1"/>
        <pt x="939" y="998" on="1"/>
        <pt x="1015" y="998" on="1"/>
        <pt x="1015" y="578" on="1"/>
        <pt x="930" y="578" on="1"/>
        <pt x="906" y="744" on="1"/>
        <pt x="442" y="751" on="1"/>
        <pt x="443" y="91" on="1"/>
        <pt x="752" y="73" on="1"/>
        <pt x="752" y="0" on="1"/>
        <pt x="104" y="0" on="1"/>
      </contour>
    </TTGlyph>
    <TTGlyph name="G" xMin="86" yMin="-28" xMax="1476" yMax="1566">
      <contour>
        <pt x="86" y="731" on="1"/>
        <pt x="86" y="923" on="0"/>
        <pt x="214" y="1231" on="0"/>
        <pt x="433" y="1449" on="0"/>
        <pt x="725" y="1566" on="0"/>
        <pt x="889" y="1566" on="1"/>
        <pt x="979" y="1566" on="0"/>
        <pt x="1120" y="1550" on="0"/>
        <pt x="1228" y="1528" on="0"/>
        <pt x="1308" y="1505" on="0"/>
        <pt x="1337" y="1499" on="1"/>
        <pt x="1324" y="1226" on="1"/>
        <pt x="1241" y="1226" on="1"/>
        <pt x="1201" y="1403" on="1"/>
        <pt x="1186" y="1415" on="0"/>
        <pt x="1123" y="1442" on="0"/>
        <pt x="1033" y="1464" on="0"/>
        <pt x="915" y="1479" on="0"/>
        <pt x="844" y="1478" on="1"/>
        <pt x="727" y="1477" on="0"/>
        <pt x="509" y="1383" on="0"/>
        <pt x="340" y="1204" on="0"/>
        <pt x="239" y="944" on="0"/>
        <pt x="239" y="777" on="1"/>
        <pt x="239" y="686" on="0"/>
        <pt x="269" y="508" on="0"/>
        <pt x="331" y="348" on="0"/>
        <pt x="426" y="212" on="0"/>
        <pt x="556" y="112" on="0"/>
        <pt x="721" y="56" on="0"/>
        <pt x="822" y="56" on="1"/>
        <pt x="870" y="56" on="0"/>
        <pt x="976" y="67" on="0"/>
        <pt x="1077" y="91" on="0"/>
        <pt x="1163" y="128" on="0"/>
        <pt x="1192" y="153" on="1"/>
        <pt x="1192" y="618" on="1"/>
        <pt x="915" y="633" on="1"/>
        <pt x="915" y="708" on="1"/>
        <pt x="1476" y="708" on="1"/>
        <pt x="1476" y="633" on="1"/>
        <pt x="1340" y="616" on="1"/>
        <pt x="1340" y="75" on="1"/>
        <pt x="1307" y="72" on="0"/>
        <pt x="1192" y="40" on="0"/>
        <pt x="1045" y="2" on="0"/>
        <pt x="873" y="-28" on="0"/>
        <pt x="782" y="-28" on="1"/>
        <pt x="627" y="-28" on="0"/>
        <pt x="371" y="86" on="0"/>
        <pt x="187" y="288" on="0"/>
        <pt x="86" y="567" on="0"/>
      </contour>
    </TTGlyph>
    <TTGlyph name="H" xMin="106" yMin="0" xMax="1585" yMax="1553">
      <contour>
        <pt x="106" y="67" on="1"/>
        <pt x="278" y="92" on="1"/>
        <pt x="278" y="1462" on="1"/>
        <pt x="113" y="1477" on="1"/>
        <pt x="113" y="1553" on="1"/>
        <pt x="588" y="1553" on="1"/>
        <pt x="588" y="1477" on="1"/>
        <pt x="426" y="1462" on="1"/>
        <pt x="426" y="794" on="1"/>
        <pt x="1263" y="794" on="1"/>
        <pt x="1263" y="1462" on="1"/>
        <pt x="1099" y="1477" on="1"/>
        <pt x="1099" y="1553" on="1"/>
        <pt x="1569" y="1553" on="1"/>
        <pt x="1569" y="1477" on="1"/>
        <pt x="1411" y="1462" on="1"/>
        <pt x="1411" y="92" on="1"/>
        <pt x="1585" y="67" on="1"/>
        <pt x="1585" y="0" on="1"/>
        <pt x="1093" y="0" on="1"/>
        <pt x="1093" y="67" on="1"/>
        <pt x="1263" y="91" on="1"/>
        <pt x="1263" y="703" on="1"/>
        <pt x="426" y="703" on="1"/>
        <pt x="426" y="91" on="1"/>
        <pt x="596" y="67" on="1"/>
        <pt x="596" y="0" on="1"/>
        <pt x="106" y="0" on="1"/>
      </contour>
    </TTGlyph>
    <TTGlyph name="I" xMin="136" yMin="0" xMax="629" yMax="1553">
      <contour>
        <pt x="136" y="67" on="1"/>
        <pt x="305" y="91" on="1"/>
        <pt x="305" y="1462" on="1"/>
        <pt x="139" y="1477" on="1"/>
        <pt x="139" y="1553" on="1"/>
        <pt x="621" y="1553" on="1"/>
        <pt x="621" y="1477" on="1"/>
        <pt x="453" y="1462" on="1"/>
        <pt x="453" y="91" on="1"/>
        <pt x="629" y="67" on="1"/>
        <pt x="629" y="0" on="1"/>
        <pt x="136" y="0" on="1"/>
      </contour>
    </TTGlyph>
    <TTGlyph name="IJ" xMin="136" yMin="-387" xMax="1385" yMax="1553">
      <contour>
        <pt x="677" y="-328" on="1"/>
        <pt x="800" y="-295" on="0"/>
        <pt x="975" y="-157" on="0"/>
        <pt x="1013" y="-60" on="1"/>
        <pt x="1028" y="-16" on="0"/>
        <pt x="1045" y="82" on="0"/>
        <pt x="1054" y="194" on="0"/>
        <pt x="1056" y="324" on="0"/>
        <pt x="1056" y="401" on="1"/>
        <pt x="1056" y="1462" on="1"/>
        <pt x="880" y="1477" on="1"/>
        <pt x="880" y="1553" on="1"/>
        <pt x="1385" y="1553" on="1"/>
        <pt x="1385" y="1477" on="1"/>
        <pt x="1204" y="1462" on="1"/>
        <pt x="1204" y="475" on="1"/>
        <pt x="1204" y="351" on="0"/>
        <pt x="1204" y="129" on="0"/>
        <pt x="1186" y="35" on="1"/>
        <pt x="1168" y="-55" on="0"/>
        <pt x="1075" y="-201" on="0"/>
        <pt x="948" y="-309" on="0"/>
        <pt x="797" y="-376" on="0"/>
        <pt x="721" y="-387" on="1"/>
      </contour>
      <contour>
        <pt x="136" y="67" on="1"/>
        <pt x="305" y="91" on="1"/>
        <pt x="305" y="1462" on="1"/>
        <pt x="139" y="1477" on="1"/>
        <pt x="139" y="1553" on="1"/>
        <pt x="621" y="1553" on="1"/>
        <pt x="621" y="1477" on="1"/>
        <pt x="453" y="1462" on="1"/>
        <pt x="453" y="91" on="1"/>
        <pt x="629" y="67" on="1"/>
        <pt x="629" y="0" on="1"/>
        <pt x="136" y="0" on="1"/>
      </contour>
    </TTGlyph>
    <TTGlyph name="Iacute" xMin="136" yMin="0" xMax="737" yMax="1920">
      <contour>
        <pt x="334" y="1651" on="1"/>
        <pt x="630" y="1920" on="1"/>
        <pt x="737" y="1811" on="1"/>
        <pt x="701" y="1783" on="0"/>
        <pt x="614" y="1726" on="0"/>
        <pt x="519" y="1673" on="0"/>
        <pt x="422" y="1626" on="0"/>
        <pt x="377" y="1608" on="1"/>
      </contour>
      <contour>
        <pt x="136" y="67" on="1"/>
        <pt x="305" y="91" on="1"/>
        <pt x="305" y="1462" on="1"/>
        <pt x="139" y="1477" on="1"/>
        <pt x="139" y="1553" on="1"/>
        <pt x="621" y="1553" on="1"/>
        <pt x="621" y="1477" on="1"/>
        <pt x="453" y="1462" on="1"/>
        <pt x="453" y="91" on="1"/>
        <pt x="629" y="67" on="1"/>
        <pt x="629" y="0" on="1"/>
        <pt x="136" y="0" on="1"/>
      </contour>
    </TTGlyph>
    <TTGlyph name="Icircumflex" xMin="40" yMin="0" xMax="725" yMax="1920">
      <contour>
        <pt x="40" y="1654" on="1"/>
        <pt x="309" y="1920" on="1"/>
        <pt x="455" y="1920" on="1"/>
        <pt x="725" y="1656" on="1"/>
        <pt x="655" y="1617" on="1"/>
        <pt x="382" y="1817" on="1"/>
        <pt x="103" y="1617" on="1"/>
      </contour>
      <contour>
        <pt x="136" y="67" on="1"/>
        <pt x="305" y="91" on="1"/>
        <pt x="305" y="1462" on="1"/>
        <pt x="139" y="1477" on="1"/>
        <pt x="139" y="1553" on="1"/>
        <pt x="621" y="1553" on="1"/>
        <pt x="621" y="1477" on="1"/>
        <pt x="453" y="1462" on="1"/>
        <pt x="453" y="91" on="1"/>
        <pt x="629" y="67" on="1"/>
        <pt x="629" y="0" on="1"/>
        <pt x="136" y="0" on="1"/>
      </contour>
    </TTGlyph>
    <TTGlyph name="Idieresis" xMin="43" yMin="0" xMax="717" yMax="1897">
      <contour>
        <pt x="599" y="1689" on="1"/>
        <pt x="580" y="1689" on="0"/>
        <pt x="544" y="1702" on="0"/>
        <pt x="517" y="1727" on="0"/>
        <pt x="500" y="1762" on="0"/>
        <pt x="500" y="1784" on="1"/>
        <pt x="500" y="1808" on="0"/>
        <pt x="521" y="1849" on="0"/>
        <pt x="554" y="1879" on="0"/>
        <pt x="597" y="1897" on="0"/>
        <pt x="618" y="1897" on="1"/>
        <pt x="669" y="1897" on="0"/>
        <pt x="717" y="1840" on="0"/>
        <pt x="717" y="1801" on="1"/>
        <pt x="717" y="1776" on="0"/>
        <pt x="697" y="1735" on="0"/>
        <pt x="664" y="1705" on="0"/>
        <pt x="621" y="1689" on="0"/>
      </contour>
      <contour>
        <pt x="142" y="1690" on="1"/>
        <pt x="123" y="1690" on="0"/>
        <pt x="87" y="1703" on="0"/>
        <pt x="60" y="1728" on="0"/>
        <pt x="43" y="1763" on="0"/>
        <pt x="43" y="1785" on="1"/>
        <pt x="43" y="1809" on="0"/>
        <pt x="64" y="1850" on="0"/>
        <pt x="97" y="1880" on="0"/>
        <pt x="139" y="1897" on="0"/>
        <pt x="160" y="1897" on="1"/>
        <pt x="212" y="1897" on="0"/>
        <pt x="260" y="1840" on="0"/>
        <pt x="260" y="1802" on="1"/>
        <pt x="260" y="1777" on="0"/>
        <pt x="240" y="1736" on="0"/>
        <pt x="207" y="1706" on="0"/>
        <pt x="164" y="1690" on="0"/>
      </contour>
      <contour>
        <pt x="136" y="67" on="1"/>
        <pt x="305" y="91" on="1"/>
        <pt x="305" y="1462" on="1"/>
        <pt x="139" y="1477" on="1"/>
        <pt x="139" y="1553" on="1"/>
        <pt x="621" y="1553" on="1"/>
        <pt x="621" y="1477" on="1"/>
        <pt x="453" y="1462" on="1"/>
        <pt x="453" y="91" on="1"/>
        <pt x="629" y="67" on="1"/>
        <pt x="629" y="0" on="1"/>
        <pt x="136" y="0" on="1"/>
      </contour>
    </TTGlyph>
    <TTGlyph name="Igrave" xMin="25" yMin="0" xMax="629" yMax="1920">
      <contour>
        <pt x="385" y="1608" on="1"/>
        <pt x="340" y="1626" on="0"/>
        <pt x="242" y="1673" on="0"/>
        <pt x="148" y="1726" on="0"/>
        <pt x="60" y="1783" on="0"/>
        <pt x="25" y="1811" on="1"/>
        <pt x="131" y="1920" on="1"/>
        <pt x="427" y="1651" on="1"/>
      </contour>
      <contour>
        <pt x="136" y="67" on="1"/>
        <pt x="305" y="91" on="1"/>
        <pt x="305" y="1462" on="1"/>
        <pt x="139" y="1477" on="1"/>
        <pt x="139" y="1553" on="1"/>
        <pt x="621" y="1553" on="1"/>
        <pt x="621" y="1477" on="1"/>
        <pt x="453" y="1462" on="1"/>
        <pt x="453" y="91" on="1"/>
        <pt x="629" y="67" on="1"/>
        <pt x="629" y="0" on="1"/>
        <pt x="136" y="0" on="1"/>
      </contour>
    </TTGlyph>
    <TTGlyph name="Itilde" xMin="-6" yMin="0" xMax="769" yMax="1920">
      <contour>
        <pt x="-6" y="1760" on="1"/>
        <pt x="13" y="1793" on="0"/>
        <pt x="71" y="1851" on="0"/>
        <pt x="140" y="1895" on="0"/>
        <pt x="218" y="1920" on="0"/>
        <pt x="258" y="1920" on="1"/>
        <pt x="306" y="1920" on="0"/>
        <pt x="377" y="1875" on="0"/>
        <pt x="438" y="1820" on="0"/>
        <pt x="498" y="1775" on="0"/>
        <pt x="536" y="1775" on="1"/>
        <pt x="567" y="1775" on="0"/>
        <pt x="623" y="1791" on="0"/>
        <pt x="671" y="1818" on="0"/>
        <pt x="711" y="1854" on="0"/>
        <pt x="728" y="1873" on="1"/>
        <pt x="769" y="1813" on="1"/>
        <pt x="750" y="1781" on="0"/>
        <pt x="694" y="1723" on="0"/>
        <pt x="625" y="1679" on="0"/>
        <pt x="547" y="1653" on="0"/>
        <pt x="507" y="1653" on="1"/>
        <pt x="474" y="1653" on="0"/>
        <pt x="422" y="1675" on="0"/>
        <pt x="377" y="1707" on="0"/>
        <pt x="337" y="1746" on="0"/>
        <pt x="297" y="1778" on="0"/>
        <pt x="253" y="1800" on="0"/>
        <pt x="228" y="1800" on="1"/>
        <pt x="198" y="1800" on="0"/>
        <pt x="143" y="1783" on="0"/>
        <pt x="94" y="1756" on="0"/>
        <pt x="52" y="1720" on="0"/>
        <pt x="36" y="1701" on="1"/>
      </contour>
      <contour>
        <pt x="136" y="67" on="1"/>
        <pt x="305" y="91" on="1"/>
        <pt x="305" y="1462" on="1"/>
        <pt x="139" y="1477" on="1"/>
        <pt x="139" y="1553" on="1"/>
        <pt x="621" y="1553" on="1"/>
        <pt x="621" y="1477" on="1"/>
        <pt x="453" y="1462" on="1"/>
        <pt x="453" y="91" on="1"/>
        <pt x="629" y="67" on="1"/>
        <pt x="629" y="0" on="1"/>
        <pt x="136" y="0" on="1"/>
      </contour>
    </TTGlyph>
    <TTGlyph name="J" xMin="-86" yMin="-387" xMax="621" yMax="1553">
      <contour>
        <pt x="250" y="-60" on="1"/>
        <pt x="265" y="-16" on="0"/>
        <pt x="282" y="82" on="0"/>
        <pt x="290" y="194" on="0"/>
        <pt x="292" y="324" on="0"/>
        <pt x="292" y="401" on="1"/>
        <pt x="292" y="1462" on="1"/>
        <pt x="117" y="1477" on="1"/>
        <pt x="117" y="1553" on="1"/>
        <pt x="621" y="1553" on="1"/>
        <pt x="621" y="1477" on="1"/>
        <pt x="441" y="1462" on="1"/>
        <pt x="441" y="475" on="1"/>
        <pt x="441" y="351" on="0"/>
        <pt x="440" y="129" on="0"/>
        <pt x="423" y="35" on="1"/>
        <pt x="405" y="-55" on="0"/>
        <pt x="312" y="-201" on="0"/>
        <pt x="185" y="-309" on="0"/>
        <pt x="33" y="-376" on="0"/>
        <pt x="-43" y="-387" on="1"/>
        <pt x="-86" y="-328" on="1"/>
        <pt x="37" y="-295" on="0"/>
        <pt x="212" y="-157" on="0"/>
      </contour>
    </TTGlyph>
    <TTGlyph name="Jcircumflex" xMin="-86" yMin="-387" xMax="711" yMax="1920">
      <contour>
        <pt x="26" y="1654" on="1"/>
        <pt x="295" y="1920" on="1"/>
        <pt x="441" y="1920" on="1"/>
        <pt x="711" y="1656" on="1"/>
        <pt x="640" y="1617" on="1"/>
        <pt x="368" y="1817" on="1"/>
        <pt x="89" y="1617" on="1"/>
      </contour>
      <contour>
        <pt x="250" y="-60" on="1"/>
        <pt x="265" y="-16" on="0"/>
        <pt x="282" y="82" on="0"/>
        <pt x="290" y="194" on="0"/>
        <pt x="292" y="324" on="0"/>
        <pt x="292" y="401" on="1"/>
        <pt x="292" y="1462" on="1"/>
        <pt x="117" y="1477" on="1"/>
        <pt x="117" y="1553" on="1"/>
        <pt x="621" y="1553" on="1"/>
        <pt x="621" y="1477" on="1"/>
        <pt x="441" y="1462" on="1"/>
        <pt x="441" y="475" on="1"/>
        <pt x="441" y="351" on="0"/>
        <pt x="440" y="129" on="0"/>
        <pt x="423" y="35" on="1"/>
        <pt x="405" y="-55" on="0"/>
        <pt x="312" y="-201" on="0"/>
        <pt x="185" y="-309" on="0"/>
        <pt x="33" y="-376" on="0"/>
        <pt x="-43" y="-387" on="1"/>
        <pt x="-86" y="-328" on="1"/>
        <pt x="37" y="-295" on="0"/>
        <pt x="212" y="-157" on="0"/>
      </contour>
    </TTGlyph>
    <TTGlyph name="K" xMin="106" yMin="0" xMax="1425" yMax="1553">
      <contour>
        <pt x="106" y="67" on="1"/>
        <pt x="268" y="91" on="1"/>
        <pt x="268" y="1463" on="1"/>
        <pt x="109" y="1477" on="1"/>
        <pt x="109" y="1553" on="1"/>
        <pt x="578" y="1553" on="1"/>
        <pt x="578" y="1477" on="1"/>
        <pt x="417" y="1463" on="1"/>
        <pt x="417" y="716" on="1"/>
        <pt x="1056" y="1461" on="1"/>
        <pt x="896" y="1477" on="1"/>
        <pt x="896" y="1494" on="0"/>
        <pt x="895" y="1536" on="0"/>
        <pt x="895" y="1553" on="1"/>
        <pt x="1356" y="1553" on="1"/>
        <pt x="1356" y="1477" on="1"/>
        <pt x="1197" y="1461" on="1"/>
        <pt x="695" y="894" on="1"/>
        <pt x="718" y="870" on="0"/>
        <pt x="787" y="775" on="0"/>
        <pt x="869" y="653" on="0"/>
        <pt x="960" y="514" on="0"/>
        <pt x="1050" y="377" on="0"/>
        <pt x="1136" y="250" on="0"/>
        <pt x="1208" y="153" on="0"/>
        <pt x="1260" y="96" on="0"/>
        <pt x="1273" y="96" on="1"/>
        <pt x="1425" y="67" on="1"/>
        <pt x="1425" y="0" on="1"/>
        <pt x="1164" y="0" on="1"/>
        <pt x="1151" y="0" on="0"/>
        <pt x="1100" y="57" on="0"/>
        <pt x="1034" y="153" on="0"/>
        <pt x="955" y="279" on="0"/>
        <pt x="871" y="416" on="0"/>
        <pt x="785" y="555" on="0"/>
        <pt x="705" y="676" on="0"/>
        <pt x="635" y="771" on="0"/>
        <pt x="609" y="796" on="1"/>
        <pt x="417" y="580" on="1"/>
        <pt x="417" y="90" on="1"/>
        <pt x="594" y="67" on="1"/>
        <pt x="594" y="0" on="1"/>
        <pt x="106" y="0" on="1"/>
      </contour>
    </TTGlyph>
    <TTGlyph name="Kcommaaccent" xMin="106" yMin="-640" xMax="1425" yMax="1553">
      <contour>
        <pt x="106" y="67" on="1"/>
        <pt x="268" y="91" on="1"/>
        <pt x="268" y="1463" on="1"/>
        <pt x="109" y="1477" on="1"/>
        <pt x="109" y="1553" on="1"/>
        <pt x="578" y="1553" on="1"/>
        <pt x="578" y="1477" on="1"/>
        <pt x="417" y="1463" on="1"/>
        <pt x="417" y="716" on="1"/>
        <pt x="1056" y="1461" on="1"/>
        <pt x="896" y="1477" on="1"/>
        <pt x="896" y="1494" on="0"/>
        <pt x="895" y="1536" on="0"/>
        <pt x="895" y="1553" on="1"/>
        <pt x="1356" y="1553" on="1"/>
        <pt x="1356" y="1477" on="1"/>
        <pt x="1197" y="1461" on="1"/>
        <pt x="695" y="894" on="1"/>
        <pt x="718" y="870" on="0"/>
        <pt x="787" y="775" on="0"/>
        <pt x="869" y="653" on="0"/>
        <pt x="960" y="514" on="0"/>
        <pt x="1050" y="377" on="0"/>
        <pt x="1136" y="250" on="0"/>
        <pt x="1208" y="153" on="0"/>
        <pt x="1260" y="96" on="0"/>
        <pt x="1273" y="96" on="1"/>
        <pt x="1425" y="67" on="1"/>
        <pt x="1425" y="0" on="1"/>
        <pt x="1164" y="0" on="1"/>
        <pt x="1151" y="0" on="0"/>
        <pt x="1100" y="57" on="0"/>
        <pt x="1034" y="153" on="0"/>
        <pt x="955" y="279" on="0"/>
        <pt x="871" y="416" on="0"/>
        <pt x="785" y="555" on="0"/>
        <pt x="705" y="676" on="0"/>
        <pt x="635" y="771" on="0"/>
        <pt x="609" y="796" on="1"/>
        <pt x="417" y="580" on="1"/>
        <pt x="417" y="90" on="1"/>
        <pt x="594" y="67" on="1"/>
        <pt x="594" y="0" on="1"/>
        <pt x="106" y="0" on="1"/>
      </contour>
      <contour>
        <pt x="761" y="-74" on="1"/>
        <pt x="810" y="-83" on="0"/>
        <pt x="884" y="-130" on="0"/>
        <pt x="935" y="-193" on="0"/>
        <pt x="961" y="-266" on="0"/>
        <pt x="961" y="-302" on="1"/>
        <pt x="962" y="-365" on="0"/>
        <pt x="917" y="-476" on="0"/>
        <pt x="848" y="-565" on="0"/>
        <pt x="766" y="-627" on="0"/>
        <pt x="729" y="-640" on="1"/>
        <pt x="687" y="-603" on="1"/>
        <pt x="687" y="-576" on="1"/>
        <pt x="717" y="-563" on="0"/>
        <pt x="762" y="-513" on="0"/>
        <pt x="793" y="-447" on="0"/>
        <pt x="808" y="-371" on="0"/>
        <pt x="808" y="-333" on="1"/>
        <pt x="808" y="-300" on="0"/>
        <pt x="784" y="-248" on="0"/>
        <pt x="748" y="-212" on="0"/>
        <pt x="706" y="-192" on="0"/>
        <pt x="688" y="-192" on="1"/>
        <pt x="688" y="-149" on="1"/>
      </contour>
    </TTGlyph>
    <TTGlyph name="L" xMin="106" yMin="0" xMax="1214" yMax="1553">
      <contour>
        <pt x="106" y="67" on="1"/>
        <pt x="286" y="92" on="1"/>
        <pt x="286" y="1454" on="1"/>
        <pt x="110" y="1469" on="1"/>
        <pt x="110" y="1553" on="1"/>
        <pt x="629" y="1553" on="1"/>
        <pt x="629" y="1469" on="1"/>
        <pt x="434" y="1454" on="1"/>
        <pt x="433" y="86" on="1"/>
        <pt x="1038" y="105" on="1"/>
        <pt x="1146" y="350" on="1"/>
        <pt x="1214" y="318" on="1"/>
        <pt x="1149" y="0" on="1"/>
        <pt x="106" y="0" on="1"/>
      </contour>
    </TTGlyph>
    <TTGlyph name="Ldotaccent" xMin="106" yMin="0" xMax="1298" yMax="1553">
      <contour>
        <pt x="106" y="67" on="1"/>
        <pt x="286" y="92" on="1"/>
        <pt x="286" y="1454" on="1"/>
        <pt x="110" y="1469" on="1"/>
        <pt x="110" y="1553" on="1"/>
        <pt x="629" y="1553" on="1"/>
        <pt x="629" y="1469" on="1"/>
        <pt x="434" y="1454" on="1"/>
        <pt x="433" y="86" on="1"/>
        <pt x="1038" y="105" on="1"/>
        <pt x="1146" y="350" on="1"/>
        <pt x="1214" y="318" on="1"/>
        <pt x="1149" y="0" on="1"/>
        <pt x="106" y="0" on="1"/>
      </contour>
      <contour>
        <pt x="1180" y="757" on="1"/>
        <pt x="1148" y="762" on="0"/>
        <pt x="1106" y="815" on="0"/>
        <pt x="1112" y="854" on="1"/>
        <pt x="1115" y="875" on="0"/>
        <pt x="1139" y="909" on="0"/>
        <pt x="1171" y="931" on="0"/>
        <pt x="1208" y="942" on="0"/>
        <pt x="1226" y="940" on="1"/>
        <pt x="1248" y="937" on="0"/>
        <pt x="1278" y="919" on="0"/>
        <pt x="1295" y="892" on="0"/>
        <pt x="1298" y="859" on="0"/>
        <pt x="1295" y="842" on="1"/>
        <pt x="1292" y="820" on="0"/>
        <pt x="1270" y="786" on="0"/>
        <pt x="1238" y="764" on="0"/>
        <pt x="1199" y="754" on="0"/>
      </contour>
    </TTGlyph>
    <TTGlyph name="Lslash" xMin="88" yMin="0" xMax="1214" yMax="1553">
      <contour>
        <pt x="106" y="67" on="1"/>
        <pt x="286" y="92" on="1"/>
        <pt x="286" y="588" on="1"/>
        <pt x="88" y="509" on="1"/>
        <pt x="88" y="564" on="1"/>
        <pt x="88" y="584" on="0"/>
        <pt x="89" y="619" on="0"/>
        <pt x="89" y="620" on="1"/>
        <pt x="89" y="620" on="0"/>
        <pt x="118" y="632" on="0"/>
        <pt x="170" y="654" on="0"/>
        <pt x="243" y="684" on="0"/>
        <pt x="286" y="702" on="1"/>
        <pt x="286" y="1454" on="1"/>
        <pt x="110" y="1469" on="1"/>
        <pt x="110" y="1553" on="1"/>
        <pt x="629" y="1553" on="1"/>
        <pt x="629" y="1469" on="1"/>
        <pt x="434" y="1454" on="1"/>
        <pt x="433" y="763" on="1"/>
        <pt x="479" y="782" on="0"/>
        <pt x="575" y="821" on="0"/>
        <pt x="669" y="860" on="0"/>
        <pt x="757" y="896" on="0"/>
        <pt x="796" y="912" on="1"/>
        <pt x="888" y="950" on="0"/>
        <pt x="973" y="985" on="1"/>
        <pt x="973" y="864" on="1"/>
        <pt x="433" y="647" on="1"/>
        <pt x="433" y="86" on="1"/>
        <pt x="1038" y="105" on="1"/>
        <pt x="1146" y="350" on="1"/>
        <pt x="1214" y="318" on="1"/>
        <pt x="1149" y="0" on="1"/>
        <pt x="106" y="0" on="1"/>
      </contour>
    </TTGlyph>
    <TTGlyph name="M" xMin="77" yMin="-15" xMax="1943" yMax="1553">
      <contour>
        <pt x="77" y="67" on="1"/>
        <pt x="263" y="91" on="1"/>
        <pt x="365" y="1455" on="1"/>
        <pt x="164" y="1470" on="1"/>
        <pt x="164" y="1553" on="1"/>
        <pt x="575" y="1553" on="1"/>
        <pt x="976" y="374" on="1"/>
        <pt x="1018" y="235" on="1"/>
        <pt x="1062" y="377" on="1"/>
        <pt x="1442" y="1553" on="1"/>
        <pt x="1828" y="1553" on="1"/>
        <pt x="1828" y="1470" on="1"/>
        <pt x="1631" y="1455" on="1"/>
        <pt x="1749" y="91" on="1"/>
        <pt x="1943" y="67" on="1"/>
        <pt x="1943" y="0" on="1"/>
        <pt x="1418" y="0" on="1"/>
        <pt x="1418" y="67" on="1"/>
        <pt x="1609" y="91" on="1"/>
        <pt x="1521" y="1118" on="1"/>
        <pt x="1507" y="1458" on="1"/>
        <pt x="1455" y="1267" on="1"/>
        <pt x="1025" y="-15" on="1"/>
        <pt x="972" y="-15" on="1"/>
        <pt x="557" y="1159" on="1"/>
        <pt x="546" y="1189" on="0"/>
        <pt x="520" y="1265" on="0"/>
        <pt x="493" y="1345" on="0"/>
        <pt x="466" y="1425" on="0"/>
        <pt x="454" y="1459" on="1"/>
        <pt x="439" y="1064" on="1"/>
        <pt x="382" y="92" on="1"/>
        <pt x="595" y="67" on="1"/>
        <pt x="595" y="0" on="1"/>
        <pt x="77" y="0" on="1"/>
      </contour>
    </TTGlyph>
    <TTGlyph name="N" xMin="104" yMin="0" xMax="1585" yMax="1553">
      <contour>
        <pt x="104" y="67" on="1"/>
        <pt x="280" y="90" on="1"/>
        <pt x="280" y="1454" on="1"/>
        <pt x="110" y="1469" on="1"/>
        <pt x="110" y="1553" on="1"/>
        <pt x="436" y="1553" on="1"/>
        <pt x="1155" y="399" on="1"/>
        <pt x="1303" y="128" on="1"/>
        <pt x="1303" y="1455" on="1"/>
        <pt x="1129" y="1470" on="1"/>
        <pt x="1129" y="1553" on="1"/>
        <pt x="1585" y="1553" on="1"/>
        <pt x="1585" y="1470" on="1"/>
        <pt x="1412" y="1455" on="1"/>
        <pt x="1412" y="0" on="1"/>
        <pt x="1250" y="0" on="1"/>
        <pt x="539" y="1112" on="1"/>
        <pt x="391" y="1392" on="1"/>
        <pt x="391" y="1315" on="0"/>
        <pt x="391" y="1104" on="0"/>
        <pt x="391" y="865" on="0"/>
        <pt x="390" y="612" on="0"/>
        <pt x="390" y="374" on="0"/>
        <pt x="390" y="166" on="0"/>
        <pt x="390" y="91" on="1"/>
        <pt x="596" y="67" on="1"/>
        <pt x="596" y="0" on="1"/>
        <pt x="104" y="0" on="1"/>
      </contour>
    </TTGlyph>
    <TTGlyph name="Nacute" xMin="104" yMin="0" xMax="1585" yMax="1920">
      <contour>
        <pt x="792" y="1651" on="1"/>
        <pt x="1087" y="1920" on="1"/>
        <pt x="1194" y="1811" on="1"/>
        <pt x="1159" y="1783" on="0"/>
        <pt x="1071" y="1726" on="0"/>
        <pt x="977" y="1673" on="0"/>
        <pt x="879" y="1626" on="0"/>
        <pt x="834" y="1608" on="1"/>
      </contour>
      <contour>
        <pt x="104" y="67" on="1"/>
        <pt x="280" y="90" on="1"/>
        <pt x="280" y="1454" on="1"/>
        <pt x="110" y="1469" on="1"/>
        <pt x="110" y="1553" on="1"/>
        <pt x="436" y="1553" on="1"/>
        <pt x="1155" y="399" on="1"/>
        <pt x="1303" y="128" on="1"/>
        <pt x="1303" y="1455" on="1"/>
        <pt x="1129" y="1470" on="1"/>
        <pt x="1129" y="1553" on="1"/>
        <pt x="1585" y="1553" on="1"/>
        <pt x="1585" y="1470" on="1"/>
        <pt x="1412" y="1455" on="1"/>
        <pt x="1412" y="0" on="1"/>
        <pt x="1250" y="0" on="1"/>
        <pt x="539" y="1112" on="1"/>
        <pt x="391" y="1392" on="1"/>
        <pt x="391" y="1315" on="0"/>
        <pt x="391" y="1104" on="0"/>
        <pt x="391" y="865" on="0"/>
        <pt x="390" y="612" on="0"/>
        <pt x="390" y="374" on="0"/>
        <pt x="390" y="166" on="0"/>
        <pt x="390" y="91" on="1"/>
        <pt x="596" y="67" on="1"/>
        <pt x="596" y="0" on="1"/>
        <pt x="104" y="0" on="1"/>
      </contour>
    </TTGlyph>
    <TTGlyph name="Ntilde" xMin="104" yMin="0" xMax="1585" yMax="1920">
      <contour>
        <pt x="443" y="1760" on="1"/>
        <pt x="463" y="1793" on="0"/>
        <pt x="521" y="1851" on="0"/>
        <pt x="590" y="1895" on="0"/>
        <pt x="668" y="1920" on="0"/>
        <pt x="708" y="1920" on="1"/>
        <pt x="756" y="1920" on="0"/>
        <pt x="827" y="1875" on="0"/>
        <pt x="888" y="1820" on="0"/>
        <pt x="948" y="1775" on="0"/>
        <pt x="986" y="1775" on="1"/>
        <pt x="1017" y="1775" on="0"/>
        <pt x="1073" y="1791" on="0"/>
        <pt x="1121" y="1818" on="0"/>
        <pt x="1161" y="1854" on="0"/>
        <pt x="1178" y="1873" on="1"/>
        <pt x="1219" y="1813" on="1"/>
        <pt x="1200" y="1781" on="0"/>
        <pt x="1144" y="1723" on="0"/>
        <pt x="1075" y="1679" on="0"/>
        <pt x="996" y="1653" on="0"/>
        <pt x="956" y="1653" on="1"/>
        <pt x="924" y="1653" on="0"/>
        <pt x="872" y="1675" on="0"/>
        <pt x="827" y="1707" on="0"/>
        <pt x="787" y="1746" on="0"/>
        <pt x="747" y="1778" on="0"/>
        <pt x="703" y="1800" on="0"/>
        <pt x="678" y="1800" on="1"/>
        <pt x="648" y="1800" on="0"/>
        <pt x="593" y="1783" on="0"/>
        <pt x="544" y="1756" on="0"/>
        <pt x="502" y="1720" on="0"/>
        <pt x="486" y="1701" on="1"/>
      </contour>
      <contour>
        <pt x="104" y="67" on="1"/>
        <pt x="280" y="90" on="1"/>
        <pt x="280" y="1454" on="1"/>
        <pt x="110" y="1469" on="1"/>
        <pt x="110" y="1553" on="1"/>
        <pt x="436" y="1553" on="1"/>
        <pt x="1155" y="399" on="1"/>
        <pt x="1303" y="128" on="1"/>
        <pt x="1303" y="1455" on="1"/>
        <pt x="1129" y="1470" on="1"/>
        <pt x="1129" y="1553" on="1"/>
        <pt x="1585" y="1553" on="1"/>
        <pt x="1585" y="1470" on="1"/>
        <pt x="1412" y="1455" on="1"/>
        <pt x="1412" y="0" on="1"/>
        <pt x="1250" y="0" on="1"/>
        <pt x="539" y="1112" on="1"/>
        <pt x="391" y="1392" on="1"/>
        <pt x="391" y="1315" on="0"/>
        <pt x="391" y="1104" on="0"/>
        <pt x="391" y="865" on="0"/>
        <pt x="390" y="612" on="0"/>
        <pt x="390" y="374" on="0"/>
        <pt x="390" y="166" on="0"/>
        <pt x="390" y="91" on="1"/>
        <pt x="596" y="67" on="1"/>
        <pt x="596" y="0" on="1"/>
        <pt x="104" y="0" on="1"/>
      </contour>
    </TTGlyph>
    <TTGlyph name="O" xMin="87" yMin="-31" xMax="1467" yMax="1569">
      <contour>
        <pt x="90" y="755" on="1"/>
        <pt x="94" y="951" on="0"/>
        <pt x="210" y="1251" on="0"/>
        <pt x="404" y="1456" on="0"/>
        <pt x="659" y="1563" on="0"/>
        <pt x="801" y="1566" on="1"/>
        <pt x="954" y="1569" on="0"/>
        <pt x="1202" y="1456" on="0"/>
        <pt x="1376" y="1250" on="0"/>
        <pt x="1467" y="962" on="0"/>
        <pt x="1464" y="791" on="1"/>
        <pt x="1460" y="596" on="0"/>
        <pt x="1349" y="294" on="0"/>
        <pt x="1162" y="85" on="0"/>
        <pt x="914" y="-25" on="0"/>
        <pt x="774" y="-28" on="1"/>
        <pt x="618" y="-31" on="0"/>
        <pt x="363" y="82" on="0"/>
        <pt x="183" y="290" on="0"/>
        <pt x="87" y="581" on="0"/>
      </contour>
      <contour>
        <pt x="788" y="55" on="1"/>
        <pt x="903" y="55" on="0"/>
        <pt x="1093" y="157" on="0"/>
        <pt x="1228" y="348" on="0"/>
        <pt x="1303" y="620" on="0"/>
        <pt x="1303" y="790" on="1"/>
        <pt x="1303" y="934" on="0"/>
        <pt x="1235" y="1186" on="0"/>
        <pt x="1103" y="1374" on="0"/>
        <pt x="910" y="1483" on="0"/>
        <pt x="786" y="1483" on="1"/>
        <pt x="670" y="1483" on="0"/>
        <pt x="474" y="1386" on="0"/>
        <pt x="332" y="1200" on="0"/>
        <pt x="252" y="930" on="0"/>
        <pt x="252" y="756" on="1"/>
        <pt x="252" y="608" on="0"/>
        <pt x="326" y="352" on="0"/>
        <pt x="465" y="163" on="0"/>
        <pt x="663" y="55" on="0"/>
      </contour>
    </TTGlyph>
    <TTGlyph name="OE" xMin="87" yMin="-30" xMax="2012" yMax="1567">
      <contour>
        <pt x="90" y="759" on="1"/>
        <pt x="94" y="949" on="0"/>
        <pt x="208" y="1247" on="0"/>
        <pt x="401" y="1453" on="0"/>
        <pt x="656" y="1563" on="0"/>
        <pt x="801" y="1566" on="1"/>
        <pt x="846" y="1567" on="0"/>
        <pt x="926" y="1560" on="0"/>
        <pt x="964" y="1553" on="1"/>
        <pt x="1910" y="1553" on="1"/>
        <pt x="1939" y="1267" on="1"/>
        <pt x="1854" y="1267" on="1"/>
        <pt x="1808" y="1460" on="1"/>
        <pt x="1215" y="1472" on="1"/>
        <pt x="1215" y="867" on="1"/>
        <pt x="1620" y="874" on="1"/>
        <pt x="1647" y="1034" on="1"/>
        <pt x="1726" y="1034" on="1"/>
        <pt x="1726" y="610" on="1"/>
        <pt x="1647" y="610" on="1"/>
        <pt x="1620" y="778" on="1"/>
        <pt x="1215" y="784" on="1"/>
        <pt x="1215" y="84" on="1"/>
        <pt x="1847" y="100" on="1"/>
        <pt x="1938" y="333" on="1"/>
        <pt x="2012" y="315" on="1"/>
        <pt x="1967" y="0" on="1"/>
        <pt x="972" y="0" on="1"/>
        <pt x="926" y="-13" on="0"/>
        <pt x="826" y="-27" on="0"/>
        <pt x="771" y="-28" on="1"/>
        <pt x="616" y="-30" on="0"/>
        <pt x="362" y="84" on="0"/>
        <pt x="182" y="293" on="0"/>
        <pt x="87" y="585" on="0"/>
      </contour>
      <contour>
        <pt x="788" y="54" on="1"/>
        <pt x="876" y="54" on="0"/>
        <pt x="1015" y="112" on="0"/>
        <pt x="1068" y="168" on="1"/>
        <pt x="1068" y="1360" on="1"/>
        <pt x="1014" y="1417" on="0"/>
        <pt x="874" y="1483" on="0"/>
        <pt x="786" y="1483" on="1"/>
        <pt x="667" y="1483" on="0"/>
        <pt x="471" y="1384" on="0"/>
        <pt x="330" y="1197" on="0"/>
        <pt x="252" y="929" on="0"/>
        <pt x="252" y="760" on="1"/>
        <pt x="252" y="611" on="0"/>
        <pt x="326" y="354" on="0"/>
        <pt x="465" y="163" on="0"/>
        <pt x="663" y="54" on="0"/>
      </contour>
    </TTGlyph>
    <TTGlyph name="Oacute" xMin="87" yMin="-31" xMax="1467" yMax="1920">
      <contour>
        <pt x="745" y="1651" on="1"/>
        <pt x="1041" y="1920" on="1"/>
        <pt x="1147" y="1811" on="1"/>
        <pt x="1112" y="1783" on="0"/>
        <pt x="1024" y="1726" on="0"/>
        <pt x="930" y="1673" on="0"/>
        <pt x="832" y="1626" on="0"/>
        <pt x="787" y="1608" on="1"/>
      </contour>
      <contour>
        <pt x="90" y="755" on="1"/>
        <pt x="94" y="951" on="0"/>
        <pt x="210" y="1251" on="0"/>
        <pt x="404" y="1456" on="0"/>
        <pt x="659" y="1563" on="0"/>
        <pt x="801" y="1566" on="1"/>
        <pt x="954" y="1569" on="0"/>
        <pt x="1202" y="1456" on="0"/>
        <pt x="1376" y="1250" on="0"/>
        <pt x="1467" y="962" on="0"/>
        <pt x="1464" y="791" on="1"/>
        <pt x="1460" y="596" on="0"/>
        <pt x="1349" y="294" on="0"/>
        <pt x="1162" y="85" on="0"/>
        <pt x="914" y="-25" on="0"/>
        <pt x="774" y="-28" on="1"/>
        <pt x="618" y="-31" on="0"/>
        <pt x="363" y="82" on="0"/>
        <pt x="183" y="290" on="0"/>
        <pt x="87" y="581" on="0"/>
      </contour>
      <contour>
        <pt x="788" y="55" on="1"/>
        <pt x="903" y="55" on="0"/>
        <pt x="1093" y="157" on="0"/>
        <pt x="1228" y="348" on="0"/>
        <pt x="1303" y="620" on="0"/>
        <pt x="1303" y="790" on="1"/>
        <pt x="1303" y="934" on="0"/>
        <pt x="1235" y="1186" on="0"/>
        <pt x="1103" y="1374" on="0"/>
        <pt x="910" y="1483" on="0"/>
        <pt x="786" y="1483" on="1"/>
        <pt x="670" y="1483" on="0"/>
        <pt x="474" y="1386" on="0"/>
        <pt x="332" y="1200" on="0"/>
        <pt x="252" y="930" on="0"/>
        <pt x="252" y="756" on="1"/>
        <pt x="252" y="608" on="0"/>
        <pt x="326" y="352" on="0"/>
        <pt x="465" y="163" on="0"/>
        <pt x="663" y="55" on="0"/>
      </contour>
    </TTGlyph>
    <TTGlyph name="Ocircumflex" xMin="87" yMin="-31" xMax="1467" yMax="1920">
      <contour>
        <pt x="451" y="1654" on="1"/>
        <pt x="720" y="1920" on="1"/>
        <pt x="866" y="1920" on="1"/>
        <pt x="1135" y="1656" on="1"/>
        <pt x="1065" y="1617" on="1"/>
        <pt x="792" y="1817" on="1"/>
        <pt x="513" y="1617" on="1"/>
      </contour>
      <contour>
        <pt x="90" y="755" on="1"/>
        <pt x="94" y="951" on="0"/>
        <pt x="210" y="1251" on="0"/>
        <pt x="404" y="1456" on="0"/>
        <pt x="659" y="1563" on="0"/>
        <pt x="801" y="1566" on="1"/>
        <pt x="954" y="1569" on="0"/>
        <pt x="1202" y="1456" on="0"/>
        <pt x="1376" y="1250" on="0"/>
        <pt x="1467" y="962" on="0"/>
        <pt x="1464" y="791" on="1"/>
        <pt x="1460" y="596" on="0"/>
        <pt x="1349" y="294" on="0"/>
        <pt x="1162" y="85" on="0"/>
        <pt x="914" y="-25" on="0"/>
        <pt x="774" y="-28" on="1"/>
        <pt x="618" y="-31" on="0"/>
        <pt x="363" y="82" on="0"/>
        <pt x="183" y="290" on="0"/>
        <pt x="87" y="581" on="0"/>
      </contour>
      <contour>
        <pt x="788" y="55" on="1"/>
        <pt x="903" y="55" on="0"/>
        <pt x="1093" y="157" on="0"/>
        <pt x="1228" y="348" on="0"/>
        <pt x="1303" y="620" on="0"/>
        <pt x="1303" y="790" on="1"/>
        <pt x="1303" y="934" on="0"/>
        <pt x="1235" y="1186" on="0"/>
        <pt x="1103" y="1374" on="0"/>
        <pt x="910" y="1483" on="0"/>
        <pt x="786" y="1483" on="1"/>
        <pt x="670" y="1483" on="0"/>
        <pt x="474" y="1386" on="0"/>
        <pt x="332" y="1200" on="0"/>
        <pt x="252" y="930" on="0"/>
        <pt x="252" y="756" on="1"/>
        <pt x="252" y="608" on="0"/>
        <pt x="326" y="352" on="0"/>
        <pt x="465" y="163" on="0"/>
        <pt x="663" y="55" on="0"/>
      </contour>
    </TTGlyph>
    <TTGlyph name="Odieresis" xMin="87" yMin="-31" xMax="1467" yMax="1897">
      <contour>
        <pt x="1010" y="1689" on="1"/>
        <pt x="991" y="1689" on="0"/>
        <pt x="955" y="1702" on="0"/>
        <pt x="928" y="1727" on="0"/>
        <pt x="911" y="1762" on="0"/>
        <pt x="911" y="1784" on="1"/>
        <pt x="911" y="1808" on="0"/>
        <pt x="932" y="1849" on="0"/>
        <pt x="965" y="1879" on="0"/>
        <pt x="1007" y="1897" on="0"/>
        <pt x="1028" y="1897" on="1"/>
        <pt x="1079" y="1897" on="0"/>
        <pt x="1127" y="1840" on="0"/>
        <pt x="1127" y="1801" on="1"/>
        <pt x="1127" y="1776" on="0"/>
        <pt x="1107" y="1735" on="0"/>
        <pt x="1074" y="1705" on="0"/>
        <pt x="1032" y="1689" on="0"/>
      </contour>
      <contour>
        <pt x="552" y="1690" on="1"/>
        <pt x="533" y="1690" on="0"/>
        <pt x="497" y="1703" on="0"/>
        <pt x="470" y="1728" on="0"/>
        <pt x="453" y="1763" on="0"/>
        <pt x="453" y="1785" on="1"/>
        <pt x="453" y="1809" on="0"/>
        <pt x="474" y="1850" on="0"/>
        <pt x="508" y="1880" on="0"/>
        <pt x="550" y="1897" on="0"/>
        <pt x="571" y="1897" on="1"/>
        <pt x="622" y="1897" on="0"/>
        <pt x="670" y="1840" on="0"/>
        <pt x="670" y="1802" on="1"/>
        <pt x="670" y="1777" on="0"/>
        <pt x="650" y="1736" on="0"/>
        <pt x="617" y="1706" on="0"/>
        <pt x="574" y="1690" on="0"/>
      </contour>
      <contour>
        <pt x="90" y="755" on="1"/>
        <pt x="94" y="951" on="0"/>
        <pt x="210" y="1251" on="0"/>
        <pt x="404" y="1456" on="0"/>
        <pt x="659" y="1563" on="0"/>
        <pt x="801" y="1566" on="1"/>
        <pt x="954" y="1569" on="0"/>
        <pt x="1202" y="1456" on="0"/>
        <pt x="1376" y="1250" on="0"/>
        <pt x="1467" y="962" on="0"/>
        <pt x="1464" y="791" on="1"/>
        <pt x="1460" y="596" on="0"/>
        <pt x="1349" y="294" on="0"/>
        <pt x="1162" y="85" on="0"/>
        <pt x="914" y="-25" on="0"/>
        <pt x="774" y="-28" on="1"/>
        <pt x="618" y="-31" on="0"/>
        <pt x="363" y="82" on="0"/>
        <pt x="183" y="290" on="0"/>
        <pt x="87" y="581" on="0"/>
      </contour>
      <contour>
        <pt x="788" y="55" on="1"/>
        <pt x="903" y="55" on="0"/>
        <pt x="1093" y="157" on="0"/>
        <pt x="1228" y="348" on="0"/>
        <pt x="1303" y="620" on="0"/>
        <pt x="1303" y="790" on="1"/>
        <pt x="1303" y="934" on="0"/>
        <pt x="1235" y="1186" on="0"/>
        <pt x="1103" y="1374" on="0"/>
        <pt x="910" y="1483" on="0"/>
        <pt x="786" y="1483" on="1"/>
        <pt x="670" y="1483" on="0"/>
        <pt x="474" y="1386" on="0"/>
        <pt x="332" y="1200" on="0"/>
        <pt x="252" y="930" on="0"/>
        <pt x="252" y="756" on="1"/>
        <pt x="252" y="608" on="0"/>
        <pt x="326" y="352" on="0"/>
        <pt x="465" y="163" on="0"/>
        <pt x="663" y="55" on="0"/>
      </contour>
    </TTGlyph>
    <TTGlyph name="Ograve" xMin="87" yMin="-31" xMax="1467" yMax="1920">
      <contour>
        <pt x="795" y="1608" on="1"/>
        <pt x="750" y="1626" on="0"/>
        <pt x="652" y="1673" on="0"/>
        <pt x="558" y="1726" on="0"/>
        <pt x="471" y="1783" on="0"/>
        <pt x="435" y="1811" on="1"/>
        <pt x="542" y="1920" on="1"/>
        <pt x="838" y="1651" on="1"/>
      </contour>
      <contour>
        <pt x="90" y="755" on="1"/>
        <pt x="94" y="951" on="0"/>
        <pt x="210" y="1251" on="0"/>
        <pt x="404" y="1456" on="0"/>
        <pt x="659" y="1563" on="0"/>
        <pt x="801" y="1566" on="1"/>
        <pt x="954" y="1569" on="0"/>
        <pt x="1202" y="1456" on="0"/>
        <pt x="1376" y="1250" on="0"/>
        <pt x="1467" y="962" on="0"/>
        <pt x="1464" y="791" on="1"/>
        <pt x="1460" y="596" on="0"/>
        <pt x="1349" y="294" on="0"/>
        <pt x="1162" y="85" on="0"/>
        <pt x="914" y="-25" on="0"/>
        <pt x="774" y="-28" on="1"/>
        <pt x="618" y="-31" on="0"/>
        <pt x="363" y="82" on="0"/>
        <pt x="183" y="290" on="0"/>
        <pt x="87" y="581" on="0"/>
      </contour>
      <contour>
        <pt x="788" y="55" on="1"/>
        <pt x="903" y="55" on="0"/>
        <pt x="1093" y="157" on="0"/>
        <pt x="1228" y="348" on="0"/>
        <pt x="1303" y="620" on="0"/>
        <pt x="1303" y="790" on="1"/>
        <pt x="1303" y="934" on="0"/>
        <pt x="1235" y="1186" on="0"/>
        <pt x="1103" y="1374" on="0"/>
        <pt x="910" y="1483" on="0"/>
        <pt x="786" y="1483" on="1"/>
        <pt x="670" y="1483" on="0"/>
        <pt x="474" y="1386" on="0"/>
        <pt x="332" y="1200" on="0"/>
        <pt x="252" y="930" on="0"/>
        <pt x="252" y="756" on="1"/>
        <pt x="252" y="608" on="0"/>
        <pt x="326" y="352" on="0"/>
        <pt x="465" y="163" on="0"/>
        <pt x="663" y="55" on="0"/>
      </contour>
    </TTGlyph>
    <TTGlyph name="Omega" xMin="142" yMin="0" xMax="1753" yMax="1550">
      <contour>
        <pt x="142" y="335" on="1"/>
        <pt x="218" y="342" on="1"/>
        <pt x="249" y="136" on="1"/>
        <pt x="615" y="136" on="1"/>
        <pt x="546" y="181" on="0"/>
        <pt x="409" y="322" on="0"/>
        <pt x="301" y="499" on="0"/>
        <pt x="236" y="705" on="0"/>
        <pt x="238" y="815" on="1"/>
        <pt x="241" y="941" on="0"/>
        <pt x="297" y="1148" on="0"/>
        <pt x="395" y="1311" on="0"/>
        <pt x="527" y="1432" on="0"/>
        <pt x="683" y="1511" on="0"/>
        <pt x="856" y="1550" on="0"/>
        <pt x="946" y="1550" on="1"/>
        <pt x="1093" y="1550" on="0"/>
        <pt x="1339" y="1456" on="0"/>
        <pt x="1516" y="1277" on="0"/>
        <pt x="1612" y="1016" on="0"/>
        <pt x="1609" y="848" on="1"/>
        <pt x="1607" y="748" on="0"/>
        <pt x="1540" y="539" on="0"/>
        <pt x="1435" y="349" on="0"/>
        <pt x="1304" y="188" on="0"/>
        <pt x="1238" y="136" on="1"/>
        <pt x="1609" y="136" on="1"/>
        <pt x="1677" y="363" on="1"/>
        <pt x="1753" y="356" on="1"/>
        <pt x="1710" y="0" on="1"/>
        <pt x="1071" y="0" on="1"/>
        <pt x="1071" y="121" on="1"/>
        <pt x="1149" y="166" on="0"/>
        <pt x="1285" y="313" on="0"/>
        <pt x="1387" y="502" on="0"/>
        <pt x="1446" y="725" on="0"/>
        <pt x="1446" y="847" on="1"/>
        <pt x="1446" y="1005" on="0"/>
        <pt x="1367" y="1244" on="0"/>
        <pt x="1228" y="1403" on="0"/>
        <pt x="1040" y="1483" on="0"/>
        <pt x="932" y="1483" on="1"/>
        <pt x="818" y="1483" on="0"/>
        <pt x="623" y="1398" on="0"/>
        <pt x="480" y="1231" on="0"/>
        <pt x="399" y="981" on="0"/>
        <pt x="399" y="816" on="1"/>
        <pt x="399" y="695" on="0"/>
        <pt x="471" y="479" on="0"/>
        <pt x="584" y="300" on="0"/>
        <pt x="723" y="165" on="0"/>
        <pt x="791" y="126" on="1"/>
        <pt x="791" y="0" on="1"/>
        <pt x="142" y="0" on="1"/>
      </contour>
    </TTGlyph>
    <TTGlyph name="Oslash" xMin="87" yMin="-192" xMax="1466" yMax="1690">
      <contour>
        <pt x="505" y="19" on="1"/>
        <pt x="407" y="59" on="0"/>
        <pt x="251" y="199" on="0"/>
        <pt x="143" y="388" on="0"/>
        <pt x="87" y="622" on="0"/>
        <pt x="90" y="755" on="1"/>
        <pt x="94" y="951" on="0"/>
        <pt x="210" y="1251" on="0"/>
        <pt x="404" y="1456" on="0"/>
        <pt x="659" y="1563" on="0"/>
        <pt x="801" y="1566" on="1"/>
        <pt x="925" y="1567" on="0"/>
        <pt x="1031" y="1531" on="1"/>
        <pt x="1086" y="1690" on="1"/>
        <pt x="1154" y="1663" on="1"/>
        <pt x="1099" y="1502" on="1"/>
        <pt x="1186" y="1459" on="0"/>
        <pt x="1324" y="1320" on="0"/>
        <pt x="1418" y="1137" on="0"/>
        <pt x="1466" y="916" on="0"/>
        <pt x="1464" y="791" on="1"/>
        <pt x="1460" y="596" on="0"/>
        <pt x="1349" y="294" on="0"/>
        <pt x="1162" y="85" on="0"/>
        <pt x="914" y="-25" on="0"/>
        <pt x="774" y="-28" on="1"/>
        <pt x="670" y="-29" on="0"/>
        <pt x="577" y="-5" on="1"/>
        <pt x="514" y="-192" on="1"/>
        <pt x="442" y="-166" on="1"/>
      </contour>
      <contour>
        <pt x="995" y="1434" on="1"/>
        <pt x="949" y="1457" on="0"/>
        <pt x="845" y="1483" on="0"/>
        <pt x="786" y="1483" on="1"/>
        <pt x="670" y="1483" on="0"/>
        <pt x="474" y="1386" on="0"/>
        <pt x="332" y="1200" on="0"/>
        <pt x="252" y="930" on="0"/>
        <pt x="252" y="756" on="1"/>
        <pt x="252" y="649" on="0"/>
        <pt x="291" y="454" on="0"/>
        <pt x="366" y="290" on="0"/>
        <pt x="475" y="162" on="0"/>
        <pt x="544" y="120" on="1"/>
      </contour>
      <contour>
        <pt x="613" y="87" on="1"/>
        <pt x="694" y="55" on="0"/>
        <pt x="788" y="55" on="1"/>
        <pt x="903" y="55" on="0"/>
        <pt x="1093" y="157" on="0"/>
        <pt x="1228" y="348" on="0"/>
        <pt x="1303" y="620" on="0"/>
        <pt x="1303" y="790" on="1"/>
        <pt x="1303" y="887" on="0"/>
        <pt x="1271" y="1067" on="0"/>
        <pt x="1210" y="1223" on="0"/>
        <pt x="1119" y="1350" on="0"/>
        <pt x="1059" y="1394" on="1"/>
      </contour>
    </TTGlyph>
    <TTGlyph name="Otilde" xMin="87" yMin="-31" xMax="1467" yMax="1920">
      <contour>
        <pt x="397" y="1760" on="1"/>
        <pt x="416" y="1793" on="0"/>
        <pt x="474" y="1851" on="0"/>
        <pt x="543" y="1895" on="0"/>
        <pt x="621" y="1920" on="0"/>
        <pt x="662" y="1920" on="1"/>
        <pt x="710" y="1920" on="0"/>
        <pt x="780" y="1875" on="0"/>
        <pt x="841" y="1820" on="0"/>
        <pt x="901" y="1775" on="0"/>
        <pt x="939" y="1775" on="1"/>
        <pt x="970" y="1775" on="0"/>
        <pt x="1026" y="1791" on="0"/>
        <pt x="1074" y="1818" on="0"/>
        <pt x="1114" y="1854" on="0"/>
        <pt x="1131" y="1873" on="1"/>
        <pt x="1173" y="1813" on="1"/>
        <pt x="1154" y="1781" on="0"/>
        <pt x="1097" y="1723" on="0"/>
        <pt x="1028" y="1679" on="0"/>
        <pt x="950" y="1653" on="0"/>
        <pt x="910" y="1653" on="1"/>
        <pt x="862" y="1653" on="0"/>
        <pt x="791" y="1699" on="0"/>
        <pt x="730" y="1754" on="0"/>
        <pt x="670" y="1800" on="0"/>
        <pt x="631" y="1800" on="1"/>
        <pt x="601" y="1800" on="0"/>
        <pt x="546" y="1783" on="0"/>
        <pt x="498" y="1756" on="0"/>
        <pt x="456" y="1720" on="0"/>
        <pt x="439" y="1701" on="1"/>
      </contour>
      <contour>
        <pt x="90" y="755" on="1"/>
        <pt x="94" y="951" on="0"/>
        <pt x="210" y="1251" on="0"/>
        <pt x="404" y="1456" on="0"/>
        <pt x="659" y="1563" on="0"/>
        <pt x="801" y="1566" on="1"/>
        <pt x="954" y="1569" on="0"/>
        <pt x="1202" y="1456" on="0"/>
        <pt x="1376" y="1250" on="0"/>
        <pt x="1467" y="962" on="0"/>
        <pt x="1464" y="791" on="1"/>
        <pt x="1460" y="596" on="0"/>
        <pt x="1349" y="294" on="0"/>
        <pt x="1162" y="85" on="0"/>
        <pt x="914" y="-25" on="0"/>
        <pt x="774" y="-28" on="1"/>
        <pt x="618" y="-31" on="0"/>
        <pt x="363" y="82" on="0"/>
        <pt x="183" y="290" on="0"/>
        <pt x="87" y="581" on="0"/>
      </contour>
      <contour>
        <pt x="788" y="55" on="1"/>
        <pt x="903" y="55" on="0"/>
        <pt x="1093" y="157" on="0"/>
        <pt x="1228" y="348" on="0"/>
        <pt x="1303" y="620" on="0"/>
        <pt x="1303" y="790" on="1"/>
        <pt x="1303" y="934" on="0"/>
        <pt x="1235" y="1186" on="0"/>
        <pt x="1103" y="1374" on="0"/>
        <pt x="910" y="1483" on="0"/>
        <pt x="786" y="1483" on="1"/>
        <pt x="670" y="1483" on="0"/>
        <pt x="474" y="1386" on="0"/>
        <pt x="332" y="1200" on="0"/>
        <pt x="252" y="930" on="0"/>
        <pt x="252" y="756" on="1"/>
        <pt x="252" y="608" on="0"/>
        <pt x="326" y="352" on="0"/>
        <pt x="465" y="163" on="0"/>
        <pt x="663" y="55" on="0"/>
      </contour>
    </TTGlyph>
    <TTGlyph name="P" xMin="86" yMin="0" xMax="1236" yMax="1566">
      <contour>
        <pt x="86" y="67" on="1"/>
        <pt x="287" y="92" on="1"/>
        <pt x="287" y="1454" on="1"/>
        <pt x="108" y="1469" on="1"/>
        <pt x="108" y="1553" on="1"/>
        <pt x="358" y="1553" on="1"/>
        <pt x="388" y="1553" on="0"/>
        <pt x="469" y="1557" on="0"/>
        <pt x="563" y="1562" on="0"/>
        <pt x="664" y="1566" on="0"/>
        <pt x="714" y="1566" on="1"/>
        <pt x="829" y="1566" on="0"/>
        <pt x="1021" y="1521" on="0"/>
        <pt x="1159" y="1414" on="0"/>
        <pt x="1236" y="1235" on="0"/>
        <pt x="1236" y="1100" on="1"/>
        <pt x="1236" y="978" on="0"/>
        <pt x="1138" y="788" on="0"/>
        <pt x="976" y="659" on="0"/>
        <pt x="767" y="593" on="0"/>
        <pt x="657" y="594" on="1"/>
        <pt x="574" y="594" on="0"/>
        <pt x="467" y="595" on="0"/>
        <pt x="435" y="592" on="1"/>
        <pt x="435" y="92" on="1"/>
        <pt x="711" y="67" on="1"/>
        <pt x="711" y="0" on="1"/>
        <pt x="86" y="0" on="1"/>
      </contour>
      <contour>
        <pt x="435" y="685" on="1"/>
        <pt x="491" y="676" on="0"/>
        <pt x="607" y="673" on="0"/>
        <pt x="654" y="674" on="1"/>
        <pt x="744" y="675" on="0"/>
        <pt x="902" y="719" on="0"/>
        <pt x="1019" y="819" on="0"/>
        <pt x="1087" y="981" on="0"/>
        <pt x="1087" y="1098" on="1"/>
        <pt x="1087" y="1294" on="0"/>
        <pt x="873" y="1487" on="0"/>
        <pt x="653" y="1480" on="1"/>
        <pt x="629" y="1479" on="0"/>
        <pt x="571" y="1477" on="0"/>
        <pt x="513" y="1473" on="0"/>
        <pt x="457" y="1467" on="0"/>
        <pt x="435" y="1461" on="1"/>
      </contour>
    </TTGlyph>
    <TTGlyph name="Q" xMin="84" yMin="-354" xMax="1463" yMax="1569">
      <contour>
        <pt x="87" y="755" on="1"/>
        <pt x="90" y="886" on="0"/>
        <pt x="144" y="1106" on="0"/>
        <pt x="239" y="1285" on="0"/>
        <pt x="369" y="1422" on="0"/>
        <pt x="525" y="1515" on="0"/>
        <pt x="703" y="1564" on="0"/>
        <pt x="798" y="1566" on="1"/>
        <pt x="951" y="1569" on="0"/>
        <pt x="1199" y="1456" on="0"/>
        <pt x="1372" y="1250" on="0"/>
        <pt x="1463" y="962" on="0"/>
        <pt x="1460" y="791" on="1"/>
        <pt x="1457" y="618" on="0"/>
        <pt x="1367" y="341" on="0"/>
        <pt x="1216" y="137" on="0"/>
        <pt x="1012" y="10" on="0"/>
        <pt x="894" y="-14" on="1"/>
        <pt x="913" y="-72" on="0"/>
        <pt x="991" y="-153" on="0"/>
        <pt x="1092" y="-204" on="0"/>
        <pt x="1208" y="-228" on="0"/>
        <pt x="1266" y="-228" on="1"/>
        <pt x="1317" y="-228" on="0"/>
        <pt x="1407" y="-207" on="0"/>
        <pt x="1433" y="-187" on="1"/>
        <pt x="1448" y="-284" on="1"/>
        <pt x="1439" y="-298" on="0"/>
        <pt x="1396" y="-323" on="0"/>
        <pt x="1336" y="-343" on="0"/>
        <pt x="1260" y="-354" on="0"/>
        <pt x="1218" y="-354" on="1"/>
        <pt x="1147" y="-354" on="0"/>
        <pt x="1017" y="-319" on="0"/>
        <pt x="909" y="-241" on="0"/>
        <pt x="828" y="-116" on="0"/>
        <pt x="806" y="-26" on="1"/>
        <pt x="770" y="-28" on="1"/>
        <pt x="615" y="-31" on="0"/>
        <pt x="360" y="82" on="0"/>
        <pt x="180" y="290" on="0"/>
        <pt x="84" y="581" on="0"/>
      </contour>
      <contour>
        <pt x="785" y="55" on="1"/>
        <pt x="900" y="55" on="0"/>
        <pt x="1089" y="157" on="0"/>
        <pt x="1224" y="348" on="0"/>
        <pt x="1299" y="620" on="0"/>
        <pt x="1299" y="790" on="1"/>
        <pt x="1299" y="934" on="0"/>
        <pt x="1231" y="1186" on="0"/>
        <pt x="1099" y="1374" on="0"/>
        <pt x="907" y="1483" on="0"/>
        <pt x="783" y="1483" on="1"/>
        <pt x="667" y="1483" on="0"/>
        <pt x="471" y="1386" on="0"/>
        <pt x="329" y="1200" on="0"/>
        <pt x="249" y="930" on="0"/>
        <pt x="249" y="756" on="1"/>
        <pt x="249" y="608" on="0"/>
        <pt x="323" y="352" on="0"/>
        <pt x="462" y="163" on="0"/>
        <pt x="660" y="55" on="0"/>
      </contour>
    </TTGlyph>
    <TTGlyph name="R" xMin="86" yMin="0" xMax="1428" yMax="1566">
      <contour>
        <pt x="86" y="67" on="1"/>
        <pt x="287" y="92" on="1"/>
        <pt x="287" y="1454" on="1"/>
        <pt x="108" y="1469" on="1"/>
        <pt x="108" y="1553" on="1"/>
        <pt x="362" y="1553" on="1"/>
        <pt x="414" y="1554" on="0"/>
        <pt x="569" y="1566" on="0"/>
        <pt x="669" y="1566" on="1"/>
        <pt x="783" y="1566" on="0"/>
        <pt x="973" y="1526" on="0"/>
        <pt x="1110" y="1430" on="0"/>
        <pt x="1187" y="1269" on="0"/>
        <pt x="1187" y="1148" on="1"/>
        <pt x="1187" y="1070" on="0"/>
        <pt x="1137" y="931" on="0"/>
        <pt x="1045" y="819" on="0"/>
        <pt x="915" y="735" on="0"/>
        <pt x="835" y="713" on="1"/>
        <pt x="837" y="711" on="0"/>
        <pt x="839" y="711" on="1"/>
        <pt x="875" y="700" on="0"/>
        <pt x="945" y="636" on="0"/>
        <pt x="1014" y="546" on="0"/>
        <pt x="1079" y="439" on="0"/>
        <pt x="1140" y="330" on="0"/>
        <pt x="1196" y="228" on="0"/>
        <pt x="1246" y="146" on="0"/>
        <pt x="1289" y="94" on="0"/>
        <pt x="1306" y="91" on="1"/>
        <pt x="1428" y="67" on="1"/>
        <pt x="1428" y="0" on="1"/>
        <pt x="1172" y="0" on="1"/>
        <pt x="1155" y="0" on="0"/>
        <pt x="1111" y="60" on="0"/>
        <pt x="1058" y="158" on="0"/>
        <pt x="997" y="283" on="0"/>
        <pt x="930" y="413" on="0"/>
        <pt x="857" y="537" on="0"/>
        <pt x="780" y="632" on="0"/>
        <pt x="698" y="689" on="0"/>
        <pt x="656" y="686" on="1"/>
        <pt x="660" y="689" on="1"/>
        <pt x="606" y="687" on="0"/>
        <pt x="492" y="687" on="0"/>
        <pt x="435" y="687" on="1"/>
        <pt x="435" y="91" on="1"/>
        <pt x="652" y="67" on="1"/>
        <pt x="652" y="0" on="1"/>
        <pt x="86" y="0" on="1"/>
      </contour>
      <contour>
        <pt x="435" y="777" on="1"/>
        <pt x="452" y="775" on="0"/>
        <pt x="515" y="772" on="0"/>
        <pt x="583" y="770" on="0"/>
        <pt x="647" y="769" on="0"/>
        <pt x="666" y="769" on="1"/>
        <pt x="757" y="770" on="0"/>
        <pt x="894" y="821" on="0"/>
        <pt x="986" y="914" on="0"/>
        <pt x="1033" y="1047" on="0"/>
        <pt x="1033" y="1130" on="1"/>
        <pt x="1033" y="1216" on="0"/>
        <pt x="991" y="1351" on="0"/>
        <pt x="898" y="1442" on="0"/>
        <pt x="749" y="1487" on="0"/>
        <pt x="641" y="1483" on="1"/>
        <pt x="617" y="1482" on="0"/>
        <pt x="561" y="1481" on="0"/>
        <pt x="506" y="1478" on="0"/>
        <pt x="455" y="1473" on="0"/>
        <pt x="435" y="1467" on="1"/>
      </contour>
    </TTGlyph>
    <TTGlyph name="Racute" xMin="86" yMin="0" xMax="1428" yMax="1920">
      <contour>
        <pt x="639" y="1651" on="1"/>
        <pt x="935" y="1920" on="1"/>
        <pt x="1041" y="1811" on="1"/>
        <pt x="1006" y="1783" on="0"/>
        <pt x="918" y="1726" on="0"/>
        <pt x="824" y="1673" on="0"/>
        <pt x="726" y="1626" on="0"/>
        <pt x="681" y="1608" on="1"/>
      </contour>
      <contour>
        <pt x="86" y="67" on="1"/>
        <pt x="287" y="92" on="1"/>
        <pt x="287" y="1454" on="1"/>
        <pt x="108" y="1469" on="1"/>
        <pt x="108" y="1553" on="1"/>
        <pt x="362" y="1553" on="1"/>
        <pt x="414" y="1554" on="0"/>
        <pt x="569" y="1566" on="0"/>
        <pt x="669" y="1566" on="1"/>
        <pt x="783" y="1566" on="0"/>
        <pt x="973" y="1526" on="0"/>
        <pt x="1110" y="1430" on="0"/>
        <pt x="1187" y="1269" on="0"/>
        <pt x="1187" y="1148" on="1"/>
        <pt x="1187" y="1070" on="0"/>
        <pt x="1137" y="931" on="0"/>
        <pt x="1045" y="819" on="0"/>
        <pt x="915" y="735" on="0"/>
        <pt x="835" y="713" on="1"/>
        <pt x="837" y="711" on="0"/>
        <pt x="839" y="711" on="1"/>
        <pt x="875" y="700" on="0"/>
        <pt x="945" y="636" on="0"/>
        <pt x="1014" y="546" on="0"/>
        <pt x="1079" y="439" on="0"/>
        <pt x="1140" y="330" on="0"/>
        <pt x="1196" y="228" on="0"/>
        <pt x="1246" y="146" on="0"/>
        <pt x="1289" y="94" on="0"/>
        <pt x="1306" y="91" on="1"/>
        <pt x="1428" y="67" on="1"/>
        <pt x="1428" y="0" on="1"/>
        <pt x="1172" y="0" on="1"/>
        <pt x="1155" y="0" on="0"/>
        <pt x="1111" y="60" on="0"/>
        <pt x="1058" y="158" on="0"/>
        <pt x="997" y="283" on="0"/>
        <pt x="930" y="413" on="0"/>
        <pt x="857" y="537" on="0"/>
        <pt x="780" y="632" on="0"/>
        <pt x="698" y="689" on="0"/>
        <pt x="656" y="686" on="1"/>
        <pt x="660" y="689" on="1"/>
        <pt x="606" y="687" on="0"/>
        <pt x="492" y="687" on="0"/>
        <pt x="435" y="687" on="1"/>
        <pt x="435" y="91" on="1"/>
        <pt x="652" y="67" on="1"/>
        <pt x="652" y="0" on="1"/>
        <pt x="86" y="0" on="1"/>
      </contour>
      <contour>
        <pt x="435" y="777" on="1"/>
        <pt x="452" y="775" on="0"/>
        <pt x="515" y="772" on="0"/>
        <pt x="583" y="770" on="0"/>
        <pt x="647" y="769" on="0"/>
        <pt x="666" y="769" on="1"/>
        <pt x="757" y="770" on="0"/>
        <pt x="894" y="821" on="0"/>
        <pt x="986" y="914" on="0"/>
        <pt x="1033" y="1047" on="0"/>
        <pt x="1033" y="1130" on="1"/>
        <pt x="1033" y="1216" on="0"/>
        <pt x="991" y="1351" on="0"/>
        <pt x="898" y="1442" on="0"/>
        <pt x="749" y="1487" on="0"/>
        <pt x="641" y="1483" on="1"/>
        <pt x="617" y="1482" on="0"/>
        <pt x="561" y="1481" on="0"/>
        <pt x="506" y="1478" on="0"/>
        <pt x="455" y="1473" on="0"/>
        <pt x="435" y="1467" on="1"/>
      </contour>
    </TTGlyph>
    <TTGlyph name="Rcaron" xMin="86" yMin="0" xMax="1428" yMax="1920">
      <contour>
        <pt x="356" y="1879" on="1"/>
        <pt x="423" y="1920" on="1"/>
        <pt x="689" y="1736" on="1"/>
        <pt x="959" y="1920" on="1"/>
        <pt x="1018" y="1881" on="1"/>
        <pt x="759" y="1631" on="1"/>
        <pt x="619" y="1631" on="1"/>
      </contour>
      <contour>
        <pt x="86" y="67" on="1"/>
        <pt x="287" y="92" on="1"/>
        <pt x="287" y="1454" on="1"/>
        <pt x="108" y="1469" on="1"/>
        <pt x="108" y="1553" on="1"/>
        <pt x="362" y="1553" on="1"/>
        <pt x="414" y="1554" on="0"/>
        <pt x="569" y="1566" on="0"/>
        <pt x="669" y="1566" on="1"/>
        <pt x="783" y="1566" on="0"/>
        <pt x="973" y="1526" on="0"/>
        <pt x="1110" y="1430" on="0"/>
        <pt x="1187" y="1269" on="0"/>
        <pt x="1187" y="1148" on="1"/>
        <pt x="1187" y="1070" on="0"/>
        <pt x="1137" y="931" on="0"/>
        <pt x="1045" y="819" on="0"/>
        <pt x="915" y="735" on="0"/>
        <pt x="835" y="713" on="1"/>
        <pt x="837" y="711" on="0"/>
        <pt x="839" y="711" on="1"/>
        <pt x="875" y="700" on="0"/>
        <pt x="945" y="636" on="0"/>
        <pt x="1014" y="546" on="0"/>
        <pt x="1079" y="439" on="0"/>
        <pt x="1140" y="330" on="0"/>
        <pt x="1196" y="228" on="0"/>
        <pt x="1246" y="146" on="0"/>
        <pt x="1289" y="94" on="0"/>
        <pt x="1306" y="91" on="1"/>
        <pt x="1428" y="67" on="1"/>
        <pt x="1428" y="0" on="1"/>
        <pt x="1172" y="0" on="1"/>
        <pt x="1155" y="0" on="0"/>
        <pt x="1111" y="60" on="0"/>
        <pt x="1058" y="158" on="0"/>
        <pt x="997" y="283" on="0"/>
        <pt x="930" y="413" on="0"/>
        <pt x="857" y="537" on="0"/>
        <pt x="780" y="632" on="0"/>
        <pt x="698" y="689" on="0"/>
        <pt x="656" y="686" on="1"/>
        <pt x="660" y="689" on="1"/>
        <pt x="606" y="687" on="0"/>
        <pt x="492" y="687" on="0"/>
        <pt x="435" y="687" on="1"/>
        <pt x="435" y="91" on="1"/>
        <pt x="652" y="67" on="1"/>
        <pt x="652" y="0" on="1"/>
        <pt x="86" y="0" on="1"/>
      </contour>
      <contour>
        <pt x="435" y="777" on="1"/>
        <pt x="452" y="775" on="0"/>
        <pt x="515" y="772" on="0"/>
        <pt x="583" y="770" on="0"/>
        <pt x="647" y="769" on="0"/>
        <pt x="666" y="769" on="1"/>
        <pt x="757" y="770" on="0"/>
        <pt x="894" y="821" on="0"/>
        <pt x="986" y="914" on="0"/>
        <pt x="1033" y="1047" on="0"/>
        <pt x="1033" y="1130" on="1"/>
        <pt x="1033" y="1216" on="0"/>
        <pt x="991" y="1351" on="0"/>
        <pt x="898" y="1442" on="0"/>
        <pt x="749" y="1487" on="0"/>
        <pt x="641" y="1483" on="1"/>
        <pt x="617" y="1482" on="0"/>
        <pt x="561" y="1481" on="0"/>
        <pt x="506" y="1478" on="0"/>
        <pt x="455" y="1473" on="0"/>
        <pt x="435" y="1467" on="1"/>
      </contour>
    </TTGlyph>
    <TTGlyph name="Rcommaaccent" xMin="86" yMin="-640" xMax="1428" yMax="1566">
      <contour>
        <pt x="86" y="67" on="1"/>
        <pt x="287" y="92" on="1"/>
        <pt x="287" y="1454" on="1"/>
        <pt x="108" y="1469" on="1"/>
        <pt x="108" y="1553" on="1"/>
        <pt x="362" y="1553" on="1"/>
        <pt x="414" y="1554" on="0"/>
        <pt x="569" y="1566" on="0"/>
        <pt x="669" y="1566" on="1"/>
        <pt x="783" y="1566" on="0"/>
        <pt x="973" y="1526" on="0"/>
        <pt x="1110" y="1430" on="0"/>
        <pt x="1187" y="1269" on="0"/>
        <pt x="1187" y="1148" on="1"/>
        <pt x="1187" y="1070" on="0"/>
        <pt x="1137" y="931" on="0"/>
        <pt x="1045" y="819" on="0"/>
        <pt x="915" y="735" on="0"/>
        <pt x="835" y="713" on="1"/>
        <pt x="837" y="711" on="0"/>
        <pt x="839" y="711" on="1"/>
        <pt x="875" y="700" on="0"/>
        <pt x="945" y="636" on="0"/>
        <pt x="1014" y="546" on="0"/>
        <pt x="1079" y="439" on="0"/>
        <pt x="1140" y="330" on="0"/>
        <pt x="1196" y="228" on="0"/>
        <pt x="1246" y="146" on="0"/>
        <pt x="1289" y="94" on="0"/>
        <pt x="1306" y="91" on="1"/>
        <pt x="1428" y="67" on="1"/>
        <pt x="1428" y="0" on="1"/>
        <pt x="1172" y="0" on="1"/>
        <pt x="1155" y="0" on="0"/>
        <pt x="1111" y="60" on="0"/>
        <pt x="1058" y="158" on="0"/>
        <pt x="997" y="283" on="0"/>
        <pt x="930" y="413" on="0"/>
        <pt x="857" y="537" on="0"/>
        <pt x="780" y="632" on="0"/>
        <pt x="698" y="689" on="0"/>
        <pt x="656" y="686" on="1"/>
        <pt x="660" y="689" on="1"/>
        <pt x="606" y="687" on="0"/>
        <pt x="492" y="687" on="0"/>
        <pt x="435" y="687" on="1"/>
        <pt x="435" y="91" on="1"/>
        <pt x="652" y="67" on="1"/>
        <pt x="652" y="0" on="1"/>
        <pt x="86" y="0" on="1"/>
      </contour>
      <contour>
        <pt x="435" y="777" on="1"/>
        <pt x="452" y="775" on="0"/>
        <pt x="515" y="772" on="0"/>
        <pt x="583" y="770" on="0"/>
        <pt x="647" y="769" on="0"/>
        <pt x="666" y="769" on="1"/>
        <pt x="757" y="770" on="0"/>
        <pt x="894" y="821" on="0"/>
        <pt x="986" y="914" on="0"/>
        <pt x="1033" y="1047" on="0"/>
        <pt x="1033" y="1130" on="1"/>
        <pt x="1033" y="1216" on="0"/>
        <pt x="991" y="1351" on="0"/>
        <pt x="898" y="1442" on="0"/>
        <pt x="749" y="1487" on="0"/>
        <pt x="641" y="1483" on="1"/>
        <pt x="617" y="1482" on="0"/>
        <pt x="561" y="1481" on="0"/>
        <pt x="506" y="1478" on="0"/>
        <pt x="455" y="1473" on="0"/>
        <pt x="435" y="1467" on="1"/>
      </contour>
      <contour>
        <pt x="746" y="-74" on="1"/>
        <pt x="794" y="-83" on="0"/>
        <pt x="868" y="-130" on="0"/>
        <pt x="919" y="-193" on="0"/>
        <pt x="945" y="-266" on="0"/>
        <pt x="946" y="-302" on="1"/>
        <pt x="947" y="-365" on="0"/>
        <pt x="902" y="-476" on="0"/>
        <pt x="833" y="-565" on="0"/>
        <pt x="750" y="-627" on="0"/>
        <pt x="713" y="-640" on="1"/>
        <pt x="672" y="-603" on="1"/>
        <pt x="672" y="-576" on="1"/>
        <pt x="702" y="-563" on="0"/>
        <pt x="747" y="-513" on="0"/>
        <pt x="777" y="-447" on="0"/>
        <pt x="793" y="-371" on="0"/>
        <pt x="793" y="-333" on="1"/>
        <pt x="793" y="-300" on="0"/>
        <pt x="769" y="-248" on="0"/>
        <pt x="733" y="-212" on="0"/>
        <pt x="691" y="-192" on="0"/>
        <pt x="673" y="-192" on="1"/>
        <pt x="673" y="-149" on="1"/>
      </contour>
    </TTGlyph>
    <TTGlyph name="S" xMin="154" yMin="-23" xMax="1126" yMax="1566">
      <contour>
        <pt x="154" y="362" on="1"/>
        <pt x="227" y="362" on="1"/>
        <pt x="274" y="158" on="1"/>
        <pt x="305" y="128" on="0"/>
        <pt x="391" y="89" on="0"/>
        <pt x="486" y="66" on="0"/>
        <pt x="585" y="57" on="0"/>
        <pt x="629" y="57" on="1"/>
        <pt x="693" y="57" on="0"/>
        <pt x="821" y="89" on="0"/>
        <pt x="924" y="159" on="0"/>
        <pt x="988" y="273" on="0"/>
        <pt x="988" y="355" on="1"/>
        <pt x="988" y="424" on="0"/>
        <pt x="921" y="532" on="0"/>
        <pt x="811" y="621" on="0"/>
        <pt x="670" y="697" on="0"/>
        <pt x="595" y="733" on="1"/>
        <pt x="515" y="772" on="0"/>
        <pt x="361" y="857" on="0"/>
        <pt x="240" y="961" on="0"/>
        <pt x="164" y="1092" on="0"/>
        <pt x="164" y="1177" on="1"/>
        <pt x="164" y="1247" on="0"/>
        <pt x="207" y="1360" on="0"/>
        <pt x="281" y="1446" on="0"/>
        <pt x="378" y="1508" on="0"/>
        <pt x="486" y="1547" on="0"/>
        <pt x="598" y="1566" on="0"/>
        <pt x="650" y="1566" on="1"/>
        <pt x="727" y="1566" on="0"/>
        <pt x="849" y="1551" on="0"/>
        <pt x="944" y="1528" on="0"/>
        <pt x="1012" y="1500" on="0"/>
        <pt x="1034" y="1487" on="1"/>
        <pt x="1034" y="1220" on="1"/>
        <pt x="966" y="1220" on="1"/>
        <pt x="907" y="1419" on="1"/>
        <pt x="863" y="1457" on="0"/>
        <pt x="717" y="1489" on="0"/>
        <pt x="637" y="1488" on="1"/>
        <pt x="583" y="1488" on="0"/>
        <pt x="464" y="1457" on="0"/>
        <pt x="365" y="1389" on="0"/>
        <pt x="301" y="1279" on="0"/>
        <pt x="301" y="1200" on="1"/>
        <pt x="301" y="1137" on="0"/>
        <pt x="363" y="1036" on="0"/>
        <pt x="465" y="953" on="0"/>
        <pt x="598" y="883" on="0"/>
        <pt x="669" y="849" on="1"/>
        <pt x="724" y="823" on="0"/>
        <pt x="834" y="767" on="0"/>
        <pt x="936" y="705" on="0"/>
        <pt x="1024" y="635" on="0"/>
        <pt x="1089" y="552" on="0"/>
        <pt x="1126" y="453" on="0"/>
        <pt x="1126" y="394" on="1"/>
        <pt x="1126" y="284" on="0"/>
        <pt x="1044" y="126" on="0"/>
        <pt x="903" y="25" on="0"/>
        <pt x="715" y="-23" on="0"/>
        <pt x="610" y="-23" on="1"/>
        <pt x="535" y="-23" on="0"/>
        <pt x="390" y="-6" on="0"/>
        <pt x="267" y="20" on="0"/>
        <pt x="175" y="50" on="0"/>
        <pt x="154" y="63" on="1"/>
      </contour>
    </TTGlyph>
    <TTGlyph name="Scaron" xMin="150" yMin="-23" xMax="1122" yMax="1920">
      <contour>
        <pt x="318" y="1879" on="1"/>
        <pt x="384" y="1920" on="1"/>
        <pt x="650" y="1736" on="1"/>
        <pt x="920" y="1920" on="1"/>
        <pt x="979" y="1881" on="1"/>
        <pt x="720" y="1631" on="1"/>
        <pt x="580" y="1631" on="1"/>
      </contour>
      <contour>
        <pt x="150" y="362" on="1"/>
        <pt x="223" y="362" on="1"/>
        <pt x="270" y="158" on="1"/>
        <pt x="301" y="128" on="0"/>
        <pt x="387" y="89" on="0"/>
        <pt x="482" y="66" on="0"/>
        <pt x="581" y="57" on="0"/>
        <pt x="625" y="57" on="1"/>
        <pt x="689" y="57" on="0"/>
        <pt x="817" y="89" on="0"/>
        <pt x="920" y="159" on="0"/>
        <pt x="984" y="273" on="0"/>
        <pt x="984" y="355" on="1"/>
        <pt x="984" y="424" on="0"/>
        <pt x="917" y="532" on="0"/>
        <pt x="807" y="621" on="0"/>
        <pt x="666" y="697" on="0"/>
        <pt x="591" y="733" on="1"/>
        <pt x="511" y="772" on="0"/>
        <pt x="357" y="857" on="0"/>
        <pt x="236" y="961" on="0"/>
        <pt x="160" y="1092" on="0"/>
        <pt x="160" y="1177" on="1"/>
        <pt x="160" y="1247" on="0"/>
        <pt x="203" y="1360" on="0"/>
        <pt x="277" y="1446" on="0"/>
        <pt x="374" y="1508" on="0"/>
        <pt x="482" y="1547" on="0"/>
        <pt x="594" y="1566" on="0"/>
        <pt x="646" y="1566" on="1"/>
        <pt x="723" y="1566" on="0"/>
        <pt x="845" y="1551" on="0"/>
        <pt x="940" y="1528" on="0"/>
        <pt x="1008" y="1500" on="0"/>
        <pt x="1030" y="1487" on="1"/>
        <pt x="1030" y="1220" on="1"/>
        <pt x="962" y="1220" on="1"/>
        <pt x="903" y="1419" on="1"/>
        <pt x="859" y="1457" on="0"/>
        <pt x="713" y="1489" on="0"/>
        <pt x="633" y="1488" on="1"/>
        <pt x="579" y="1488" on="0"/>
        <pt x="460" y="1457" on="0"/>
        <pt x="361" y="1389" on="0"/>
        <pt x="297" y="1279" on="0"/>
        <pt x="297" y="1200" on="1"/>
        <pt x="297" y="1137" on="0"/>
        <pt x="359" y="1036" on="0"/>
        <pt x="461" y="953" on="0"/>
        <pt x="594" y="883" on="0"/>
        <pt x="665" y="849" on="1"/>
        <pt x="720" y="823" on="0"/>
        <pt x="830" y="767" on="0"/>
        <pt x="932" y="705" on="0"/>
        <pt x="1020" y="635" on="0"/>
        <pt x="1085" y="552" on="0"/>
        <pt x="1122" y="453" on="0"/>
        <pt x="1122" y="394" on="1"/>
        <pt x="1122" y="284" on="0"/>
        <pt x="1040" y="126" on="0"/>
        <pt x="899" y="25" on="0"/>
        <pt x="711" y="-23" on="0"/>
        <pt x="606" y="-23" on="1"/>
        <pt x="531" y="-23" on="0"/>
        <pt x="386" y="-6" on="0"/>
        <pt x="263" y="20" on="0"/>
        <pt x="171" y="50" on="0"/>
        <pt x="150" y="63" on="1"/>
      </contour>
    </TTGlyph>
    <TTGlyph name="T" xMin="30" yMin="0" xMax="1246" yMax="1553">
      <contour>
        <pt x="316" y="67" on="1"/>
        <pt x="578" y="92" on="1"/>
        <pt x="578" y="1469" on="1"/>
        <pt x="162" y="1452" on="1"/>
        <pt x="101" y="1251" on="1"/>
        <pt x="30" y="1249" on="1"/>
        <pt x="55" y="1553" on="1"/>
        <pt x="1246" y="1553" on="1"/>
        <pt x="1244" y="1246" on="1"/>
        <pt x="1179" y="1237" on="1"/>
        <pt x="1138" y="1452" on="1"/>
        <pt x="726" y="1469" on="1"/>
        <pt x="726" y="92" on="1"/>
        <pt x="1002" y="67" on="1"/>
        <pt x="1002" y="0" on="1"/>
        <pt x="316" y="0" on="1"/>
      </contour>
    </TTGlyph>
    <TTGlyph name="Thorn" xMin="86" yMin="0" xMax="1236" yMax="1553">
      <contour>
        <pt x="86" y="67" on="1"/>
        <pt x="287" y="92" on="1"/>
        <pt x="287" y="1463" on="1"/>
        <pt x="122" y="1477" on="1"/>
        <pt x="122" y="1553" on="1"/>
        <pt x="604" y="1553" on="1"/>
        <pt x="604" y="1477" on="1"/>
        <pt x="435" y="1462" on="1"/>
        <pt x="435" y="1227" on="1"/>
        <pt x="492" y="1233" on="0"/>
        <pt x="635" y="1253" on="0"/>
        <pt x="706" y="1253" on="1"/>
        <pt x="821" y="1253" on="0"/>
        <pt x="1016" y="1204" on="0"/>
        <pt x="1157" y="1098" on="0"/>
        <pt x="1236" y="932" on="0"/>
        <pt x="1236" y="815" on="1"/>
        <pt x="1236" y="693" on="0"/>
        <pt x="1138" y="508" on="0"/>
        <pt x="976" y="385" on="0"/>
        <pt x="767" y="324" on="0"/>
        <pt x="657" y="325" on="1"/>
        <pt x="574" y="325" on="0"/>
        <pt x="467" y="331" on="0"/>
        <pt x="435" y="332" on="1"/>
        <pt x="435" y="92" on="1"/>
        <pt x="711" y="67" on="1"/>
        <pt x="711" y="0" on="1"/>
        <pt x="86" y="0" on="1"/>
      </contour>
      <contour>
        <pt x="435" y="418" on="1"/>
        <pt x="491" y="409" on="0"/>
        <pt x="607" y="404" on="0"/>
        <pt x="654" y="404" on="1"/>
        <pt x="743" y="405" on="0"/>
        <pt x="900" y="449" on="0"/>
        <pt x="1018" y="546" on="0"/>
        <pt x="1087" y="701" on="0"/>
        <pt x="1087" y="813" on="1"/>
        <pt x="1087" y="901" on="0"/>
        <pt x="1031" y="1036" on="0"/>
        <pt x="920" y="1127" on="0"/>
        <pt x="754" y="1171" on="0"/>
        <pt x="645" y="1167" on="1"/>
        <pt x="621" y="1166" on="0"/>
        <pt x="566" y="1160" on="0"/>
        <pt x="510" y="1152" on="0"/>
        <pt x="457" y="1142" on="0"/>
        <pt x="435" y="1136" on="1"/>
      </contour>
    </TTGlyph>
    <TTGlyph name="U" xMin="33" yMin="-28" xMax="1513" yMax="1553">
      <contour>
        <pt x="186" y="1462" on="1"/>
        <pt x="33" y="1477" on="1"/>
        <pt x="33" y="1553" on="1"/>
        <pt x="509" y="1553" on="1"/>
        <pt x="509" y="1477" on="1"/>
        <pt x="335" y="1461" on="1"/>
        <pt x="335" y="642" on="1"/>
        <pt x="335" y="469" on="0"/>
        <pt x="406" y="242" on="0"/>
        <pt x="533" y="107" on="0"/>
        <pt x="707" y="52" on="0"/>
        <pt x="811" y="52" on="1"/>
        <pt x="922" y="52" on="0"/>
        <pt x="1085" y="134" on="0"/>
        <pt x="1191" y="290" on="0"/>
        <pt x="1242" y="517" on="0"/>
        <pt x="1242" y="663" on="1"/>
        <pt x="1242" y="1460" on="1"/>
        <pt x="1069" y="1477" on="1"/>
        <pt x="1069" y="1553" on="1"/>
        <pt x="1513" y="1553" on="1"/>
        <pt x="1513" y="1477" on="1"/>
        <pt x="1357" y="1460" on="1"/>
        <pt x="1357" y="664" on="1"/>
        <pt x="1357" y="477" on="0"/>
        <pt x="1273" y="214" on="0"/>
        <pt x="1122" y="48" on="0"/>
        <pt x="910" y="-28" on="0"/>
        <pt x="782" y="-28" on="1"/>
        <pt x="623" y="-28" on="0"/>
        <pt x="397" y="55" on="0"/>
        <pt x="253" y="223" on="0"/>
        <pt x="186" y="477" on="0"/>
        <pt x="186" y="647" on="1"/>
      </contour>
    </TTGlyph>
    <TTGlyph name="Uacute" xMin="33" yMin="-28" xMax="1513" yMax="1920">
      <contour>
        <pt x="749" y="1651" on="1"/>
        <pt x="1044" y="1920" on="1"/>
        <pt x="1151" y="1811" on="1"/>
        <pt x="1116" y="1783" on="0"/>
        <pt x="1028" y="1726" on="0"/>
        <pt x="934" y="1673" on="0"/>
        <pt x="836" y="1626" on="0"/>
        <pt x="791" y="1608" on="1"/>
      </contour>
      <contour>
        <pt x="186" y="1462" on="1"/>
        <pt x="33" y="1477" on="1"/>
        <pt x="33" y="1553" on="1"/>
        <pt x="509" y="1553" on="1"/>
        <pt x="509" y="1477" on="1"/>
        <pt x="335" y="1461" on="1"/>
        <pt x="335" y="642" on="1"/>
        <pt x="335" y="469" on="0"/>
        <pt x="406" y="242" on="0"/>
        <pt x="533" y="107" on="0"/>
        <pt x="707" y="52" on="0"/>
        <pt x="811" y="52" on="1"/>
        <pt x="922" y="52" on="0"/>
        <pt x="1085" y="134" on="0"/>
        <pt x="1191" y="290" on="0"/>
        <pt x="1242" y="517" on="0"/>
        <pt x="1242" y="663" on="1"/>
        <pt x="1242" y="1460" on="1"/>
        <pt x="1069" y="1477" on="1"/>
        <pt x="1069" y="1553" on="1"/>
        <pt x="1513" y="1553" on="1"/>
        <pt x="1513" y="1477" on="1"/>
        <pt x="1357" y="1460" on="1"/>
        <pt x="1357" y="664" on="1"/>
        <pt x="1357" y="477" on="0"/>
        <pt x="1273" y="214" on="0"/>
        <pt x="1122" y="48" on="0"/>
        <pt x="910" y="-28" on="0"/>
        <pt x="782" y="-28" on="1"/>
        <pt x="623" y="-28" on="0"/>
        <pt x="397" y="55" on="0"/>
        <pt x="253" y="223" on="0"/>
        <pt x="186" y="477" on="0"/>
        <pt x="186" y="647" on="1"/>
      </contour>
    </TTGlyph>
    <TTGlyph name="Ucircumflex" xMin="33" yMin="-28" xMax="1513" yMax="1920">
      <contour>
        <pt x="454" y="1654" on="1"/>
        <pt x="723" y="1920" on="1"/>
        <pt x="869" y="1920" on="1"/>
        <pt x="1139" y="1656" on="1"/>
        <pt x="1069" y="1617" on="1"/>
        <pt x="796" y="1817" on="1"/>
        <pt x="517" y="1617" on="1"/>
      </contour>
      <contour>
        <pt x="186" y="1462" on="1"/>
        <pt x="33" y="1477" on="1"/>
        <pt x="33" y="1553" on="1"/>
        <pt x="509" y="1553" on="1"/>
        <pt x="509" y="1477" on="1"/>
        <pt x="335" y="1461" on="1"/>
        <pt x="335" y="642" on="1"/>
        <pt x="335" y="469" on="0"/>
        <pt x="406" y="242" on="0"/>
        <pt x="533" y="107" on="0"/>
        <pt x="707" y="52" on="0"/>
        <pt x="811" y="52" on="1"/>
        <pt x="922" y="52" on="0"/>
        <pt x="1085" y="134" on="0"/>
        <pt x="1191" y="290" on="0"/>
        <pt x="1242" y="517" on="0"/>
        <pt x="1242" y="663" on="1"/>
        <pt x="1242" y="1460" on="1"/>
        <pt x="1069" y="1477" on="1"/>
        <pt x="1069" y="1553" on="1"/>
        <pt x="1513" y="1553" on="1"/>
        <pt x="1513" y="1477" on="1"/>
        <pt x="1357" y="1460" on="1"/>
        <pt x="1357" y="664" on="1"/>
        <pt x="1357" y="477" on="0"/>
        <pt x="1273" y="214" on="0"/>
        <pt x="1122" y="48" on="0"/>
        <pt x="910" y="-28" on="0"/>
        <pt x="782" y="-28" on="1"/>
        <pt x="623" y="-28" on="0"/>
        <pt x="397" y="55" on="0"/>
        <pt x="253" y="223" on="0"/>
        <pt x="186" y="477" on="0"/>
        <pt x="186" y="647" on="1"/>
      </contour>
    </TTGlyph>
    <TTGlyph name="Udieresis" xMin="33" yMin="-28" xMax="1513" yMax="1897">
      <contour>
        <pt x="1013" y="1689" on="1"/>
        <pt x="994" y="1689" on="0"/>
        <pt x="958" y="1702" on="0"/>
        <pt x="931" y="1727" on="0"/>
        <pt x="914" y="1762" on="0"/>
        <pt x="914" y="1784" on="1"/>
        <pt x="914" y="1808" on="0"/>
        <pt x="935" y="1849" on="0"/>
        <pt x="968" y="1879" on="0"/>
        <pt x="1011" y="1897" on="0"/>
        <pt x="1032" y="1897" on="1"/>
        <pt x="1083" y="1897" on="0"/>
        <pt x="1131" y="1840" on="0"/>
        <pt x="1131" y="1801" on="1"/>
        <pt x="1131" y="1776" on="0"/>
        <pt x="1111" y="1735" on="0"/>
        <pt x="1078" y="1705" on="0"/>
        <pt x="1035" y="1689" on="0"/>
      </contour>
      <contour>
        <pt x="556" y="1690" on="1"/>
        <pt x="537" y="1690" on="0"/>
        <pt x="501" y="1703" on="0"/>
        <pt x="474" y="1728" on="0"/>
        <pt x="457" y="1763" on="0"/>
        <pt x="457" y="1785" on="1"/>
        <pt x="457" y="1809" on="0"/>
        <pt x="478" y="1850" on="0"/>
        <pt x="511" y="1880" on="0"/>
        <pt x="554" y="1897" on="0"/>
        <pt x="575" y="1897" on="1"/>
        <pt x="626" y="1897" on="0"/>
        <pt x="674" y="1840" on="0"/>
        <pt x="674" y="1802" on="1"/>
        <pt x="674" y="1777" on="0"/>
        <pt x="654" y="1736" on="0"/>
        <pt x="621" y="1706" on="0"/>
        <pt x="578" y="1690" on="0"/>
      </contour>
      <contour>
        <pt x="186" y="1462" on="1"/>
        <pt x="33" y="1477" on="1"/>
        <pt x="33" y="1553" on="1"/>
        <pt x="509" y="1553" on="1"/>
        <pt x="509" y="1477" on="1"/>
        <pt x="335" y="1461" on="1"/>
        <pt x="335" y="642" on="1"/>
        <pt x="335" y="469" on="0"/>
        <pt x="406" y="242" on="0"/>
        <pt x="533" y="107" on="0"/>
        <pt x="707" y="52" on="0"/>
        <pt x="811" y="52" on="1"/>
        <pt x="922" y="52" on="0"/>
        <pt x="1085" y="134" on="0"/>
        <pt x="1191" y="290" on="0"/>
        <pt x="1242" y="517" on="0"/>
        <pt x="1242" y="663" on="1"/>
        <pt x="1242" y="1460" on="1"/>
        <pt x="1069" y="1477" on="1"/>
        <pt x="1069" y="1553" on="1"/>
        <pt x="1513" y="1553" on="1"/>
        <pt x="1513" y="1477" on="1"/>
        <pt x="1357" y="1460" on="1"/>
        <pt x="1357" y="664" on="1"/>
        <pt x="1357" y="477" on="0"/>
        <pt x="1273" y="214" on="0"/>
        <pt x="1122" y="48" on="0"/>
        <pt x="910" y="-28" on="0"/>
        <pt x="782" y="-28" on="1"/>
        <pt x="623" y="-28" on="0"/>
        <pt x="397" y="55" on="0"/>
        <pt x="253" y="223" on="0"/>
        <pt x="186" y="477" on="0"/>
        <pt x="186" y="647" on="1"/>
      </contour>
    </TTGlyph>
    <TTGlyph name="Ugrave" xMin="33" yMin="-28" xMax="1513" yMax="1920">
      <contour>
        <pt x="799" y="1608" on="1"/>
        <pt x="754" y="1626" on="0"/>
        <pt x="656" y="1673" on="0"/>
        <pt x="562" y="1726" on="0"/>
        <pt x="474" y="1783" on="0"/>
        <pt x="439" y="1811" on="1"/>
        <pt x="545" y="1920" on="1"/>
        <pt x="841" y="1651" on="1"/>
      </contour>
      <contour>
        <pt x="186" y="1462" on="1"/>
        <pt x="33" y="1477" on="1"/>
        <pt x="33" y="1553" on="1"/>
        <pt x="509" y="1553" on="1"/>
        <pt x="509" y="1477" on="1"/>
        <pt x="335" y="1461" on="1"/>
        <pt x="335" y="642" on="1"/>
        <pt x="335" y="469" on="0"/>
        <pt x="406" y="242" on="0"/>
        <pt x="533" y="107" on="0"/>
        <pt x="707" y="52" on="0"/>
        <pt x="811" y="52" on="1"/>
        <pt x="922" y="52" on="0"/>
        <pt x="1085" y="134" on="0"/>
        <pt x="1191" y="290" on="0"/>
        <pt x="1242" y="517" on="0"/>
        <pt x="1242" y="663" on="1"/>
        <pt x="1242" y="1460" on="1"/>
        <pt x="1069" y="1477" on="1"/>
        <pt x="1069" y="1553" on="1"/>
        <pt x="1513" y="1553" on="1"/>
        <pt x="1513" y="1477" on="1"/>
        <pt x="1357" y="1460" on="1"/>
        <pt x="1357" y="664" on="1"/>
        <pt x="1357" y="477" on="0"/>
        <pt x="1273" y="214" on="0"/>
        <pt x="1122" y="48" on="0"/>
        <pt x="910" y="-28" on="0"/>
        <pt x="782" y="-28" on="1"/>
        <pt x="623" y="-28" on="0"/>
        <pt x="397" y="55" on="0"/>
        <pt x="253" y="223" on="0"/>
        <pt x="186" y="477" on="0"/>
        <pt x="186" y="647" on="1"/>
      </contour>
    </TTGlyph>
    <TTGlyph name="V" xMin="5" yMin="-20" xMax="1427" yMax="1553">
      <contour>
        <pt x="143" y="1463" on="1"/>
        <pt x="5" y="1477" on="1"/>
        <pt x="5" y="1553" on="1"/>
        <pt x="511" y="1553" on="1"/>
        <pt x="511" y="1477" on="1"/>
        <pt x="313" y="1462" on="1"/>
        <pt x="702" y="338" on="1"/>
        <pt x="761" y="149" on="1"/>
        <pt x="813" y="339" on="1"/>
        <pt x="1156" y="1462" on="1"/>
        <pt x="989" y="1477" on="1"/>
        <pt x="989" y="1552" on="1"/>
        <pt x="1427" y="1552" on="1"/>
        <pt x="1427" y="1477" on="1"/>
        <pt x="1284" y="1462" on="1"/>
        <pt x="794" y="-20" on="1"/>
        <pt x="685" y="-20" on="1"/>
      </contour>
    </TTGlyph>
    <TTGlyph name="W" xMin="5" yMin="-20" xMax="2089" yMax="1553">
      <contour>
        <pt x="141" y="1462" on="1"/>
        <pt x="5" y="1476" on="1"/>
        <pt x="5" y="1553" on="1"/>
        <pt x="503" y="1553" on="1"/>
        <pt x="503" y="1476" on="1"/>
        <pt x="305" y="1462" on="1"/>
        <pt x="658" y="342" on="1"/>
        <pt x="717" y="156" on="1"/>
        <pt x="772" y="334" on="1"/>
        <pt x="1012" y="1281" on="1"/>
        <pt x="958" y="1462" on="1"/>
        <pt x="793" y="1476" on="1"/>
        <pt x="793" y="1553" on="1"/>
        <pt x="1305" y="1553" on="1"/>
        <pt x="1305" y="1476" on="1"/>
        <pt x="1114" y="1462" on="1"/>
        <pt x="1418" y="329" on="1"/>
        <pt x="1464" y="150" on="1"/>
        <pt x="1511" y="354" on="1"/>
        <pt x="1805" y="1462" on="1"/>
        <pt x="1623" y="1476" on="1"/>
        <pt x="1623" y="1553" on="1"/>
        <pt x="2089" y="1553" on="1"/>
        <pt x="2089" y="1476" on="1"/>
        <pt x="1930" y="1462" on="1"/>
        <pt x="1500" y="-20" on="1"/>
        <pt x="1381" y="-20" on="1"/>
        <pt x="1068" y="1080" on="1"/>
        <pt x="768" y="-20" on="1"/>
        <pt x="642" y="-20" on="1"/>
      </contour>
    </TTGlyph>
    <TTGlyph name="X" xMin="15" yMin="0" xMax="1408" yMax="1553">
      <contour>
        <pt x="15" y="67" on="1"/>
        <pt x="193" y="91" on="1"/>
        <pt x="637" y="790" on="1"/>
        <pt x="214" y="1463" on="1"/>
        <pt x="55" y="1477" on="1"/>
        <pt x="55" y="1553" on="1"/>
        <pt x="584" y="1553" on="1"/>
        <pt x="584" y="1476" on="1"/>
        <pt x="391" y="1462" on="1"/>
        <pt x="736" y="874" on="1"/>
        <pt x="1086" y="1462" on="1"/>
        <pt x="914" y="1477" on="1"/>
        <pt x="914" y="1553" on="1"/>
        <pt x="1373" y="1553" on="1"/>
        <pt x="1373" y="1477" on="1"/>
        <pt x="1223" y="1463" on="1"/>
        <pt x="791" y="810" on="1"/>
        <pt x="1229" y="91" on="1"/>
        <pt x="1408" y="67" on="1"/>
        <pt x="1408" y="0" on="1"/>
        <pt x="859" y="0" on="1"/>
        <pt x="859" y="68" on="1"/>
        <pt x="1061" y="91" on="1"/>
        <pt x="687" y="713" on="1"/>
        <pt x="333" y="90" on="1"/>
        <pt x="535" y="67" on="1"/>
        <pt x="535" y="0" on="1"/>
        <pt x="15" y="0" on="1"/>
      </contour>
    </TTGlyph>
    <TTGlyph name="Y" xMin="12" yMin="0" xMax="1337" yMax="1553">
      <contour>
        <pt x="422" y="67" on="1"/>
        <pt x="625" y="92" on="1"/>
        <pt x="625" y="640" on="1"/>
        <pt x="134" y="1462" on="1"/>
        <pt x="12" y="1477" on="1"/>
        <pt x="12" y="1553" on="1"/>
        <pt x="472" y="1553" on="1"/>
        <pt x="472" y="1476" on="1"/>
        <pt x="304" y="1462" on="1"/>
        <pt x="655" y="829" on="1"/>
        <pt x="708" y="722" on="1"/>
        <pt x="757" y="830" on="1"/>
        <pt x="1077" y="1461" on="1"/>
        <pt x="906" y="1477" on="1"/>
        <pt x="906" y="1553" on="1"/>
        <pt x="1337" y="1553" on="1"/>
        <pt x="1337" y="1477" on="1"/>
        <pt x="1202" y="1455" on="1"/>
        <pt x="772" y="637" on="1"/>
        <pt x="772" y="92" on="1"/>
        <pt x="983" y="67" on="1"/>
        <pt x="983" y="0" on="1"/>
        <pt x="422" y="0" on="1"/>
      </contour>
    </TTGlyph>
    <TTGlyph name="Yacute" xMin="12" yMin="0" xMax="1337" yMax="1920">
      <contour>
        <pt x="656" y="1651" on="1"/>
        <pt x="952" y="1920" on="1"/>
        <pt x="1059" y="1811" on="1"/>
        <pt x="1023" y="1783" on="0"/>
        <pt x="936" y="1726" on="0"/>
        <pt x="841" y="1673" on="0"/>
        <pt x="743" y="1626" on="0"/>
        <pt x="698" y="1608" on="1"/>
      </contour>
      <contour>
        <pt x="422" y="67" on="1"/>
        <pt x="625" y="92" on="1"/>
        <pt x="625" y="640" on="1"/>
        <pt x="134" y="1462" on="1"/>
        <pt x="12" y="1477" on="1"/>
        <pt x="12" y="1553" on="1"/>
        <pt x="472" y="1553" on="1"/>
        <pt x="472" y="1476" on="1"/>
        <pt x="304" y="1462" on="1"/>
        <pt x="655" y="829" on="1"/>
        <pt x="708" y="722" on="1"/>
        <pt x="757" y="830" on="1"/>
        <pt x="1077" y="1461" on="1"/>
        <pt x="906" y="1477" on="1"/>
        <pt x="906" y="1553" on="1"/>
        <pt x="1337" y="1553" on="1"/>
        <pt x="1337" y="1477" on="1"/>
        <pt x="1202" y="1455" on="1"/>
        <pt x="772" y="637" on="1"/>
        <pt x="772" y="92" on="1"/>
        <pt x="983" y="67" on="1"/>
        <pt x="983" y="0" on="1"/>
        <pt x="422" y="0" on="1"/>
      </contour>
    </TTGlyph>
    <TTGlyph name="Ydieresis" xMin="12" yMin="0" xMax="1337" yMax="1897">
      <contour>
        <pt x="921" y="1689" on="1"/>
        <pt x="902" y="1689" on="0"/>
        <pt x="866" y="1702" on="0"/>
        <pt x="839" y="1727" on="0"/>
        <pt x="822" y="1762" on="0"/>
        <pt x="822" y="1784" on="1"/>
        <pt x="822" y="1808" on="0"/>
        <pt x="843" y="1849" on="0"/>
        <pt x="876" y="1879" on="0"/>
        <pt x="918" y="1897" on="0"/>
        <pt x="939" y="1897" on="1"/>
        <pt x="991" y="1897" on="0"/>
        <pt x="1039" y="1840" on="0"/>
        <pt x="1039" y="1801" on="1"/>
        <pt x="1039" y="1776" on="0"/>
        <pt x="1019" y="1735" on="0"/>
        <pt x="986" y="1705" on="0"/>
        <pt x="943" y="1689" on="0"/>
      </contour>
      <contour>
        <pt x="464" y="1690" on="1"/>
        <pt x="445" y="1690" on="0"/>
        <pt x="409" y="1703" on="0"/>
        <pt x="382" y="1728" on="0"/>
        <pt x="365" y="1763" on="0"/>
        <pt x="365" y="1785" on="1"/>
        <pt x="365" y="1809" on="0"/>
        <pt x="386" y="1850" on="0"/>
        <pt x="419" y="1880" on="0"/>
        <pt x="461" y="1897" on="0"/>
        <pt x="482" y="1897" on="1"/>
        <pt x="534" y="1897" on="0"/>
        <pt x="581" y="1840" on="0"/>
        <pt x="581" y="1802" on="1"/>
        <pt x="581" y="1777" on="0"/>
        <pt x="561" y="1736" on="0"/>
        <pt x="528" y="1706" on="0"/>
        <pt x="486" y="1690" on="0"/>
      </contour>
      <contour>
        <pt x="422" y="67" on="1"/>
        <pt x="625" y="92" on="1"/>
        <pt x="625" y="640" on="1"/>
        <pt x="134" y="1462" on="1"/>
        <pt x="12" y="1477" on="1"/>
        <pt x="12" y="1553" on="1"/>
        <pt x="472" y="1553" on="1"/>
        <pt x="472" y="1476" on="1"/>
        <pt x="304" y="1462" on="1"/>
        <pt x="655" y="829" on="1"/>
        <pt x="708" y="722" on="1"/>
        <pt x="757" y="830" on="1"/>
        <pt x="1077" y="1461" on="1"/>
        <pt x="906" y="1477" on="1"/>
        <pt x="906" y="1553" on="1"/>
        <pt x="1337" y="1553" on="1"/>
        <pt x="1337" y="1477" on="1"/>
        <pt x="1202" y="1455" on="1"/>
        <pt x="772" y="637" on="1"/>
        <pt x="772" y="92" on="1"/>
        <pt x="983" y="67" on="1"/>
        <pt x="983" y="0" on="1"/>
        <pt x="422" y="0" on="1"/>
      </contour>
    </TTGlyph>
    <TTGlyph name="Z" xMin="98" yMin="1" xMax="1290" yMax="1554">
      <contour>
        <pt x="988" y="1325" on="1"/>
        <pt x="1105" y="1470" on="1"/>
        <pt x="321" y="1452" on="1"/>
        <pt x="244" y="1228" on="1"/>
        <pt x="161" y="1241" on="1"/>
        <pt x="190" y="1554" on="1"/>
        <pt x="1246" y="1554" on="1"/>
        <pt x="1269" y="1487" on="1"/>
        <pt x="396" y="248" on="1"/>
        <pt x="269" y="85" on="1"/>
        <pt x="1096" y="115" on="1"/>
        <pt x="1211" y="367" on="1"/>
        <pt x="1290" y="349" on="1"/>
        <pt x="1218" y="1" on="1"/>
        <pt x="122" y="1" on="1"/>
        <pt x="98" y="70" on="1"/>
      </contour>
    </TTGlyph>
    <TTGlyph name="Zacute" xMin="98" yMin="1" xMax="1290" yMax="1920">
      <contour>
        <pt x="685" y="1651" on="1"/>
        <pt x="981" y="1920" on="1"/>
        <pt x="1088" y="1811" on="1"/>
        <pt x="1052" y="1783" on="0"/>
        <pt x="965" y="1726" on="0"/>
        <pt x="870" y="1673" on="0"/>
        <pt x="772" y="1626" on="0"/>
        <pt x="727" y="1608" on="1"/>
      </contour>
      <contour>
        <pt x="988" y="1325" on="1"/>
        <pt x="1105" y="1470" on="1"/>
        <pt x="321" y="1452" on="1"/>
        <pt x="244" y="1228" on="1"/>
        <pt x="161" y="1241" on="1"/>
        <pt x="190" y="1554" on="1"/>
        <pt x="1246" y="1554" on="1"/>
        <pt x="1269" y="1487" on="1"/>
        <pt x="396" y="248" on="1"/>
        <pt x="269" y="85" on="1"/>
        <pt x="1096" y="115" on="1"/>
        <pt x="1211" y="367" on="1"/>
        <pt x="1290" y="349" on="1"/>
        <pt x="1218" y="1" on="1"/>
        <pt x="122" y="1" on="1"/>
        <pt x="98" y="70" on="1"/>
      </contour>
    </TTGlyph>
    <TTGlyph name="Zcaron" xMin="98" yMin="1" xMax="1290" yMax="1920">
      <contour>
        <pt x="399" y="1879" on="1"/>
        <pt x="465" y="1920" on="1"/>
        <pt x="731" y="1736" on="1"/>
        <pt x="1001" y="1920" on="1"/>
        <pt x="1060" y="1881" on="1"/>
        <pt x="801" y="1631" on="1"/>
        <pt x="661" y="1631" on="1"/>
      </contour>
      <contour>
        <pt x="988" y="1325" on="1"/>
        <pt x="1105" y="1470" on="1"/>
        <pt x="321" y="1452" on="1"/>
        <pt x="244" y="1228" on="1"/>
        <pt x="161" y="1241" on="1"/>
        <pt x="190" y="1554" on="1"/>
        <pt x="1246" y="1554" on="1"/>
        <pt x="1269" y="1487" on="1"/>
        <pt x="396" y="248" on="1"/>
        <pt x="269" y="85" on="1"/>
        <pt x="1096" y="115" on="1"/>
        <pt x="1211" y="367" on="1"/>
        <pt x="1290" y="349" on="1"/>
        <pt x="1218" y="1" on="1"/>
        <pt x="122" y="1" on="1"/>
        <pt x="98" y="70" on="1"/>
      </contour>
    </TTGlyph>
    <TTGlyph name="Zdotaccent" xMin="98" yMin="1" xMax="1290" yMax="1897">
      <contour>
        <pt x="723" y="1690" on="1"/>
        <pt x="704" y="1690" on="0"/>
        <pt x="668" y="1703" on="0"/>
        <pt x="641" y="1728" on="0"/>
        <pt x="624" y="1763" on="0"/>
        <pt x="624" y="1785" on="1"/>
        <pt x="624" y="1809" on="0"/>
        <pt x="645" y="1850" on="0"/>
        <pt x="678" y="1880" on="0"/>
        <pt x="720" y="1897" on="0"/>
        <pt x="741" y="1897" on="1"/>
        <pt x="793" y="1897" on="0"/>
        <pt x="840" y="1840" on="0"/>
        <pt x="840" y="1802" on="1"/>
        <pt x="840" y="1777" on="0"/>
        <pt x="820" y="1736" on="0"/>
        <pt x="787" y="1706" on="0"/>
        <pt x="745" y="1690" on="0"/>
      </contour>
      <contour>
        <pt x="988" y="1325" on="1"/>
        <pt x="1105" y="1470" on="1"/>
        <pt x="321" y="1452" on="1"/>
        <pt x="244" y="1228" on="1"/>
        <pt x="161" y="1241" on="1"/>
        <pt x="190" y="1554" on="1"/>
        <pt x="1246" y="1554" on="1"/>
        <pt x="1269" y="1487" on="1"/>
        <pt x="396" y="248" on="1"/>
        <pt x="269" y="85" on="1"/>
        <pt x="1096" y="115" on="1"/>
        <pt x="1211" y="367" on="1"/>
        <pt x="1290" y="349" on="1"/>
        <pt x="1218" y="1" on="1"/>
        <pt x="122" y="1" on="1"/>
        <pt x="98" y="70" on="1"/>
      </contour>
    </TTGlyph>
    <TTGlyph name="a" xMin="106" yMin="-22" xMax="1075" yMax="1139">
      <contour>
        <pt x="111" y="312" on="1"/>
        <pt x="117" y="381" on="0"/>
        <pt x="189" y="487" on="0"/>
        <pt x="300" y="566" on="0"/>
        <pt x="441" y="619" on="0"/>
        <pt x="590" y="651" on="0"/>
        <pt x="737" y="665" on="0"/>
        <pt x="800" y="665" on="1"/>
        <pt x="800" y="753" on="1"/>
        <pt x="800" y="837" on="0"/>
        <pt x="759" y="947" on="0"/>
        <pt x="683" y="1011" on="0"/>
        <pt x="574" y="1037" on="0"/>
        <pt x="505" y="1037" on="1"/>
        <pt x="467" y="1037" on="0"/>
        <pt x="378" y="1022" on="0"/>
        <pt x="291" y="996" on="0"/>
        <pt x="211" y="964" on="0"/>
        <pt x="183" y="947" on="1"/>
        <pt x="154" y="1018" on="1"/>
        <pt x="191" y="1048" on="0"/>
        <pt x="299" y="1094" on="0"/>
        <pt x="412" y="1124" on="0"/>
        <pt x="518" y="1139" on="0"/>
        <pt x="555" y="1139" on="1"/>
        <pt x="634" y="1139" on="0"/>
        <pt x="776" y="1107" on="0"/>
        <pt x="883" y="1025" on="0"/>
        <pt x="945" y="883" on="0"/>
        <pt x="945" y="773" on="1"/>
        <pt x="943" y="71" on="1"/>
        <pt x="1075" y="71" on="1"/>
        <pt x="1075" y="16" on="1"/>
        <pt x="1046" y="2" on="0"/>
        <pt x="954" y="-17" on="0"/>
        <pt x="902" y="-17" on="1"/>
        <pt x="885" y="-17" on="0"/>
        <pt x="851" y="-12" on="0"/>
        <pt x="824" y="7" on="0"/>
        <pt x="808" y="46" on="0"/>
        <pt x="808" y="80" on="1"/>
        <pt x="808" y="120" on="1"/>
        <pt x="780" y="88" on="0"/>
        <pt x="711" y="36" on="0"/>
        <pt x="623" y="-1" on="0"/>
        <pt x="514" y="-22" on="0"/>
        <pt x="448" y="-22" on="1"/>
        <pt x="381" y="-22" on="0"/>
        <pt x="256" y="22" on="0"/>
        <pt x="160" y="106" on="0"/>
        <pt x="106" y="231" on="0"/>
      </contour>
      <contour>
        <pt x="258" y="310" on="1"/>
        <pt x="257" y="248" on="0"/>
        <pt x="295" y="159" on="0"/>
        <pt x="365" y="102" on="0"/>
        <pt x="462" y="75" on="0"/>
        <pt x="521" y="75" on="1"/>
        <pt x="575" y="75" on="0"/>
        <pt x="665" y="99" on="0"/>
        <pt x="735" y="133" on="0"/>
        <pt x="785" y="169" on="0"/>
        <pt x="799" y="181" on="1"/>
        <pt x="799" y="217" on="0"/>
        <pt x="799" y="312" on="0"/>
        <pt x="799" y="419" on="0"/>
        <pt x="800" y="531" on="0"/>
        <pt x="800" y="584" on="1"/>
        <pt x="746" y="584" on="0"/>
        <pt x="624" y="574" on="0"/>
        <pt x="503" y="549" on="0"/>
        <pt x="393" y="508" on="0"/>
        <pt x="309" y="447" on="0"/>
        <pt x="258" y="364" on="0"/>
      </contour>
    </TTGlyph>
    <TTGlyph name="aacute" xMin="106" yMin="-22" xMax="1075" yMax="1770">
      <contour>
        <pt x="450" y="1386" on="1"/>
        <pt x="763" y="1770" on="1"/>
        <pt x="869" y="1661" on="1"/>
        <pt x="846" y="1625" on="0"/>
        <pt x="756" y="1539" on="0"/>
        <pt x="650" y="1454" on="0"/>
        <pt x="538" y="1374" on="0"/>
        <pt x="493" y="1343" on="1"/>
      </contour>
      <contour>
        <pt x="111" y="312" on="1"/>
        <pt x="117" y="381" on="0"/>
        <pt x="189" y="487" on="0"/>
        <pt x="300" y="566" on="0"/>
        <pt x="441" y="619" on="0"/>
        <pt x="590" y="651" on="0"/>
        <pt x="737" y="665" on="0"/>
        <pt x="800" y="665" on="1"/>
        <pt x="800" y="753" on="1"/>
        <pt x="800" y="837" on="0"/>
        <pt x="759" y="947" on="0"/>
        <pt x="683" y="1011" on="0"/>
        <pt x="574" y="1037" on="0"/>
        <pt x="505" y="1037" on="1"/>
        <pt x="467" y="1037" on="0"/>
        <pt x="378" y="1022" on="0"/>
        <pt x="291" y="996" on="0"/>
        <pt x="211" y="964" on="0"/>
        <pt x="183" y="947" on="1"/>
        <pt x="154" y="1018" on="1"/>
        <pt x="191" y="1048" on="0"/>
        <pt x="299" y="1094" on="0"/>
        <pt x="412" y="1124" on="0"/>
        <pt x="518" y="1139" on="0"/>
        <pt x="555" y="1139" on="1"/>
        <pt x="634" y="1139" on="0"/>
        <pt x="776" y="1107" on="0"/>
        <pt x="883" y="1025" on="0"/>
        <pt x="945" y="883" on="0"/>
        <pt x="945" y="773" on="1"/>
        <pt x="943" y="71" on="1"/>
        <pt x="1075" y="71" on="1"/>
        <pt x="1075" y="16" on="1"/>
        <pt x="1046" y="2" on="0"/>
        <pt x="954" y="-17" on="0"/>
        <pt x="902" y="-17" on="1"/>
        <pt x="885" y="-17" on="0"/>
        <pt x="851" y="-12" on="0"/>
        <pt x="824" y="7" on="0"/>
        <pt x="808" y="46" on="0"/>
        <pt x="808" y="80" on="1"/>
        <pt x="808" y="120" on="1"/>
        <pt x="780" y="88" on="0"/>
        <pt x="711" y="36" on="0"/>
        <pt x="623" y="-1" on="0"/>
        <pt x="514" y="-22" on="0"/>
        <pt x="448" y="-22" on="1"/>
        <pt x="381" y="-22" on="0"/>
        <pt x="256" y="22" on="0"/>
        <pt x="160" y="106" on="0"/>
        <pt x="106" y="231" on="0"/>
      </contour>
      <contour>
        <pt x="258" y="310" on="1"/>
        <pt x="257" y="248" on="0"/>
        <pt x="295" y="159" on="0"/>
        <pt x="365" y="102" on="0"/>
        <pt x="462" y="75" on="0"/>
        <pt x="521" y="75" on="1"/>
        <pt x="575" y="75" on="0"/>
        <pt x="665" y="99" on="0"/>
        <pt x="735" y="133" on="0"/>
        <pt x="785" y="169" on="0"/>
        <pt x="799" y="181" on="1"/>
        <pt x="799" y="217" on="0"/>
        <pt x="799" y="312" on="0"/>
        <pt x="799" y="419" on="0"/>
        <pt x="800" y="531" on="0"/>
        <pt x="800" y="584" on="1"/>
        <pt x="746" y="584" on="0"/>
        <pt x="624" y="574" on="0"/>
        <pt x="503" y="549" on="0"/>
        <pt x="393" y="508" on="0"/>
        <pt x="309" y="447" on="0"/>
        <pt x="258" y="364" on="0"/>
      </contour>
    </TTGlyph>
    <TTGlyph name="acircumflex" xMin="106" yMin="-22" xMax="1075" yMax="1772">
      <contour>
        <pt x="217" y="1373" on="1"/>
        <pt x="498" y="1772" on="1"/>
        <pt x="640" y="1772" on="1"/>
        <pt x="913" y="1374" on="1"/>
        <pt x="846" y="1337" on="1"/>
        <pt x="569" y="1643" on="1"/>
        <pt x="278" y="1337" on="1"/>
      </contour>
      <contour>
        <pt x="111" y="312" on="1"/>
        <pt x="117" y="381" on="0"/>
        <pt x="189" y="487" on="0"/>
        <pt x="300" y="566" on="0"/>
        <pt x="441" y="619" on="0"/>
        <pt x="590" y="651" on="0"/>
        <pt x="737" y="665" on="0"/>
        <pt x="800" y="665" on="1"/>
        <pt x="800" y="753" on="1"/>
        <pt x="800" y="837" on="0"/>
        <pt x="759" y="947" on="0"/>
        <pt x="683" y="1011" on="0"/>
        <pt x="574" y="1037" on="0"/>
        <pt x="505" y="1037" on="1"/>
        <pt x="467" y="1037" on="0"/>
        <pt x="378" y="1022" on="0"/>
        <pt x="291" y="996" on="0"/>
        <pt x="211" y="964" on="0"/>
        <pt x="183" y="947" on="1"/>
        <pt x="154" y="1018" on="1"/>
        <pt x="191" y="1048" on="0"/>
        <pt x="299" y="1094" on="0"/>
        <pt x="412" y="1124" on="0"/>
        <pt x="518" y="1139" on="0"/>
        <pt x="555" y="1139" on="1"/>
        <pt x="634" y="1139" on="0"/>
        <pt x="776" y="1107" on="0"/>
        <pt x="883" y="1025" on="0"/>
        <pt x="945" y="883" on="0"/>
        <pt x="945" y="773" on="1"/>
        <pt x="943" y="71" on="1"/>
        <pt x="1075" y="71" on="1"/>
        <pt x="1075" y="16" on="1"/>
        <pt x="1046" y="2" on="0"/>
        <pt x="954" y="-17" on="0"/>
        <pt x="902" y="-17" on="1"/>
        <pt x="885" y="-17" on="0"/>
        <pt x="851" y="-12" on="0"/>
        <pt x="824" y="7" on="0"/>
        <pt x="808" y="46" on="0"/>
        <pt x="808" y="80" on="1"/>
        <pt x="808" y="120" on="1"/>
        <pt x="780" y="88" on="0"/>
        <pt x="711" y="36" on="0"/>
        <pt x="623" y="-1" on="0"/>
        <pt x="514" y="-22" on="0"/>
        <pt x="448" y="-22" on="1"/>
        <pt x="381" y="-22" on="0"/>
        <pt x="256" y="22" on="0"/>
        <pt x="160" y="106" on="0"/>
        <pt x="106" y="231" on="0"/>
      </contour>
      <contour>
        <pt x="258" y="310" on="1"/>
        <pt x="257" y="248" on="0"/>
        <pt x="295" y="159" on="0"/>
        <pt x="365" y="102" on="0"/>
        <pt x="462" y="75" on="0"/>
        <pt x="521" y="75" on="1"/>
        <pt x="575" y="75" on="0"/>
        <pt x="665" y="99" on="0"/>
        <pt x="735" y="133" on="0"/>
        <pt x="785" y="169" on="0"/>
        <pt x="799" y="181" on="1"/>
        <pt x="799" y="217" on="0"/>
        <pt x="799" y="312" on="0"/>
        <pt x="799" y="419" on="0"/>
        <pt x="800" y="531" on="0"/>
        <pt x="800" y="584" on="1"/>
        <pt x="746" y="584" on="0"/>
        <pt x="624" y="574" on="0"/>
        <pt x="503" y="549" on="0"/>
        <pt x="393" y="508" on="0"/>
        <pt x="309" y="447" on="0"/>
        <pt x="258" y="364" on="0"/>
      </contour>
    </TTGlyph>
    <TTGlyph name="acute" xMin="267" yMin="1343" xMax="686" yMax="1770">
      <contour>
        <pt x="267" y="1386" on="1"/>
        <pt x="580" y="1770" on="1"/>
        <pt x="686" y="1661" on="1"/>
        <pt x="663" y="1625" on="0"/>
        <pt x="573" y="1539" on="0"/>
        <pt x="467" y="1454" on="0"/>
        <pt x="355" y="1374" on="0"/>
        <pt x="310" y="1343" on="1"/>
      </contour>
    </TTGlyph>
    <TTGlyph name="acute.cap" xMin="465" yMin="1608" xMax="867" yMax="1920">
      <contour>
        <pt x="465" y="1651" on="1"/>
        <pt x="761" y="1920" on="1"/>
        <pt x="867" y="1811" on="1"/>
        <pt x="832" y="1783" on="0"/>
        <pt x="744" y="1726" on="0"/>
        <pt x="650" y="1673" on="0"/>
        <pt x="552" y="1626" on="0"/>
        <pt x="507" y="1608" on="1"/>
      </contour>
    </TTGlyph>
    <TTGlyph name="adieresis" xMin="106" yMin="-22" xMax="1075" yMax="1629">
      <contour>
        <pt x="783" y="1425" on="1"/>
        <pt x="764" y="1425" on="0"/>
        <pt x="728" y="1437" on="0"/>
        <pt x="701" y="1461" on="0"/>
        <pt x="685" y="1496" on="0"/>
        <pt x="685" y="1518" on="1"/>
        <pt x="685" y="1541" on="0"/>
        <pt x="705" y="1582" on="0"/>
        <pt x="738" y="1612" on="0"/>
        <pt x="780" y="1629" on="0"/>
        <pt x="801" y="1629" on="1"/>
        <pt x="853" y="1629" on="0"/>
        <pt x="901" y="1573" on="0"/>
        <pt x="901" y="1534" on="1"/>
        <pt x="901" y="1509" on="0"/>
        <pt x="881" y="1469" on="0"/>
        <pt x="848" y="1440" on="0"/>
        <pt x="805" y="1425" on="0"/>
      </contour>
      <contour>
        <pt x="328" y="1425" on="1"/>
        <pt x="309" y="1425" on="0"/>
        <pt x="274" y="1437" on="0"/>
        <pt x="247" y="1461" on="0"/>
        <pt x="231" y="1496" on="0"/>
        <pt x="231" y="1518" on="1"/>
        <pt x="231" y="1541" on="0"/>
        <pt x="251" y="1582" on="0"/>
        <pt x="284" y="1612" on="0"/>
        <pt x="326" y="1629" on="0"/>
        <pt x="347" y="1629" on="1"/>
        <pt x="398" y="1629" on="0"/>
        <pt x="446" y="1573" on="0"/>
        <pt x="446" y="1534" on="1"/>
        <pt x="446" y="1509" on="0"/>
        <pt x="426" y="1469" on="0"/>
        <pt x="393" y="1440" on="0"/>
        <pt x="350" y="1425" on="0"/>
      </contour>
      <contour>
        <pt x="111" y="312" on="1"/>
        <pt x="117" y="381" on="0"/>
        <pt x="189" y="487" on="0"/>
        <pt x="300" y="566" on="0"/>
        <pt x="441" y="619" on="0"/>
        <pt x="590" y="651" on="0"/>
        <pt x="737" y="665" on="0"/>
        <pt x="800" y="665" on="1"/>
        <pt x="800" y="753" on="1"/>
        <pt x="800" y="837" on="0"/>
        <pt x="759" y="947" on="0"/>
        <pt x="683" y="1011" on="0"/>
        <pt x="574" y="1037" on="0"/>
        <pt x="505" y="1037" on="1"/>
        <pt x="467" y="1037" on="0"/>
        <pt x="378" y="1022" on="0"/>
        <pt x="291" y="996" on="0"/>
        <pt x="211" y="964" on="0"/>
        <pt x="183" y="947" on="1"/>
        <pt x="154" y="1018" on="1"/>
        <pt x="191" y="1048" on="0"/>
        <pt x="299" y="1094" on="0"/>
        <pt x="412" y="1124" on="0"/>
        <pt x="518" y="1139" on="0"/>
        <pt x="555" y="1139" on="1"/>
        <pt x="634" y="1139" on="0"/>
        <pt x="776" y="1107" on="0"/>
        <pt x="883" y="1025" on="0"/>
        <pt x="945" y="883" on="0"/>
        <pt x="945" y="773" on="1"/>
        <pt x="943" y="71" on="1"/>
        <pt x="1075" y="71" on="1"/>
        <pt x="1075" y="16" on="1"/>
        <pt x="1046" y="2" on="0"/>
        <pt x="954" y="-17" on="0"/>
        <pt x="902" y="-17" on="1"/>
        <pt x="885" y="-17" on="0"/>
        <pt x="851" y="-12" on="0"/>
        <pt x="824" y="7" on="0"/>
        <pt x="808" y="46" on="0"/>
        <pt x="808" y="80" on="1"/>
        <pt x="808" y="120" on="1"/>
        <pt x="780" y="88" on="0"/>
        <pt x="711" y="36" on="0"/>
        <pt x="623" y="-1" on="0"/>
        <pt x="514" y="-22" on="0"/>
        <pt x="448" y="-22" on="1"/>
        <pt x="381" y="-22" on="0"/>
        <pt x="256" y="22" on="0"/>
        <pt x="160" y="106" on="0"/>
        <pt x="106" y="231" on="0"/>
      </contour>
      <contour>
        <pt x="258" y="310" on="1"/>
        <pt x="257" y="248" on="0"/>
        <pt x="295" y="159" on="0"/>
        <pt x="365" y="102" on="0"/>
        <pt x="462" y="75" on="0"/>
        <pt x="521" y="75" on="1"/>
        <pt x="575" y="75" on="0"/>
        <pt x="665" y="99" on="0"/>
        <pt x="735" y="133" on="0"/>
        <pt x="785" y="169" on="0"/>
        <pt x="799" y="181" on="1"/>
        <pt x="799" y="217" on="0"/>
        <pt x="799" y="312" on="0"/>
        <pt x="799" y="419" on="0"/>
        <pt x="800" y="531" on="0"/>
        <pt x="800" y="584" on="1"/>
        <pt x="746" y="584" on="0"/>
        <pt x="624" y="574" on="0"/>
        <pt x="503" y="549" on="0"/>
        <pt x="393" y="508" on="0"/>
        <pt x="309" y="447" on="0"/>
        <pt x="258" y="364" on="0"/>
      </contour>
    </TTGlyph>
    <TTGlyph name="ae" xMin="106" yMin="-25" xMax="1705" yMax="1153">
      <contour>
        <pt x="111" y="314" on="1"/>
        <pt x="116" y="385" on="0"/>
        <pt x="193" y="493" on="0"/>
        <pt x="310" y="571" on="0"/>
        <pt x="456" y="624" on="0"/>
        <pt x="604" y="654" on="0"/>
        <pt x="743" y="664" on="0"/>
        <pt x="795" y="662" on="1"/>
        <pt x="795" y="753" on="1"/>
        <pt x="795" y="839" on="0"/>
        <pt x="753" y="950" on="0"/>
        <pt x="678" y="1013" on="0"/>
        <pt x="574" y="1037" on="0"/>
        <pt x="511" y="1037" on="1"/>
        <pt x="475" y="1037" on="0"/>
        <pt x="388" y="1022" on="0"/>
        <pt x="300" y="997" on="0"/>
        <pt x="215" y="962" on="0"/>
        <pt x="181" y="942" on="1"/>
        <pt x="156" y="1018" on="1"/>
        <pt x="190" y="1045" on="0"/>
        <pt x="292" y="1089" on="0"/>
        <pt x="405" y="1121" on="0"/>
        <pt x="518" y="1139" on="0"/>
        <pt x="563" y="1139" on="1"/>
        <pt x="622" y="1139" on="0"/>
        <pt x="731" y="1121" on="0"/>
        <pt x="823" y="1071" on="0"/>
        <pt x="891" y="984" on="0"/>
        <pt x="908" y="915" on="1"/>
        <pt x="974" y="1026" on="0"/>
        <pt x="1187" y="1150" on="0"/>
        <pt x="1330" y="1152" on="1"/>
        <pt x="1413" y="1153" on="0"/>
        <pt x="1549" y="1099" on="0"/>
        <pt x="1646" y="993" on="0"/>
        <pt x="1700" y="836" on="0"/>
        <pt x="1703" y="736" on="1"/>
        <pt x="1705" y="685" on="0"/>
        <pt x="1697" y="606" on="0"/>
        <pt x="1693" y="574" on="1"/>
        <pt x="940" y="574" on="1"/>
        <pt x="937" y="446" on="0"/>
        <pt x="998" y="259" on="0"/>
        <pt x="1110" y="137" on="0"/>
        <pt x="1263" y="78" on="0"/>
        <pt x="1352" y="78" on="1"/>
        <pt x="1394" y="78" on="0"/>
        <pt x="1484" y="92" on="0"/>
        <pt x="1565" y="114" on="0"/>
        <pt x="1632" y="143" on="0"/>
        <pt x="1652" y="157" on="1"/>
        <pt x="1683" y="88" on="1"/>
        <pt x="1656" y="62" on="0"/>
        <pt x="1569" y="20" on="0"/>
        <pt x="1464" y="-9" on="0"/>
        <pt x="1351" y="-25" on="0"/>
        <pt x="1299" y="-25" on="1"/>
        <pt x="1142" y="-25" on="0"/>
        <pt x="934" y="103" on="0"/>
        <pt x="878" y="216" on="1"/>
        <pt x="856" y="162" on="0"/>
        <pt x="769" y="74" on="0"/>
        <pt x="653" y="12" on="0"/>
        <pt x="513" y="-22" on="0"/>
        <pt x="438" y="-22" on="1"/>
        <pt x="374" y="-22" on="0"/>
        <pt x="252" y="22" on="0"/>
        <pt x="159" y="108" on="0"/>
        <pt x="106" y="233" on="0"/>
      </contour>
      <contour>
        <pt x="1549" y="664" on="1"/>
        <pt x="1553" y="729" on="0"/>
        <pt x="1543" y="847" on="0"/>
        <pt x="1512" y="945" on="0"/>
        <pt x="1456" y="1019" on="0"/>
        <pt x="1414" y="1041" on="1"/>
        <pt x="1363" y="1069" on="0"/>
        <pt x="1292" y="1069" on="1"/>
        <pt x="1221" y="1069" on="0"/>
        <pt x="1101" y="1017" on="0"/>
        <pt x="1009" y="914" on="0"/>
        <pt x="950" y="763" on="0"/>
        <pt x="942" y="664" on="1"/>
      </contour>
      <contour>
        <pt x="257" y="311" on="1"/>
        <pt x="257" y="252" on="0"/>
        <pt x="293" y="163" on="0"/>
        <pt x="360" y="104" on="0"/>
        <pt x="454" y="75" on="0"/>
        <pt x="511" y="75" on="1"/>
        <pt x="562" y="75" on="0"/>
        <pt x="656" y="104" on="0"/>
        <pt x="731" y="157" on="0"/>
        <pt x="783" y="229" on="0"/>
        <pt x="794" y="272" on="1"/>
        <pt x="794" y="303" on="0"/>
        <pt x="794" y="385" on="0"/>
        <pt x="795" y="470" on="0"/>
        <pt x="795" y="552" on="0"/>
        <pt x="795" y="584" on="1"/>
        <pt x="751" y="585" on="0"/>
        <pt x="638" y="576" on="0"/>
        <pt x="518" y="553" on="0"/>
        <pt x="403" y="513" on="0"/>
        <pt x="312" y="452" on="0"/>
        <pt x="257" y="367" on="0"/>
      </contour>
    </TTGlyph>
    <TTGlyph name="agrave" xMin="106" yMin="-22" xMax="1075" yMax="1770">
      <contour>
        <pt x="667" y="1343" on="1"/>
        <pt x="622" y="1374" on="0"/>
        <pt x="511" y="1452" on="0"/>
        <pt x="405" y="1537" on="0"/>
        <pt x="316" y="1623" on="0"/>
        <pt x="291" y="1661" on="1"/>
        <pt x="397" y="1770" on="1"/>
        <pt x="710" y="1386" on="1"/>
      </contour>
      <contour>
        <pt x="111" y="312" on="1"/>
        <pt x="117" y="381" on="0"/>
        <pt x="189" y="487" on="0"/>
        <pt x="300" y="566" on="0"/>
        <pt x="441" y="619" on="0"/>
        <pt x="590" y="651" on="0"/>
        <pt x="737" y="665" on="0"/>
        <pt x="800" y="665" on="1"/>
        <pt x="800" y="753" on="1"/>
        <pt x="800" y="837" on="0"/>
        <pt x="759" y="947" on="0"/>
        <pt x="683" y="1011" on="0"/>
        <pt x="574" y="1037" on="0"/>
        <pt x="505" y="1037" on="1"/>
        <pt x="467" y="1037" on="0"/>
        <pt x="378" y="1022" on="0"/>
        <pt x="291" y="996" on="0"/>
        <pt x="211" y="964" on="0"/>
        <pt x="183" y="947" on="1"/>
        <pt x="154" y="1018" on="1"/>
        <pt x="191" y="1048" on="0"/>
        <pt x="299" y="1094" on="0"/>
        <pt x="412" y="1124" on="0"/>
        <pt x="518" y="1139" on="0"/>
        <pt x="555" y="1139" on="1"/>
        <pt x="634" y="1139" on="0"/>
        <pt x="776" y="1107" on="0"/>
        <pt x="883" y="1025" on="0"/>
        <pt x="945" y="883" on="0"/>
        <pt x="945" y="773" on="1"/>
        <pt x="943" y="71" on="1"/>
        <pt x="1075" y="71" on="1"/>
        <pt x="1075" y="16" on="1"/>
        <pt x="1046" y="2" on="0"/>
        <pt x="954" y="-17" on="0"/>
        <pt x="902" y="-17" on="1"/>
        <pt x="885" y="-17" on="0"/>
        <pt x="851" y="-12" on="0"/>
        <pt x="824" y="7" on="0"/>
        <pt x="808" y="46" on="0"/>
        <pt x="808" y="80" on="1"/>
        <pt x="808" y="120" on="1"/>
        <pt x="780" y="88" on="0"/>
        <pt x="711" y="36" on="0"/>
        <pt x="623" y="-1" on="0"/>
        <pt x="514" y="-22" on="0"/>
        <pt x="448" y="-22" on="1"/>
        <pt x="381" y="-22" on="0"/>
        <pt x="256" y="22" on="0"/>
        <pt x="160" y="106" on="0"/>
        <pt x="106" y="231" on="0"/>
      </contour>
      <contour>
        <pt x="258" y="310" on="1"/>
        <pt x="257" y="248" on="0"/>
        <pt x="295" y="159" on="0"/>
        <pt x="365" y="102" on="0"/>
        <pt x="462" y="75" on="0"/>
        <pt x="521" y="75" on="1"/>
        <pt x="575" y="75" on="0"/>
        <pt x="665" y="99" on="0"/>
        <pt x="735" y="133" on="0"/>
        <pt x="785" y="169" on="0"/>
        <pt x="799" y="181" on="1"/>
        <pt x="799" y="217" on="0"/>
        <pt x="799" y="312" on="0"/>
        <pt x="799" y="419" on="0"/>
        <pt x="800" y="531" on="0"/>
        <pt x="800" y="584" on="1"/>
        <pt x="746" y="584" on="0"/>
        <pt x="624" y="574" on="0"/>
        <pt x="503" y="549" on="0"/>
        <pt x="393" y="508" on="0"/>
        <pt x="309" y="447" on="0"/>
        <pt x="258" y="364" on="0"/>
      </contour>
    </TTGlyph>
    <TTGlyph name="ampersand" xMin="188" yMin="-32" xMax="1489" yMax="1559">
      <contour>
        <pt x="188" y="356" on="1"/>
        <pt x="188" y="437" on="0"/>
        <pt x="247" y="559" on="0"/>
        <pt x="342" y="654" on="0"/>
        <pt x="463" y="727" on="0"/>
        <pt x="525" y="758" on="1"/>
        <pt x="491" y="803" on="0"/>
        <pt x="421" y="899" on="0"/>
        <pt x="364" y="1004" on="0"/>
        <pt x="327" y="1117" on="0"/>
        <pt x="326" y="1177" on="1"/>
        <pt x="324" y="1268" on="0"/>
        <pt x="381" y="1410" on="0"/>
        <pt x="482" y="1508" on="0"/>
        <pt x="618" y="1559" on="0"/>
        <pt x="696" y="1559" on="1"/>
        <pt x="781" y="1559" on="0"/>
        <pt x="907" y="1508" on="0"/>
        <pt x="990" y="1421" on="0"/>
        <pt x="1031" y="1305" on="0"/>
        <pt x="1033" y="1240" on="1"/>
        <pt x="1034" y="1162" on="0"/>
        <pt x="980" y="1019" on="0"/>
        <pt x="887" y="896" on="0"/>
        <pt x="765" y="794" on="0"/>
        <pt x="698" y="756" on="1"/>
        <pt x="722" y="727" on="0"/>
        <pt x="787" y="650" on="0"/>
        <pt x="861" y="564" on="0"/>
        <pt x="941" y="475" on="0"/>
        <pt x="1017" y="393" on="0"/>
        <pt x="1085" y="322" on="0"/>
        <pt x="1111" y="298" on="1"/>
        <pt x="1156" y="257" on="1"/>
        <pt x="1185" y="311" on="0"/>
        <pt x="1206" y="431" on="0"/>
        <pt x="1206" y="491" on="1"/>
        <pt x="1206" y="543" on="0"/>
        <pt x="1195" y="628" on="0"/>
        <pt x="1180" y="691" on="0"/>
        <pt x="1164" y="730" on="0"/>
        <pt x="1159" y="738" on="1"/>
        <pt x="1299" y="738" on="1"/>
        <pt x="1311" y="706" on="0"/>
        <pt x="1337" y="599" on="0"/>
        <pt x="1337" y="521" on="1"/>
        <pt x="1337" y="438" on="0"/>
        <pt x="1290" y="261" on="0"/>
        <pt x="1236" y="189" on="1"/>
        <pt x="1272" y="161" on="0"/>
        <pt x="1335" y="121" on="0"/>
        <pt x="1395" y="95" on="0"/>
        <pt x="1456" y="83" on="0"/>
        <pt x="1489" y="82" on="1"/>
        <pt x="1489" y="15" on="1"/>
        <pt x="1460" y="4" on="0"/>
        <pt x="1395" y="1" on="0"/>
        <pt x="1356" y="6" on="1"/>
        <pt x="1307" y="11" on="0"/>
        <pt x="1200" y="62" on="0"/>
        <pt x="1144" y="101" on="1"/>
        <pt x="1105" y="67" on="0"/>
        <pt x="1005" y="17" on="0"/>
        <pt x="896" y="-16" on="0"/>
        <pt x="785" y="-32" on="0"/>
        <pt x="736" y="-32" on="1"/>
        <pt x="685" y="-32" on="0"/>
        <pt x="564" y="-19" on="0"/>
        <pt x="442" y="15" on="0"/>
        <pt x="328" y="71" on="0"/>
        <pt x="241" y="158" on="0"/>
        <pt x="188" y="277" on="0"/>
      </contour>
      <contour>
        <pt x="648" y="817" on="1"/>
        <pt x="772" y="879" on="0"/>
        <pt x="910" y="1083" on="0"/>
        <pt x="908" y="1217" on="1"/>
        <pt x="907" y="1259" on="0"/>
        <pt x="886" y="1351" on="0"/>
        <pt x="834" y="1429" on="0"/>
        <pt x="746" y="1480" on="0"/>
        <pt x="679" y="1480" on="1"/>
        <pt x="640" y="1480" on="0"/>
        <pt x="560" y="1452" on="0"/>
        <pt x="495" y="1391" on="0"/>
        <pt x="454" y="1295" on="0"/>
        <pt x="455" y="1227" on="1"/>
        <pt x="456" y="1154" on="0"/>
        <pt x="497" y="1031" on="0"/>
        <pt x="555" y="929" on="0"/>
        <pt x="621" y="848" on="0"/>
      </contour>
      <contour>
        <pt x="326" y="371" on="1"/>
        <pt x="326" y="296" on="0"/>
        <pt x="394" y="180" on="0"/>
        <pt x="509" y="101" on="0"/>
        <pt x="661" y="61" on="0"/>
        <pt x="744" y="61" on="1"/>
        <pt x="789" y="61" on="0"/>
        <pt x="881" y="70" on="0"/>
        <pt x="967" y="92" on="0"/>
        <pt x="1044" y="129" on="0"/>
        <pt x="1073" y="156" on="1"/>
        <pt x="1067" y="161" on="0"/>
        <pt x="1055" y="171" on="0"/>
        <pt x="1050" y="176" on="1"/>
        <pt x="1016" y="205" on="0"/>
        <pt x="934" y="285" on="0"/>
        <pt x="845" y="377" on="0"/>
        <pt x="755" y="476" on="0"/>
        <pt x="671" y="572" on="0"/>
        <pt x="598" y="660" on="0"/>
        <pt x="571" y="696" on="1"/>
        <pt x="508" y="663" on="0"/>
        <pt x="415" y="596" on="0"/>
        <pt x="355" y="520" on="0"/>
        <pt x="326" y="428" on="0"/>
      </contour>
    </TTGlyph>
    <TTGlyph name="aogonek" xMin="106" yMin="-520" xMax="1086" yMax="1139">
      <contour>
        <pt x="111" y="312" on="1"/>
        <pt x="117" y="381" on="0"/>
        <pt x="189" y="487" on="0"/>
        <pt x="300" y="566" on="0"/>
        <pt x="441" y="619" on="0"/>
        <pt x="590" y="651" on="0"/>
        <pt x="737" y="665" on="0"/>
        <pt x="800" y="665" on="1"/>
        <pt x="800" y="753" on="1"/>
        <pt x="800" y="837" on="0"/>
        <pt x="759" y="947" on="0"/>
        <pt x="683" y="1011" on="0"/>
        <pt x="574" y="1037" on="0"/>
        <pt x="505" y="1037" on="1"/>
        <pt x="467" y="1037" on="0"/>
        <pt x="378" y="1022" on="0"/>
        <pt x="291" y="996" on="0"/>
        <pt x="211" y="964" on="0"/>
        <pt x="183" y="947" on="1"/>
        <pt x="154" y="1018" on="1"/>
        <pt x="191" y="1048" on="0"/>
        <pt x="299" y="1094" on="0"/>
        <pt x="412" y="1124" on="0"/>
        <pt x="518" y="1139" on="0"/>
        <pt x="555" y="1139" on="1"/>
        <pt x="634" y="1139" on="0"/>
        <pt x="776" y="1107" on="0"/>
        <pt x="883" y="1025" on="0"/>
        <pt x="945" y="883" on="0"/>
        <pt x="945" y="773" on="1"/>
        <pt x="943" y="71" on="1"/>
        <pt x="1075" y="71" on="1"/>
        <pt x="1075" y="16" on="1"/>
        <pt x="1070" y="13" on="1"/>
        <pt x="1086" y="16" on="1"/>
        <pt x="1029" y="-5" on="0"/>
        <pt x="910" y="-64" on="0"/>
        <pt x="813" y="-139" on="0"/>
        <pt x="752" y="-228" on="0"/>
        <pt x="752" y="-279" on="1"/>
        <pt x="752" y="-323" on="0"/>
        <pt x="785" y="-381" on="0"/>
        <pt x="838" y="-414" on="0"/>
        <pt x="907" y="-423" on="0"/>
        <pt x="980" y="-415" on="0"/>
        <pt x="1050" y="-391" on="0"/>
        <pt x="1079" y="-374" on="1"/>
        <pt x="1079" y="-444" on="1"/>
        <pt x="1045" y="-471" on="0"/>
        <pt x="951" y="-507" on="0"/>
        <pt x="848" y="-520" on="0"/>
        <pt x="746" y="-506" on="0"/>
        <pt x="665" y="-460" on="0"/>
        <pt x="615" y="-379" on="0"/>
        <pt x="615" y="-317" on="1"/>
        <pt x="615" y="-262" on="0"/>
        <pt x="671" y="-166" on="0"/>
        <pt x="753" y="-88" on="0"/>
        <pt x="847" y="-31" on="0"/>
        <pt x="885" y="-16" on="1"/>
        <pt x="870" y="-15" on="0"/>
        <pt x="842" y="-8" on="0"/>
        <pt x="821" y="13" on="0"/>
        <pt x="808" y="50" on="0"/>
        <pt x="808" y="80" on="1"/>
        <pt x="808" y="120" on="1"/>
        <pt x="780" y="88" on="0"/>
        <pt x="711" y="36" on="0"/>
        <pt x="623" y="-1" on="0"/>
        <pt x="514" y="-22" on="0"/>
        <pt x="448" y="-22" on="1"/>
        <pt x="381" y="-22" on="0"/>
        <pt x="256" y="22" on="0"/>
        <pt x="160" y="106" on="0"/>
        <pt x="106" y="231" on="0"/>
      </contour>
      <contour>
        <pt x="258" y="310" on="1"/>
        <pt x="257" y="248" on="0"/>
        <pt x="295" y="159" on="0"/>
        <pt x="365" y="102" on="0"/>
        <pt x="462" y="75" on="0"/>
        <pt x="521" y="75" on="1"/>
        <pt x="575" y="75" on="0"/>
        <pt x="665" y="99" on="0"/>
        <pt x="735" y="133" on="0"/>
        <pt x="785" y="169" on="0"/>
        <pt x="799" y="181" on="1"/>
        <pt x="799" y="217" on="0"/>
        <pt x="799" y="312" on="0"/>
        <pt x="799" y="419" on="0"/>
        <pt x="800" y="531" on="0"/>
        <pt x="800" y="584" on="1"/>
        <pt x="746" y="584" on="0"/>
        <pt x="624" y="574" on="0"/>
        <pt x="503" y="549" on="0"/>
        <pt x="393" y="508" on="0"/>
        <pt x="309" y="447" on="0"/>
        <pt x="258" y="364" on="0"/>
      </contour>
    </TTGlyph>
    <TTGlyph name="approxequal" xMin="153" yMin="455" xMax="1115" yMax="1161">
      <contour>
        <pt x="153" y="980" on="1"/>
        <pt x="175" y="1014" on="0"/>
        <pt x="241" y="1080" on="0"/>
        <pt x="323" y="1130" on="0"/>
        <pt x="422" y="1161" on="0"/>
        <pt x="477" y="1161" on="1"/>
        <pt x="516" y="1161" on="0"/>
        <pt x="579" y="1134" on="0"/>
        <pt x="635" y="1093" on="0"/>
        <pt x="686" y="1045" on="0"/>
        <pt x="736" y="1004" on="0"/>
        <pt x="790" y="977" on="0"/>
        <pt x="821" y="977" on="1"/>
        <pt x="860" y="977" on="0"/>
        <pt x="925" y="999" on="0"/>
        <pt x="981" y="1033" on="0"/>
        <pt x="1026" y="1075" on="0"/>
        <pt x="1046" y="1095" on="1"/>
        <pt x="1101" y="1027" on="1"/>
        <pt x="1079" y="992" on="0"/>
        <pt x="1014" y="927" on="0"/>
        <pt x="932" y="876" on="0"/>
        <pt x="833" y="845" on="0"/>
        <pt x="778" y="845" on="1"/>
        <pt x="739" y="845" on="0"/>
        <pt x="676" y="872" on="0"/>
        <pt x="620" y="914" on="0"/>
        <pt x="570" y="961" on="0"/>
        <pt x="519" y="1003" on="0"/>
        <pt x="465" y="1030" on="0"/>
        <pt x="434" y="1030" on="1"/>
        <pt x="395" y="1030" on="0"/>
        <pt x="329" y="1008" on="0"/>
        <pt x="274" y="973" on="0"/>
        <pt x="228" y="931" on="0"/>
        <pt x="209" y="911" on="1"/>
      </contour>
      <contour>
        <pt x="167" y="590" on="1"/>
        <pt x="189" y="624" on="0"/>
        <pt x="255" y="690" on="0"/>
        <pt x="337" y="740" on="0"/>
        <pt x="436" y="771" on="0"/>
        <pt x="491" y="771" on="1"/>
        <pt x="529" y="771" on="0"/>
        <pt x="593" y="744" on="0"/>
        <pt x="649" y="703" on="0"/>
        <pt x="700" y="655" on="0"/>
        <pt x="750" y="614" on="0"/>
        <pt x="804" y="587" on="0"/>
        <pt x="835" y="587" on="1"/>
        <pt x="874" y="587" on="0"/>
        <pt x="939" y="609" on="0"/>
        <pt x="995" y="643" on="0"/>
        <pt x="1040" y="685" on="0"/>
        <pt x="1060" y="705" on="1"/>
        <pt x="1115" y="637" on="1"/>
        <pt x="1093" y="602" on="0"/>
        <pt x="1028" y="537" on="0"/>
        <pt x="946" y="486" on="0"/>
        <pt x="847" y="455" on="0"/>
        <pt x="792" y="455" on="1"/>
        <pt x="753" y="455" on="0"/>
        <pt x="690" y="482" on="0"/>
        <pt x="634" y="524" on="0"/>
        <pt x="584" y="571" on="0"/>
        <pt x="533" y="613" on="0"/>
        <pt x="479" y="640" on="0"/>
        <pt x="448" y="640" on="1"/>
        <pt x="409" y="640" on="0"/>
        <pt x="343" y="618" on="0"/>
        <pt x="288" y="583" on="0"/>
        <pt x="242" y="541" on="0"/>
        <pt x="223" y="521" on="1"/>
      </contour>
    </TTGlyph>
    <TTGlyph name="aring" xMin="106" yMin="-22" xMax="1075" yMax="1792">
      <contour>
        <pt x="547" y="1320" on="1"/>
        <pt x="496" y="1320" on="0"/>
        <pt x="407" y="1357" on="0"/>
        <pt x="340" y="1421" on="0"/>
        <pt x="301" y="1507" on="0"/>
        <pt x="301" y="1556" on="1"/>
        <pt x="301" y="1605" on="0"/>
        <pt x="340" y="1691" on="0"/>
        <pt x="407" y="1755" on="0"/>
        <pt x="496" y="1792" on="0"/>
        <pt x="547" y="1792" on="1"/>
        <pt x="598" y="1792" on="0"/>
        <pt x="687" y="1755" on="0"/>
        <pt x="753" y="1691" on="0"/>
        <pt x="792" y="1605" on="0"/>
        <pt x="792" y="1556" on="1"/>
        <pt x="792" y="1507" on="0"/>
        <pt x="753" y="1421" on="0"/>
        <pt x="687" y="1357" on="0"/>
        <pt x="598" y="1320" on="0"/>
      </contour>
      <contour>
        <pt x="546" y="1403" on="1"/>
        <pt x="577" y="1403" on="0"/>
        <pt x="633" y="1426" on="0"/>
        <pt x="675" y="1466" on="0"/>
        <pt x="699" y="1522" on="0"/>
        <pt x="699" y="1555" on="1"/>
        <pt x="699" y="1587" on="0"/>
        <pt x="675" y="1642" on="0"/>
        <pt x="633" y="1682" on="0"/>
        <pt x="577" y="1705" on="0"/>
        <pt x="546" y="1705" on="1"/>
        <pt x="515" y="1705" on="0"/>
        <pt x="460" y="1682" on="0"/>
        <pt x="418" y="1642" on="0"/>
        <pt x="394" y="1587" on="0"/>
        <pt x="394" y="1555" on="1"/>
        <pt x="394" y="1522" on="0"/>
        <pt x="418" y="1466" on="0"/>
        <pt x="460" y="1426" on="0"/>
        <pt x="515" y="1403" on="0"/>
      </contour>
      <contour>
        <pt x="111" y="312" on="1"/>
        <pt x="117" y="381" on="0"/>
        <pt x="189" y="487" on="0"/>
        <pt x="300" y="566" on="0"/>
        <pt x="441" y="619" on="0"/>
        <pt x="590" y="651" on="0"/>
        <pt x="737" y="665" on="0"/>
        <pt x="800" y="665" on="1"/>
        <pt x="800" y="753" on="1"/>
        <pt x="800" y="837" on="0"/>
        <pt x="759" y="947" on="0"/>
        <pt x="683" y="1011" on="0"/>
        <pt x="574" y="1037" on="0"/>
        <pt x="505" y="1037" on="1"/>
        <pt x="467" y="1037" on="0"/>
        <pt x="378" y="1022" on="0"/>
        <pt x="291" y="996" on="0"/>
        <pt x="211" y="964" on="0"/>
        <pt x="183" y="947" on="1"/>
        <pt x="154" y="1018" on="1"/>
        <pt x="191" y="1048" on="0"/>
        <pt x="299" y="1094" on="0"/>
        <pt x="412" y="1124" on="0"/>
        <pt x="518" y="1139" on="0"/>
        <pt x="555" y="1139" on="1"/>
        <pt x="634" y="1139" on="0"/>
        <pt x="776" y="1107" on="0"/>
        <pt x="883" y="1025" on="0"/>
        <pt x="945" y="883" on="0"/>
        <pt x="945" y="773" on="1"/>
        <pt x="943" y="71" on="1"/>
        <pt x="1075" y="71" on="1"/>
        <pt x="1075" y="16" on="1"/>
        <pt x="1046" y="2" on="0"/>
        <pt x="954" y="-17" on="0"/>
        <pt x="902" y="-17" on="1"/>
        <pt x="885" y="-17" on="0"/>
        <pt x="851" y="-12" on="0"/>
        <pt x="824" y="7" on="0"/>
        <pt x="808" y="46" on="0"/>
        <pt x="808" y="80" on="1"/>
        <pt x="808" y="120" on="1"/>
        <pt x="780" y="88" on="0"/>
        <pt x="711" y="36" on="0"/>
        <pt x="623" y="-1" on="0"/>
        <pt x="514" y="-22" on="0"/>
        <pt x="448" y="-22" on="1"/>
        <pt x="381" y="-22" on="0"/>
        <pt x="256" y="22" on="0"/>
        <pt x="160" y="106" on="0"/>
        <pt x="106" y="231" on="0"/>
      </contour>
      <contour>
        <pt x="258" y="310" on="1"/>
        <pt x="257" y="248" on="0"/>
        <pt x="295" y="159" on="0"/>
        <pt x="365" y="102" on="0"/>
        <pt x="462" y="75" on="0"/>
        <pt x="521" y="75" on="1"/>
        <pt x="575" y="75" on="0"/>
        <pt x="665" y="99" on="0"/>
        <pt x="735" y="133" on="0"/>
        <pt x="785" y="169" on="0"/>
        <pt x="799" y="181" on="1"/>
        <pt x="799" y="217" on="0"/>
        <pt x="799" y="312" on="0"/>
        <pt x="799" y="419" on="0"/>
        <pt x="800" y="531" on="0"/>
        <pt x="800" y="584" on="1"/>
        <pt x="746" y="584" on="0"/>
        <pt x="624" y="574" on="0"/>
        <pt x="503" y="549" on="0"/>
        <pt x="393" y="508" on="0"/>
        <pt x="309" y="447" on="0"/>
        <pt x="258" y="364" on="0"/>
      </contour>
    </TTGlyph>
    <TTGlyph name="asciicircum" xMin="172" yMin="563" xMax="1117" yMax="1531">
      <contour>
        <pt x="568" y="1531" on="1"/>
        <pt x="717" y="1531" on="1"/>
        <pt x="1117" y="564" on="1"/>
        <pt x="1087" y="564" on="0"/>
        <pt x="1010" y="563" on="0"/>
        <pt x="981" y="563" on="1"/>
        <pt x="636" y="1379" on="1"/>
        <pt x="293" y="563" on="1"/>
        <pt x="267" y="563" on="0"/>
        <pt x="198" y="564" on="0"/>
        <pt x="172" y="564" on="1"/>
      </contour>
    </TTGlyph>
    <TTGlyph name="asciitilde" xMin="153" yMin="730" xMax="1101" yMax="1046">
      <contour>
        <pt x="153" y="865" on="1"/>
        <pt x="175" y="899" on="0"/>
        <pt x="240" y="965" on="0"/>
        <pt x="322" y="1015" on="0"/>
        <pt x="421" y="1046" on="0"/>
        <pt x="476" y="1046" on="1"/>
        <pt x="515" y="1046" on="0"/>
        <pt x="579" y="1019" on="0"/>
        <pt x="634" y="978" on="0"/>
        <pt x="685" y="930" on="0"/>
        <pt x="735" y="889" on="0"/>
        <pt x="789" y="862" on="0"/>
        <pt x="820" y="862" on="1"/>
        <pt x="859" y="862" on="0"/>
        <pt x="924" y="884" on="0"/>
        <pt x="980" y="918" on="0"/>
        <pt x="1025" y="960" on="0"/>
        <pt x="1045" y="980" on="1"/>
        <pt x="1101" y="912" on="1"/>
        <pt x="1079" y="877" on="0"/>
        <pt x="1013" y="812" on="0"/>
        <pt x="931" y="761" on="0"/>
        <pt x="832" y="730" on="0"/>
        <pt x="777" y="730" on="1"/>
        <pt x="739" y="730" on="0"/>
        <pt x="675" y="757" on="0"/>
        <pt x="619" y="799" on="0"/>
        <pt x="569" y="846" on="0"/>
        <pt x="518" y="888" on="0"/>
        <pt x="464" y="915" on="0"/>
        <pt x="433" y="915" on="1"/>
        <pt x="394" y="915" on="0"/>
        <pt x="328" y="893" on="0"/>
        <pt x="274" y="858" on="0"/>
        <pt x="228" y="816" on="0"/>
        <pt x="208" y="796" on="1"/>
      </contour>
    </TTGlyph>
    <TTGlyph name="asterisk" xMin="164" yMin="768" xMax="1131" yMax="1786">
      <contour>
        <pt x="597" y="1132" on="1"/>
        <pt x="616" y="1239" on="1"/>
        <pt x="546" y="1175" on="1"/>
        <pt x="240" y="945" on="1"/>
        <pt x="164" y="1052" on="1"/>
        <pt x="505" y="1241" on="1"/>
        <pt x="594" y="1278" on="1"/>
        <pt x="504" y="1316" on="1"/>
        <pt x="164" y="1501" on="1"/>
        <pt x="237" y="1609" on="1"/>
        <pt x="541" y="1384" on="1"/>
        <pt x="616" y="1317" on="1"/>
        <pt x="597" y="1434" on="1"/>
        <pt x="573" y="1786" on="1"/>
        <pt x="605" y="1786" on="0"/>
        <pt x="680" y="1785" on="0"/>
        <pt x="711" y="1785" on="1"/>
        <pt x="687" y="1434" on="1"/>
        <pt x="664" y="1317" on="1"/>
        <pt x="757" y="1395" on="1"/>
        <pt x="1046" y="1608" on="1"/>
        <pt x="1130" y="1501" on="1"/>
        <pt x="788" y="1322" on="1"/>
        <pt x="685" y="1278" on="1"/>
        <pt x="786" y="1237" on="1"/>
        <pt x="1131" y="1050" on="1"/>
        <pt x="1045" y="947" on="1"/>
        <pt x="745" y="1172" on="1"/>
        <pt x="665" y="1239" on="1"/>
        <pt x="685" y="1132" on="1"/>
        <pt x="711" y="768" on="1"/>
        <pt x="573" y="768" on="1"/>
      </contour>
    </TTGlyph>
    <TTGlyph name="at" xMin="236" yMin="-378" xMax="1901" yMax="1438">
      <contour>
        <pt x="236" y="414" on="1"/>
        <pt x="236" y="570" on="0"/>
        <pt x="309" y="843" on="0"/>
        <pt x="440" y="1071" on="0"/>
        <pt x="621" y="1250" on="0"/>
        <pt x="839" y="1373" on="0"/>
        <pt x="1085" y="1438" on="0"/>
        <pt x="1215" y="1438" on="1"/>
        <pt x="1359" y="1438" on="0"/>
        <pt x="1609" y="1353" on="0"/>
        <pt x="1794" y="1191" on="0"/>
        <pt x="1901" y="959" on="0"/>
        <pt x="1901" y="812" on="1"/>
        <pt x="1901" y="675" on="0"/>
        <pt x="1852" y="453" on="0"/>
        <pt x="1768" y="281" on="0"/>
        <pt x="1658" y="157" on="0"/>
        <pt x="1538" y="76" on="0"/>
        <pt x="1414" y="38" on="0"/>
        <pt x="1359" y="38" on="1"/>
        <pt x="1316" y="38" on="0"/>
        <pt x="1268" y="143" on="0"/>
        <pt x="1268" y="245" on="1"/>
        <pt x="1270" y="303" on="0"/>
        <pt x="1294" y="471" on="0"/>
        <pt x="1311" y="574" on="1"/>
        <pt x="1276" y="472" on="0"/>
        <pt x="1179" y="275" on="0"/>
        <pt x="1064" y="120" on="0"/>
        <pt x="937" y="25" on="0"/>
        <pt x="871" y="25" on="1"/>
        <pt x="825" y="25" on="0"/>
        <pt x="734" y="80" on="0"/>
        <pt x="662" y="185" on="0"/>
        <pt x="617" y="335" on="0"/>
        <pt x="617" y="430" on="1"/>
        <pt x="617" y="494" on="0"/>
        <pt x="644" y="637" on="0"/>
        <pt x="697" y="775" on="0"/>
        <pt x="775" y="901" on="0"/>
        <pt x="877" y="997" on="0"/>
        <pt x="1000" y="1054" on="0"/>
        <pt x="1073" y="1054" on="1"/>
        <pt x="1108" y="1054" on="0"/>
        <pt x="1187" y="1044" on="0"/>
        <pt x="1265" y="1027" on="0"/>
        <pt x="1336" y="1003" on="0"/>
        <pt x="1362" y="989" on="1"/>
        <pt x="1370" y="1014" on="0"/>
        <pt x="1388" y="1042" on="0"/>
        <pt x="1404" y="1038" on="1"/>
        <pt x="1492" y="1009" on="1"/>
        <pt x="1479" y="956" on="0"/>
        <pt x="1452" y="802" on="0"/>
        <pt x="1428" y="632" on="0"/>
        <pt x="1407" y="460" on="0"/>
        <pt x="1399" y="389" on="1"/>
        <pt x="1393" y="336" on="0"/>
        <pt x="1390" y="242" on="0"/>
        <pt x="1396" y="172" on="0"/>
        <pt x="1410" y="131" on="0"/>
        <pt x="1422" y="131" on="1"/>
        <pt x="1458" y="131" on="0"/>
        <pt x="1541" y="172" on="0"/>
        <pt x="1623" y="249" on="0"/>
        <pt x="1699" y="360" on="0"/>
        <pt x="1757" y="499" on="0"/>
        <pt x="1792" y="663" on="0"/>
        <pt x="1792" y="755" on="1"/>
        <pt x="1792" y="859" on="0"/>
        <pt x="1744" y="1027" on="0"/>
        <pt x="1659" y="1157" on="0"/>
        <pt x="1540" y="1250" on="0"/>
        <pt x="1399" y="1311" on="0"/>
        <pt x="1239" y="1339" on="0"/>
        <pt x="1155" y="1339" on="1"/>
        <pt x="1049" y="1339" on="0"/>
        <pt x="847" y="1287" on="0"/>
        <pt x="668" y="1185" on="0"/>
        <pt x="518" y="1034" on="0"/>
        <pt x="410" y="839" on="0"/>
        <pt x="349" y="600" on="0"/>
        <pt x="349" y="460" on="1"/>
        <pt x="349" y="327" on="0"/>
        <pt x="405" y="115" on="0"/>
        <pt x="504" y="-48" on="0"/>
        <pt x="641" y="-164" on="0"/>
        <pt x="803" y="-239" on="0"/>
        <pt x="985" y="-274" on="0"/>
        <pt x="1079" y="-274" on="1"/>
        <pt x="1135" y="-274" on="0"/>
        <pt x="1247" y="-260" on="0"/>
        <pt x="1346" y="-238" on="0"/>
        <pt x="1427" y="-209" on="0"/>
        <pt x="1454" y="-195" on="1"/>
        <pt x="1482" y="-260" on="1"/>
        <pt x="1449" y="-286" on="0"/>
        <pt x="1346" y="-330" on="0"/>
        <pt x="1223" y="-361" on="0"/>
        <pt x="1088" y="-378" on="0"/>
        <pt x="1024" y="-378" on="1"/>
        <pt x="853" y="-378" on="0"/>
        <pt x="564" y="-267" on="0"/>
        <pt x="354" y="-60" on="0"/>
        <pt x="236" y="232" on="0"/>
      </contour>
      <contour>
        <pt x="738" y="486" on="1"/>
        <pt x="738" y="432" on="0"/>
        <pt x="756" y="314" on="0"/>
        <pt x="795" y="215" on="0"/>
        <pt x="856" y="151" on="0"/>
        <pt x="900" y="151" on="1"/>
        <pt x="939" y="151" on="0"/>
        <pt x="1026" y="219" on="0"/>
        <pt x="1114" y="332" on="0"/>
        <pt x="1197" y="480" on="0"/>
        <pt x="1267" y="639" on="0"/>
        <pt x="1319" y="799" on="0"/>
        <pt x="1331" y="868" on="1"/>
        <pt x="1314" y="883" on="0"/>
        <pt x="1252" y="910" on="0"/>
        <pt x="1178" y="931" on="0"/>
        <pt x="1103" y="943" on="0"/>
        <pt x="1072" y="943" on="1"/>
        <pt x="986" y="943" on="0"/>
        <pt x="861" y="863" on="0"/>
        <pt x="778" y="733" on="0"/>
        <pt x="738" y="570" on="0"/>
      </contour>
    </TTGlyph>
    <TTGlyph name="atilde" xMin="106" yMin="-22" xMax="1075" yMax="1662">
      <contour>
        <pt x="172" y="1498" on="1"/>
        <pt x="191" y="1531" on="0"/>
        <pt x="249" y="1590" on="0"/>
        <pt x="319" y="1635" on="0"/>
        <pt x="397" y="1662" on="0"/>
        <pt x="437" y="1662" on="1"/>
        <pt x="485" y="1662" on="0"/>
        <pt x="556" y="1615" on="0"/>
        <pt x="617" y="1558" on="0"/>
        <pt x="677" y="1511" on="0"/>
        <pt x="715" y="1511" on="1"/>
        <pt x="746" y="1511" on="0"/>
        <pt x="801" y="1530" on="0"/>
        <pt x="849" y="1561" on="0"/>
        <pt x="890" y="1599" on="0"/>
        <pt x="907" y="1618" on="1"/>
        <pt x="948" y="1559" on="1"/>
        <pt x="929" y="1526" on="0"/>
        <pt x="872" y="1467" on="0"/>
        <pt x="803" y="1421" on="0"/>
        <pt x="725" y="1394" on="0"/>
        <pt x="685" y="1394" on="1"/>
        <pt x="653" y="1394" on="0"/>
        <pt x="601" y="1417" on="0"/>
        <pt x="556" y="1450" on="0"/>
        <pt x="516" y="1490" on="0"/>
        <pt x="475" y="1523" on="0"/>
        <pt x="432" y="1546" on="0"/>
        <pt x="406" y="1546" on="1"/>
        <pt x="374" y="1546" on="0"/>
        <pt x="319" y="1527" on="0"/>
        <pt x="271" y="1496" on="0"/>
        <pt x="231" y="1458" on="0"/>
        <pt x="214" y="1439" on="1"/>
      </contour>
      <contour>
        <pt x="111" y="312" on="1"/>
        <pt x="117" y="381" on="0"/>
        <pt x="189" y="487" on="0"/>
        <pt x="300" y="566" on="0"/>
        <pt x="441" y="619" on="0"/>
        <pt x="590" y="651" on="0"/>
        <pt x="737" y="665" on="0"/>
        <pt x="800" y="665" on="1"/>
        <pt x="800" y="753" on="1"/>
        <pt x="800" y="837" on="0"/>
        <pt x="759" y="947" on="0"/>
        <pt x="683" y="1011" on="0"/>
        <pt x="574" y="1037" on="0"/>
        <pt x="505" y="1037" on="1"/>
        <pt x="467" y="1037" on="0"/>
        <pt x="378" y="1022" on="0"/>
        <pt x="291" y="996" on="0"/>
        <pt x="211" y="964" on="0"/>
        <pt x="183" y="947" on="1"/>
        <pt x="154" y="1018" on="1"/>
        <pt x="191" y="1048" on="0"/>
        <pt x="299" y="1094" on="0"/>
        <pt x="412" y="1124" on="0"/>
        <pt x="518" y="1139" on="0"/>
        <pt x="555" y="1139" on="1"/>
        <pt x="634" y="1139" on="0"/>
        <pt x="776" y="1107" on="0"/>
        <pt x="883" y="1025" on="0"/>
        <pt x="945" y="883" on="0"/>
        <pt x="945" y="773" on="1"/>
        <pt x="943" y="71" on="1"/>
        <pt x="1075" y="71" on="1"/>
        <pt x="1075" y="16" on="1"/>
        <pt x="1046" y="2" on="0"/>
        <pt x="954" y="-17" on="0"/>
        <pt x="902" y="-17" on="1"/>
        <pt x="885" y="-17" on="0"/>
        <pt x="851" y="-12" on="0"/>
        <pt x="824" y="7" on="0"/>
        <pt x="808" y="46" on="0"/>
        <pt x="808" y="80" on="1"/>
        <pt x="808" y="120" on="1"/>
        <pt x="780" y="88" on="0"/>
        <pt x="711" y="36" on="0"/>
        <pt x="623" y="-1" on="0"/>
        <pt x="514" y="-22" on="0"/>
        <pt x="448" y="-22" on="1"/>
        <pt x="381" y="-22" on="0"/>
        <pt x="256" y="22" on="0"/>
        <pt x="160" y="106" on="0"/>
        <pt x="106" y="231" on="0"/>
      </contour>
      <contour>
        <pt x="258" y="310" on="1"/>
        <pt x="257" y="248" on="0"/>
        <pt x="295" y="159" on="0"/>
        <pt x="365" y="102" on="0"/>
        <pt x="462" y="75" on="0"/>
        <pt x="521" y="75" on="1"/>
        <pt x="575" y="75" on="0"/>
        <pt x="665" y="99" on="0"/>
        <pt x="735" y="133" on="0"/>
        <pt x="785" y="169" on="0"/>
        <pt x="799" y="181" on="1"/>
        <pt x="799" y="217" on="0"/>
        <pt x="799" y="312" on="0"/>
        <pt x="799" y="419" on="0"/>
        <pt x="800" y="531" on="0"/>
        <pt x="800" y="584" on="1"/>
        <pt x="746" y="584" on="0"/>
        <pt x="624" y="574" on="0"/>
        <pt x="503" y="549" on="0"/>
        <pt x="393" y="508" on="0"/>
        <pt x="309" y="447" on="0"/>
        <pt x="258" y="364" on="0"/>
      </contour>
    </TTGlyph>
    <TTGlyph name="b" xMin="44" yMin="-28" xMax="1158" yMax="1623">
      <contour>
        <pt x="215" y="1500" on="1"/>
        <pt x="44" y="1525" on="1"/>
        <pt x="44" y="1593" on="1"/>
        <pt x="324" y="1623" on="1"/>
        <pt x="359" y="1606" on="1"/>
        <pt x="359" y="1020" on="1"/>
        <pt x="389" y="1044" on="0"/>
        <pt x="463" y="1091" on="0"/>
        <pt x="551" y="1129" on="0"/>
        <pt x="654" y="1153" on="0"/>
        <pt x="712" y="1153" on="1"/>
        <pt x="797" y="1153" on="0"/>
        <pt x="958" y="1094" on="0"/>
        <pt x="1082" y="963" on="0"/>
        <pt x="1158" y="755" on="0"/>
        <pt x="1158" y="605" on="1"/>
        <pt x="1158" y="473" on="0"/>
        <pt x="1076" y="243" on="0"/>
        <pt x="927" y="71" on="0"/>
        <pt x="718" y="-28" on="0"/>
        <pt x="592" y="-28" on="1"/>
        <pt x="521" y="-28" on="0"/>
        <pt x="394" y="-12" on="0"/>
        <pt x="293" y="12" on="0"/>
        <pt x="225" y="39" on="0"/>
        <pt x="215" y="50" on="1"/>
      </contour>
      <contour>
        <pt x="359" y="134" on="1"/>
        <pt x="367" y="113" on="0"/>
        <pt x="415" y="83" on="0"/>
        <pt x="484" y="64" on="0"/>
        <pt x="567" y="55" on="0"/>
        <pt x="610" y="55" on="1"/>
        <pt x="686" y="55" on="0"/>
        <pt x="831" y="118" on="0"/>
        <pt x="943" y="246" on="0"/>
        <pt x="1013" y="439" on="0"/>
        <pt x="1014" y="570" on="1"/>
        <pt x="1015" y="702" on="0"/>
        <pt x="956" y="884" on="0"/>
        <pt x="855" y="996" on="0"/>
        <pt x="724" y="1046" on="0"/>
        <pt x="654" y="1046" on="1"/>
        <pt x="611" y="1046" on="0"/>
        <pt x="526" y="1029" on="0"/>
        <pt x="449" y="1000" on="0"/>
        <pt x="383" y="960" on="0"/>
        <pt x="359" y="937" on="1"/>
      </contour>
    </TTGlyph>
    <TTGlyph name="backslash" xMin="30" yMin="-363" xMax="719" yMax="1599">
      <contour>
        <pt x="30" y="1599" on="1"/>
        <pt x="167" y="1599" on="1"/>
        <pt x="719" y="-363" on="1"/>
        <pt x="582" y="-363" on="1"/>
      </contour>
    </TTGlyph>
    <TTGlyph name="bar" xMin="358" yMin="-186" xMax="489" yMax="1780">
      <contour>
        <pt x="358" y="1780" on="1"/>
        <pt x="489" y="1780" on="1"/>
        <pt x="489" y="-186" on="1"/>
        <pt x="358" y="-186" on="1"/>
      </contour>
    </TTGlyph>
    <TTGlyph name="braceleft" xMin="90" yMin="-178" xMax="763" yMax="1710">
      <contour>
        <pt x="347" y="576" on="1"/>
        <pt x="347" y="595" on="0"/>
        <pt x="292" y="641" on="0"/>
        <pt x="212" y="684" on="0"/>
        <pt x="124" y="720" on="0"/>
        <pt x="90" y="729" on="1"/>
        <pt x="90" y="826" on="1"/>
        <pt x="123" y="835" on="0"/>
        <pt x="212" y="866" on="0"/>
        <pt x="291" y="904" on="0"/>
        <pt x="347" y="946" on="0"/>
        <pt x="347" y="966" on="1"/>
        <pt x="347" y="1490" on="1"/>
        <pt x="347" y="1558" on="0"/>
        <pt x="359" y="1644" on="0"/>
        <pt x="395" y="1692" on="0"/>
        <pt x="459" y="1710" on="0"/>
        <pt x="512" y="1710" on="1"/>
        <pt x="553" y="1710" on="0"/>
        <pt x="619" y="1704" on="0"/>
        <pt x="678" y="1694" on="0"/>
        <pt x="733" y="1682" on="0"/>
        <pt x="763" y="1676" on="1"/>
        <pt x="763" y="1661" on="0"/>
        <pt x="762" y="1624" on="0"/>
        <pt x="762" y="1609" on="1"/>
        <pt x="471" y="1609" on="1"/>
        <pt x="471" y="969" on="1"/>
        <pt x="471" y="929" on="0"/>
        <pt x="427" y="876" on="0"/>
        <pt x="392" y="854" on="1"/>
        <pt x="353" y="831" on="0"/>
        <pt x="279" y="796" on="0"/>
        <pt x="235" y="776" on="1"/>
        <pt x="283" y="753" on="0"/>
        <pt x="366" y="710" on="0"/>
        <pt x="406" y="681" on="1"/>
        <pt x="435" y="658" on="0"/>
        <pt x="471" y="606" on="0"/>
        <pt x="471" y="573" on="1"/>
        <pt x="471" y="-75" on="1"/>
        <pt x="762" y="-75" on="1"/>
        <pt x="762" y="-90" on="0"/>
        <pt x="763" y="-129" on="0"/>
        <pt x="763" y="-143" on="1"/>
        <pt x="731" y="-150" on="0"/>
        <pt x="671" y="-163" on="0"/>
        <pt x="608" y="-172" on="0"/>
        <pt x="539" y="-178" on="0"/>
        <pt x="498" y="-178" on="1"/>
        <pt x="451" y="-178" on="0"/>
        <pt x="392" y="-160" on="0"/>
        <pt x="359" y="-112" on="0"/>
        <pt x="347" y="-25" on="0"/>
        <pt x="347" y="44" on="1"/>
      </contour>
    </TTGlyph>
    <TTGlyph name="braceright" xMin="198" yMin="-178" xMax="871" yMax="1710">
      <contour>
        <pt x="490" y="-75" on="1"/>
        <pt x="490" y="573" on="1"/>
        <pt x="490" y="606" on="0"/>
        <pt x="526" y="658" on="0"/>
        <pt x="555" y="681" on="1"/>
        <pt x="595" y="710" on="0"/>
        <pt x="677" y="754" on="0"/>
        <pt x="725" y="776" on="1"/>
        <pt x="682" y="796" on="0"/>
        <pt x="607" y="831" on="0"/>
        <pt x="569" y="854" on="1"/>
        <pt x="534" y="876" on="0"/>
        <pt x="490" y="929" on="0"/>
        <pt x="490" y="969" on="1"/>
        <pt x="490" y="1609" on="1"/>
        <pt x="199" y="1609" on="1"/>
        <pt x="199" y="1624" on="0"/>
        <pt x="198" y="1661" on="0"/>
        <pt x="198" y="1676" on="1"/>
        <pt x="228" y="1682" on="0"/>
        <pt x="284" y="1694" on="0"/>
        <pt x="343" y="1704" on="0"/>
        <pt x="409" y="1710" on="0"/>
        <pt x="450" y="1710" on="1"/>
        <pt x="502" y="1710" on="0"/>
        <pt x="567" y="1692" on="0"/>
        <pt x="602" y="1644" on="0"/>
        <pt x="614" y="1558" on="0"/>
        <pt x="614" y="1490" on="1"/>
        <pt x="614" y="966" on="1"/>
        <pt x="614" y="946" on="0"/>
        <pt x="670" y="904" on="0"/>
        <pt x="749" y="866" on="0"/>
        <pt x="838" y="835" on="0"/>
        <pt x="871" y="826" on="1"/>
        <pt x="871" y="729" on="1"/>
        <pt x="838" y="720" on="0"/>
        <pt x="749" y="684" on="0"/>
        <pt x="669" y="641" on="0"/>
        <pt x="614" y="595" on="0"/>
        <pt x="614" y="576" on="1"/>
        <pt x="614" y="44" on="1"/>
        <pt x="614" y="-25" on="0"/>
        <pt x="602" y="-112" on="0"/>
        <pt x="569" y="-160" on="0"/>
        <pt x="510" y="-178" on="0"/>
        <pt x="463" y="-178" on="1"/>
        <pt x="422" y="-178" on="0"/>
        <pt x="353" y="-172" on="0"/>
        <pt x="290" y="-163" on="0"/>
        <pt x="230" y="-150" on="0"/>
        <pt x="198" y="-143" on="1"/>
        <pt x="198" y="-129" on="0"/>
        <pt x="199" y="-90" on="0"/>
        <pt x="199" y="-75" on="1"/>
      </contour>
    </TTGlyph>
    <TTGlyph name="bracketleft" xMin="200" yMin="-178" xMax="617" yMax="1709">
      <contour>
        <pt x="200" y="1488" on="1"/>
        <pt x="200" y="1557" on="0"/>
        <pt x="212" y="1643" on="0"/>
        <pt x="248" y="1692" on="0"/>
        <pt x="313" y="1709" on="0"/>
        <pt x="365" y="1709" on="1"/>
        <pt x="432" y="1709" on="0"/>
        <pt x="559" y="1688" on="0"/>
        <pt x="617" y="1676" on="1"/>
        <pt x="617" y="1661" on="0"/>
        <pt x="616" y="1624" on="0"/>
        <pt x="616" y="1609" on="1"/>
        <pt x="325" y="1609" on="1"/>
        <pt x="325" y="-75" on="1"/>
        <pt x="616" y="-77" on="1"/>
        <pt x="616" y="-91" on="0"/>
        <pt x="617" y="-129" on="0"/>
        <pt x="617" y="-143" on="1"/>
        <pt x="551" y="-158" on="0"/>
        <pt x="418" y="-178" on="0"/>
        <pt x="346" y="-178" on="1"/>
        <pt x="301" y="-178" on="0"/>
        <pt x="244" y="-160" on="0"/>
        <pt x="212" y="-113" on="0"/>
        <pt x="200" y="-34" on="0"/>
        <pt x="200" y="27" on="1"/>
      </contour>
    </TTGlyph>
    <TTGlyph name="bracketright" xMin="238" yMin="-178" xMax="654" yMax="1709">
      <contour>
        <pt x="530" y="-75" on="1"/>
        <pt x="530" y="1609" on="1"/>
        <pt x="239" y="1609" on="1"/>
        <pt x="239" y="1624" on="0"/>
        <pt x="238" y="1661" on="0"/>
        <pt x="238" y="1676" on="1"/>
        <pt x="296" y="1688" on="0"/>
        <pt x="422" y="1709" on="0"/>
        <pt x="490" y="1709" on="1"/>
        <pt x="542" y="1709" on="0"/>
        <pt x="606" y="1692" on="0"/>
        <pt x="642" y="1643" on="0"/>
        <pt x="654" y="1557" on="0"/>
        <pt x="654" y="1488" on="1"/>
        <pt x="654" y="27" on="1"/>
        <pt x="654" y="-34" on="0"/>
        <pt x="642" y="-113" on="0"/>
        <pt x="610" y="-160" on="0"/>
        <pt x="553" y="-178" on="0"/>
        <pt x="508" y="-178" on="1"/>
        <pt x="436" y="-178" on="0"/>
        <pt x="304" y="-158" on="0"/>
        <pt x="238" y="-143" on="1"/>
        <pt x="238" y="-129" on="0"/>
        <pt x="239" y="-91" on="0"/>
        <pt x="239" y="-77" on="1"/>
      </contour>
    </TTGlyph>
    <TTGlyph name="breve" xMin="200" yMin="1393" xMax="862" yMax="1707">
      <contour>
        <pt x="529" y="1393" on="1"/>
        <pt x="453" y="1393" on="0"/>
        <pt x="331" y="1445" on="0"/>
        <pt x="246" y="1532" on="0"/>
        <pt x="200" y="1645" on="0"/>
        <pt x="200" y="1706" on="1"/>
        <pt x="275" y="1706" on="1"/>
        <pt x="280" y="1682" on="0"/>
        <pt x="308" y="1612" on="0"/>
        <pt x="366" y="1547" on="0"/>
        <pt x="461" y="1501" on="0"/>
        <pt x="532" y="1501" on="1"/>
        <pt x="580" y="1501" on="0"/>
        <pt x="655" y="1523" on="0"/>
        <pt x="709" y="1559" on="0"/>
        <pt x="748" y="1604" on="0"/>
        <pt x="772" y="1650" on="0"/>
        <pt x="786" y="1692" on="0"/>
        <pt x="790" y="1707" on="1"/>
        <pt x="862" y="1707" on="1"/>
        <pt x="862" y="1644" on="0"/>
        <pt x="813" y="1531" on="0"/>
        <pt x="724" y="1444" on="0"/>
        <pt x="602" y="1393" on="0"/>
      </contour>
    </TTGlyph>
    <TTGlyph name="breve.cap" xMin="-37" yMin="1607" xMax="611" yMax="1920">
      <contour>
        <pt x="287" y="1607" on="1"/>
        <pt x="211" y="1607" on="0"/>
        <pt x="91" y="1659" on="0"/>
        <pt x="7" y="1746" on="0"/>
        <pt x="-37" y="1859" on="0"/>
        <pt x="-37" y="1920" on="1"/>
        <pt x="31" y="1920" on="1"/>
        <pt x="36" y="1896" on="0"/>
        <pt x="64" y="1826" on="0"/>
        <pt x="122" y="1761" on="0"/>
        <pt x="216" y="1715" on="0"/>
        <pt x="288" y="1715" on="1"/>
        <pt x="360" y="1715" on="0"/>
        <pt x="455" y="1762" on="0"/>
        <pt x="514" y="1828" on="0"/>
        <pt x="542" y="1897" on="0"/>
        <pt x="547" y="1920" on="1"/>
        <pt x="611" y="1920" on="1"/>
        <pt x="611" y="1859" on="0"/>
        <pt x="564" y="1746" on="0"/>
        <pt x="478" y="1659" on="0"/>
        <pt x="359" y="1607" on="0"/>
      </contour>
    </TTGlyph>
    <TTGlyph name="brokenbar" xMin="358" yMin="-186" xMax="489" yMax="1780">
      <contour>
        <pt x="358" y="1780" on="1"/>
        <pt x="489" y="1780" on="1"/>
        <pt x="489" y="886" on="1"/>
        <pt x="358" y="886" on="1"/>
      </contour>
      <contour>
        <pt x="358" y="708" on="1"/>
        <pt x="489" y="708" on="1"/>
        <pt x="489" y="-186" on="1"/>
        <pt x="358" y="-186" on="1"/>
      </contour>
    </TTGlyph>
</ttFont>
